{
	"asset":{
		"version":"2.0",
		"generator":"Created using the official Cinema 4D glTF Exporter 1.000x284978"
	},
	"scenes":[{
		"nodes":[0]
	}],
	"nodes":[{
		"name":"mouth13",
		"translation":[2.5115368366241457,
		-0.6569892168045044,
		1.9189835786819459],
		"rotation":[0.0,
		0.0,
		0.0,
		-1.0],
		"scale":[1.0,
		1.0,
		1.0],
		"children":[1,
		2]
	},
	{
		"name":"mouth13-PBR.1",
		"mesh":0
	},
	{
		"name":"mouth13-PBR",
		"mesh":1
	}],
	"meshes":[{
		"name":"mouth13-PBR.1",
		"primitives":[{
			"indices":0,
			"attributes":{
				"POSITION":1,
				"NORMAL":2,
				"TEXCOORD_0":3
			},
			"material":0
		}]
	},
	{
		"name":"mouth13-PBR",
		"primitives":[{
			"indices":4,
			"attributes":{
				"POSITION":5,
				"NORMAL":6,
				"TEXCOORD_0":7
			},
			"material":1
		}]
	}],
	"accessors":[{
		"bufferView":0,
		"type":"SCALAR",
		"componentType":5123,
		"count":15960,
		"byteOffset":0,
		"min":[0],
		"max":[2933]
	},
	{
		"bufferView":1,
		"type":"VEC3",
		"componentType":5126,
		"count":2934,
		"byteOffset":0,
		"min":[-6.682576656341553,
		-0.4909921884536743,
		-4.739837646484375],
		"max":[1.6595031023025513,
		3.2826244831085207,
		1.425811767578125]
	},
	{
		"bufferView":1,
		"type":"VEC3",
		"componentType":5126,
		"count":2934,
		"byteOffset":12,
		"min":[-0.9960938096046448,
		-0.9971563220024109,
		-0.9856563210487366],
		"max":[0.9960938096046448,
		0.9971563220024109,
		0.9856563210487366]
	},
	{
		"bufferView":1,
		"type":"VEC2",
		"componentType":5126,
		"count":2934,
		"byteOffset":24,
		"min":[0.0,
		0.0],
		"max":[1.0,
		1.0]
	},
	{
		"bufferView":2,
		"type":"SCALAR",
		"componentType":5123,
		"count":7704,
		"byteOffset":0,
		"min":[0],
		"max":[1468]
	},
	{
		"bufferView":3,
		"type":"VEC3",
		"componentType":5126,
		"count":1469,
		"byteOffset":0,
		"min":[-5.656371593475342,
		-2.3948991298675539,
		1.123025894165039],
		"max":[0.62315434217453,
		1.080920696258545,
		2.7149412631988527]
	},
	{
		"bufferView":3,
		"type":"VEC3",
		"componentType":5126,
		"count":1469,
		"byteOffset":12,
		"min":[-0.963937520980835,
		-0.8893125653266907,
		-0.9998750686645508],
		"max":[0.963937520980835,
		0.9924687743186951,
		0.9996563196182251]
	},
	{
		"bufferView":3,
		"type":"VEC2",
		"componentType":5126,
		"count":1469,
		"byteOffset":24,
		"min":[0.0,
		0.0],
		"max":[0.0,
		0.0]
	}],
	"bufferViews":[{
		"buffer":0,
		"byteLength":31920,
		"byteOffset":0,
		"target":34963
	},
	{
		"buffer":0,
		"byteLength":93888,
		"byteOffset":31920,
		"target":34962,
		"byteStride":32
	},
	{
		"buffer":1,
		"byteLength":15408,
		"byteOffset":0,
		"target":34963
	},
	{
		"buffer":1,
		"byteLength":47008,
		"byteOffset":15408,
		"target":34962,
		"byteStride":32
	}],
	"buffers":[{
		"uri":"data:application/octet-stream;base64,",
		"byteLength":125808
	},
	{
		"uri":"data:application/octet-stream;base64,",
		"byteLength":62416
	}],
	"materials":[{
		"pbrMetallicRoughness":{
			"baseColorFactor":[0.05,
			0.0305,
			0.031999999999999997,
			1.0],
			"metallicFactor":0.3,
			"roughnessFactor":0.3
		},
		"emissiveFactor":[0.0,
		0.0,
		0.0],
		"alphaMode":"OPAQUE",
		"doubleSided":true,
		"name":"PBR.1"
	},
	{
		"pbrMetallicRoughness":{
			"baseColorFactor":[0.27,
			0.7866883116883118,
			1.0,
			1.0],
			"metallicFactor":0.3,
			"roughnessFactor":0.3
		},
		"emissiveFactor":[0.0,
		0.0,
		0.0],
		"alphaMode":"OPAQUE",
		"doubleSided":true,
		"name":"PBR"
	}]
}