{
  "asset": {
    "version": "2.0",
    "generator": "THREE.GLTFExporter"
  },
  "scenes": [
    {
      "name": "Scene",
      "nodes": [
        2
      ]
    }
  ],
  "scene": 0,
  "nodes": [
    {
      "name": "身体1-腮红",
      "extras": {
        "name": "身体.1-腮红"
      },
      "mesh": 0
    },
    {
      "matrix": [
        1,
        0,
        0,
        0,
        0,
        1,
        0,
        0,
        0,
        0,
        1,
        0,
        -0.25482413172721863,
        -1.7046884298324585,
        0.3169207274913788,
        1
      ],
      "name": "身体1",
      "extras": {
        "name": "身体.1"
      },
      "children": [
        0
      ]
    },
    {
      "name": "BronzePig.gltf",
      "children": [
        1
      ]
    }
  ],
  "bufferViews": [
    {
      "buffer": 0,
      "byteOffset": 0,
      "byteLength": 39384,
      "target": 34962,
      "byteStride": 12
    },
    {
      "buffer": 0,
      "byteOffset": 39384,
      "byteLength": 39384,
      "target": 34962,
      "byteStride": 12
    },
    {
      "buffer": 0,
      "byteOffset": 78768,
      "byteLength": 26256,
      "target": 34962,
      "byteStride": 8
    },
    {
      "buffer": 0,
      "byteOffset": 105024,
      "byteLength": 36864,
      "target": 34963
    }
  ],
  "buffers": [
    {
      "byteLength": 141888,
      "uri": "data:application/octet-stream;base64,"
    }
  ],
  "accessors": [
    {
      "bufferView": 0,
      "componentType": 5126,
      "count": 3282,
      "max": [
        3.394191026687622,
        1.7412865161895752,
        3.361257314682007
      ],
      "min": [
        -2.884542942047119,
        0.3107059597969055,
        2.301522731781006
      ],
      "type": "VEC3"
    },
    {
      "bufferView": 1,
      "componentType": 5126,
      "count": 3282,
      "max": [
        0.6501875519752502,
        0.6150000095367432,
        0.9379062652587891
      ],
      "min": [
        -0.6501875519752502,
        -0.06337500363588333,
        0.6535000205039978
      ],
      "type": "VEC3"
    },
    {
      "bufferView": 2,
      "componentType": 5126,
      "count": 3282,
      "max": [
        1,
        1
      ],
      "min": [
        0,
        0
      ],
      "type": "VEC2"
    },
    {
      "bufferView": 3,
      "componentType": 5123,
      "count": 18432,
      "max": [
        3281
      ],
      "min": [
        0
      ],
      "type": "SCALAR"
    }
  ],
  "materials": [
    {
      "pbrMetallicRoughness": {
        "baseColorFactor": [
          0.99,
          0.5148,
          0.5148,
          1
        ],
        "metallicFactor": 1,
        "roughnessFactor": 1
      },
      "name": "腮红"
    }
  ],
  "meshes": [
    {
      "primitives": [
        {
          "mode": 4,
          "attributes": {
            "POSITION": 0,
            "NORMAL": 1,
            "TEXCOORD_0": 2
          },
          "indices": 3,
          "material": 0
        }
      ]
    }
  ]
}