{
	"asset":{
		"version":"2.0",
		"generator":"Created using the official Cinema 4D glTF Exporter 1.000x284978"
	},
	"scenes":[{
		"nodes":[0]
	}],
	"nodes":[{
		"name":"mouth11",
		"translation":[0.5614906549453735,
		-2.028381586074829,
		3.907881259918213],
		"rotation":[0.0,
		0.0,
		0.0,
		-1.0],
		"scale":[1.0,
		1.0,
		1.0],
		"mesh":0
	}],
	"meshes":[{
		"name":"mouth11",
		"primitives":[{
			"indices":0,
			"attributes":{
				"POSITION":1,
				"NORMAL":2,
				"TEXCOORD_0":3
			},
			"material":0
		}]
	}],
	"accessors":[{
		"bufferView":0,
		"type":"SCALAR",
		"componentType":5123,
		"count":9216,
		"byteOffset":0,
		"min":[0],
		"max":[1681]
	},
	{
		"bufferView":1,
		"type":"VEC3",
		"componentType":5126,
		"count":1682,
		"byteOffset":0,
		"min":[-0.15183201432228089,
		-0.2945917844772339,
		-0.09506982564926148],
		"max":[0.10477276146411896,
		0.25055012106895449,
		0.0576518252491951]
	},
	{
		"bufferView":1,
		"type":"VEC3",
		"componentType":5126,
		"count":1682,
		"byteOffset":12,
		"min":[-0.9999995231628418,
		-0.9997189044952393,
		-0.999843180179596],
		"max":[0.999704122543335,
		0.9988832473754883,
		0.9992272853851318]
	},
	{
		"bufferView":1,
		"type":"VEC2",
		"componentType":5126,
		"count":1682,
		"byteOffset":24,
		"min":[0.0,
		0.0],
		"max":[1.0,
		1.0]
	}],
	"bufferViews":[{
		"buffer":0,
		"byteLength":18432,
		"byteOffset":0,
		"target":34963
	},
	{
		"buffer":0,
		"byteLength":53824,
		"byteOffset":18432,
		"target":34962,
		"byteStride":32
	}],
	"buffers":[{
		"uri":"data:application/octet-stream;base64,",
		"byteLength":72256
	}],
	"materials":[{
		"pbrMetallicRoughness":{
			"baseColorFactor":[0.8621176470588235,
			0.8889807331628306,
			0.8980392156862745,
			1.0],
			"metallicFactor":0.3,
			"roughnessFactor":0.3
		},
		"emissiveFactor":[0.0,
		0.0,
		0.0],
		"alphaMode":"OPAQUE",
		"doubleSided":true,
		"name":"PBR"
	}]
}