{
	"asset":{
		"version":"2.0",
		"generator":"Created using the official Cinema 4D glTF Exporter 1.000x284978"
	},
	"scenes":[{
		"nodes":[0]
	}],
	"nodes":[{
		"name":"mouth6",
		"translation":[1.5399292707443238,
		-1.565111756324768,
		5.238271713256836],
		"rotation":[0.0,
		0.0,
		0.0,
		-1.0],
		"scale":[1.0,
		1.0,
		1.0],
		"mesh":0
	}],
	"meshes":[{
		"name":"mouth6",
		"primitives":[{
			"indices":0,
			"attributes":{
				"POSITION":1,
				"NORMAL":2,
				"TEXCOORD_0":3
			},
			"material":0
		}]
	}],
	"accessors":[{
		"bufferView":0,
		"type":"SCALAR",
		"componentType":5123,
		"count":20736,
		"byteOffset":0,
		"min":[0],
		"max":[3743]
	},
	{
		"bufferView":1,
		"type":"VEC3",
		"componentType":5126,
		"count":3744,
		"byteOffset":0,
		"min":[-1.2337517738342286,
		-0.996061384677887,
		-1.4617704153060914],
		"max":[1.216854214668274,
		0.9996191263198853,
		1.461044192314148]
	},
	{
		"bufferView":1,
		"type":"VEC3",
		"componentType":5126,
		"count":3744,
		"byteOffset":12,
		"min":[-0.9999040961265564,
		-0.9999837279319763,
		-0.9972548484802246],
		"max":[0.9993638396263123,
		0.9999991655349731,
		0.9997385740280151]
	},
	{
		"bufferView":1,
		"type":"VEC2",
		"componentType":5126,
		"count":3744,
		"byteOffset":24,
		"min":[0.0,
		0.0],
		"max":[1.0,
		1.0]
	}],
	"bufferViews":[{
		"buffer":0,
		"byteLength":41472,
		"byteOffset":0,
		"target":34963
	},
	{
		"buffer":0,
		"byteLength":119808,
		"byteOffset":41472,
		"target":34962,
		"byteStride":32
	}],
	"buffers":[{
		"uri":"data:application/octet-stream;base64,",
		"byteLength":161280
	}],
	"materials":[{
		"pbrMetallicRoughness":{
			"baseColorFactor":[0.8392156862745098,
			0.3568627450980392,
			0.9098039215686274,
			1.0],
			"metallicFactor":0.3,
			"roughnessFactor":0.3
		},
		"emissiveFactor":[0.0,
		0.0,
		0.0],
		"alphaMode":"OPAQUE",
		"doubleSided":true,
		"name":"PBR"
	}]
}