{
	"asset":{
		"version":"2.0",
		"generator":"Created using the official Cinema 4D glTF Exporter 1.000x284978"
	},
	"images":[{
		"uri":"data:image/jpeg;base64,"
	}],
	"scenes":[{
		"nodes":[0]
	}],
	"nodes":[{
		"name":"mouth12",
		"translation":[0.0,
		-1.4171597957611085,
		3.564990997314453],
		"rotation":[0.0,
		0.0,
		0.0,
		-1.0],
		"scale":[1.0,
		1.0,
		1.0],
		"mesh":0
	}],
	"meshes":[{
		"name":"mouth12",
		"primitives":[{
			"indices":0,
			"attributes":{
				"POSITION":1,
				"NORMAL":2,
				"TEXCOORD_0":3
			},
			"material":0
		}]
	}],
	"accessors":[{
		"bufferView":0,
		"type":"SCALAR",
		"componentType":5123,
		"count":23808,
		"byteOffset":0,
		"min":[0],
		"max":[4177]
	},
	{
		"bufferView":1,
		"type":"VEC3",
		"componentType":5126,
		"count":4178,
		"byteOffset":0,
		"min":[-3.225146770477295,
		-1.7308963537216187,
		-0.9230449795722961],
		"max":[3.225146770477295,
		1.6739284992218018,
		0.9660243391990662]
	},
	{
		"bufferView":1,
		"type":"VEC3",
		"componentType":5126,
		"count":4178,
		"byteOffset":12,
		"min":[-0.9994680881500244,
		-0.9999125003814697,
		-0.9982333183288574],
		"max":[0.9994681477546692,
		0.9993337392807007,
		0.9999476075172424]
	},
	{
		"bufferView":1,
		"type":"VEC2",
		"componentType":5126,
		"count":4178,
		"byteOffset":24,
		"min":[0.042762111872434619,
		0.03194665163755417],
		"max":[0.957227349281311,
		0.7598949670791626]
	}],
	"bufferViews":[{
		"buffer":0,
		"byteLength":47616,
		"byteOffset":0,
		"target":34963
	},
	{
		"buffer":0,
		"byteLength":133696,
		"byteOffset":47616,
		"target":34962,
		"byteStride":32
	}],
	"buffers":[{
		"uri":"data:application/octet-stream;base64,",
		"byteLength":181312
	}],
	"samplers":[{
		"magFilter":9729,
		"minFilter":9729,
		"wrapS":10497,
		"wrapT":10497
	}],
	"textures":[{
		"sampler":0,
		"source":0
	}],
	"materials":[{
		"pbrMetallicRoughness":{
			"baseColorTexture":{
				"index":0
			},
			"baseColorFactor":[0.9921568627450981,
			0.6052156862745098,
			0.6349803921568626,
			1.0],
			"metallicFactor":0.3,
			"roughnessFactor":0.3
		},
		"emissiveFactor":[0.0,
		0.0,
		0.0],
		"alphaMode":"OPAQUE",
		"doubleSided":true,
		"name":"PBR"
	}]
}