{
	"asset":{
		"version":"2.0",
		"generator":"Created using the official Cinema 4D glTF Exporter 1.000x284978"
	},
	"scenes":[{
		"nodes":[0]
	}],
	"nodes":[{
		"name":"mouth2",
		"translation":[0.0,
		-1.7789628505706788,
		4.047012805938721],
		"rotation":[0.0,
		0.0,
		0.0,
		-1.0],
		"scale":[1.0,
		1.0,
		1.0],
		"children":[1,
		2,
		3]
	},
	{
		"name":"mouth2-PBR.1",
		"mesh":0
	},
	{
		"name":"mouth2-PBR",
		"mesh":1
	},
	{
		"name":"mouth2-PBR.2",
		"mesh":2
	}],
	"meshes":[{
		"name":"mouth2-PBR.1",
		"primitives":[{
			"indices":0,
			"attributes":{
				"POSITION":1,
				"NORMAL":2,
				"TEXCOORD_0":3
			},
			"material":0
		}]
	},
	{
		"name":"mouth2-PBR",
		"primitives":[{
			"indices":4,
			"attributes":{
				"POSITION":5,
				"NORMAL":6,
				"TEXCOORD_0":7
			},
			"material":1
		}]
	},
	{
		"name":"mouth2-PBR.2",
		"primitives":[{
			"indices":8,
			"attributes":{
				"POSITION":9,
				"NORMAL":10,
				"TEXCOORD_0":11
			},
			"material":2
		}]
	}],
	"accessors":[{
		"bufferView":0,
		"type":"SCALAR",
		"componentType":5123,
		"count":2688,
		"byteOffset":0,
		"min":[0],
		"max":[515]
	},
	{
		"bufferView":1,
		"type":"VEC3",
		"componentType":5126,
		"count":516,
		"byteOffset":0,
		"min":[0.37717583775520327,
		-0.6771703958511353,
		0.15638235211372376],
		"max":[1.0230076313018799,
		0.018291182816028596,
		1.9515414237976075]
	},
	{
		"bufferView":1,
		"type":"VEC3",
		"componentType":5126,
		"count":516,
		"byteOffset":12,
		"min":[-0.9663438200950623,
		-0.9807500243186951,
		-0.36940625309944155],
		"max":[0.9663438200950623,
		0.9614688158035278,
		0.999750018119812]
	},
	{
		"bufferView":1,
		"type":"VEC2",
		"componentType":5126,
		"count":516,
		"byteOffset":24,
		"min":[0.0,
		0.21757686138153077],
		"max":[1.0,
		1.0]
	},
	{
		"bufferView":2,
		"type":"SCALAR",
		"componentType":5123,
		"count":1536,
		"byteOffset":0,
		"min":[0],
		"max":[344]
	},
	{
		"bufferView":3,
		"type":"VEC3",
		"componentType":5126,
		"count":345,
		"byteOffset":0,
		"min":[0.24997812509536744,
		-0.168491929769516,
		-0.32156503200531008],
		"max":[0.5648916363716126,
		0.15952779352664948,
		0.22815534472465516]
	},
	{
		"bufferView":3,
		"type":"VEC3",
		"componentType":5126,
		"count":345,
		"byteOffset":12,
		"min":[-0.9663438200950623,
		-0.9614688158035278,
		-0.9942188262939453],
		"max":[0.9663438200950623,
		0.9614688158035278,
		0.36940625309944155]
	},
	{
		"bufferView":3,
		"type":"VEC2",
		"componentType":5126,
		"count":345,
		"byteOffset":24,
		"min":[0.0,
		0.0],
		"max":[1.0,
		1.0]
	},
	{
		"bufferView":4,
		"type":"SCALAR",
		"componentType":5123,
		"count":384,
		"byteOffset":0,
		"min":[0],
		"max":[80]
	},
	{
		"bufferView":5,
		"type":"VEC3",
		"componentType":5126,
		"count":81,
		"byteOffset":0,
		"min":[0.8413455486297607,
		-0.6735231280326843,
		1.8834823369979859],
		"max":[1.0190097093582154,
		-0.4963133633136749,
		1.9515414237976075]
	},
	{
		"bufferView":5,
		"type":"VEC3",
		"componentType":5126,
		"count":81,
		"byteOffset":12,
		"min":[-0.25728127360343935,
		-0.7124375104904175,
		0.6196562647819519],
		"max":[0.6838750243186951,
		0.23887501657009126,
		0.999750018119812]
	},
	{
		"bufferView":5,
		"type":"VEC2",
		"componentType":5126,
		"count":81,
		"byteOffset":24,
		"min":[0.0,
		0.0],
		"max":[1.0,
		1.0]
	}],
	"bufferViews":[{
		"buffer":0,
		"byteLength":5376,
		"byteOffset":0,
		"target":34963
	},
	{
		"buffer":0,
		"byteLength":16512,
		"byteOffset":5376,
		"target":34962,
		"byteStride":32
	},
	{
		"buffer":1,
		"byteLength":3072,
		"byteOffset":0,
		"target":34963
	},
	{
		"buffer":1,
		"byteLength":11040,
		"byteOffset":3072,
		"target":34962,
		"byteStride":32
	},
	{
		"buffer":2,
		"byteLength":768,
		"byteOffset":0,
		"target":34963
	},
	{
		"buffer":2,
		"byteLength":2592,
		"byteOffset":768,
		"target":34962,
		"byteStride":32
	}],
	"buffers":[{
		"uri":"data:application/octet-stream;base64,",
		"byteLength":21888
	},
	{
		"uri":"data:application/octet-stream;base64,",
		"byteLength":14112
	},
	{
		"uri":"data:application/octet-stream;base64,",
		"byteLength":3360
	}],
	"materials":[{
		"pbrMetallicRoughness":{
			"baseColorFactor":[0.9500000000000001,
			0.9500000000000001,
			0.9500000000000001,
			1.0],
			"metallicFactor":0.3,
			"roughnessFactor":0.3
		},
		"emissiveFactor":[0.0,
		0.0,
		0.0],
		"alphaMode":"OPAQUE",
		"doubleSided":true,
		"name":"PBR.1"
	},
	{
		"pbrMetallicRoughness":{
			"baseColorFactor":[0.8509803921568627,
			0.5411764705882353,
			0.13725490196078439,
			1.0],
			"metallicFactor":0.3,
			"roughnessFactor":0.3
		},
		"emissiveFactor":[0.0,
		0.0,
		0.0],
		"alphaMode":"OPAQUE",
		"doubleSided":true,
		"name":"PBR"
	},
	{
		"pbrMetallicRoughness":{
			"baseColorFactor":[0.996078431372549,
			0.35490196078431376,
			0.14117647058823527,
			1.0],
			"metallicFactor":0.3,
			"roughnessFactor":0.3
		},
		"emissiveFactor":[0.0,
		0.0,
		0.0],
		"alphaMode":"OPAQUE",
		"doubleSided":true,
		"name":"PBR.2"
	}]
}