{
	"asset":{
		"version":"2.0",
		"generator":"Created using the official Cinema 4D glTF Exporter 1.000x284978"
	},
	"scenes":[{
		"nodes":[0]
	}],
	"nodes":[{
		"name":"mouth1",
		"translation":[0.2488766610622406,
		-1.6921228170394898,
		4.610217094421387],
		"rotation":[0.0,
		0.0,
		0.0,
		-1.0],
		"scale":[1.0,
		1.0,
		1.0],
		"mesh":0
	}],
	"meshes":[{
		"name":"mouth1",
		"primitives":[{
			"indices":0,
			"attributes":{
				"POSITION":1,
				"NORMAL":2,
				"TEXCOORD_0":3
			},
			"material":0
		}]
	}],
	"accessors":[{
		"bufferView":0,
		"type":"SCALAR",
		"componentType":5123,
		"count":17712,
		"byteOffset":0,
		"min":[0],
		"max":[4113]
	},
	{
		"bufferView":1,
		"type":"VEC3",
		"componentType":5126,
		"count":4114,
		"byteOffset":0,
		"min":[-0.3954879641532898,
		-0.4601920545101166,
		-0.7964855432510376],
		"max":[0.5048503875732422,
		0.44234487414360049,
		0.038225602358579639]
	},
	{
		"bufferView":1,
		"type":"VEC3",
		"componentType":5126,
		"count":4114,
		"byteOffset":12,
		"min":[-0.9999639987945557,
		-0.9999099373817444,
		-0.9958703517913818],
		"max":[0.9999732375144959,
		0.9999099373817444,
		0.9998131990432739]
	},
	{
		"bufferView":1,
		"type":"VEC2",
		"componentType":5126,
		"count":4114,
		"byteOffset":24,
		"min":[0.0,
		0.0],
		"max":[1.0,
		1.0]
	}],
	"bufferViews":[{
		"buffer":0,
		"byteLength":35424,
		"byteOffset":0,
		"target":34963
	},
	{
		"buffer":0,
		"byteLength":131648,
		"byteOffset":35424,
		"target":34962,
		"byteStride":32
	}],
	"buffers":[{
		"uri":"data:application/octet-stream;base64,",
		"byteLength":167072
	}],
	"materials":[{
		"pbrMetallicRoughness":{
			"baseColorFactor":[0.44705882352941186,
			0.7843137254901962,
			0.8980392156862745,
			1.0],
			"metallicFactor":0.3,
			"roughnessFactor":0.3
		},
		"emissiveFactor":[0.0,
		0.0,
		0.0],
		"alphaMode":"OPAQUE",
		"doubleSided":true,
		"name":"PBR"
	}]
}