{
	"nodes":[{
		"name":"mask01",
		"translation":[0.3086561858654022,
		0.5308301448822022,
		3.211601972579956],
		"rotation":[0.0,
		0.0,
		0.0,
		-1.0],
		"scale":[1.0,
		1.0,
		1.0],
		"children":[1,
		2,
		3]
	},
	{
		"name":"mask01-PBR.1",
		"mesh":0
	},
	{
		"name":"mask01-PBR",
		"mesh":1
	},
	{
		"name":"mask01-PBR.2",
		"mesh":2
	}],
	"asset":{
		"version":"2.0",
		"generator":"Created using the official Cinema 4D glTF Exporter 1.000x284978"
	},
	"scenes":[{
		"nodes":[0]
	}],
	"meshes":[{
		"name":"mask01-PBR.1",
		"primitives":[{
			"attributes":{
				"POSITION":1,
				"NORMAL":2,
				"TEXCOORD_0":3
			},
			"indices":0,
			"material":0
		}]
	},
	{
		"name":"mask01-PBR",
		"primitives":[{
			"attributes":{
				"POSITION":5,
				"NORMAL":6,
				"TEXCOORD_0":7
			},
			"indices":4,
			"material":1
		}]
	},
	{
		"name":"mask01-PBR.2",
		"primitives":[{
			"attributes":{
				"POSITION":9,
				"NORMAL":10,
				"TEXCOORD_0":11
			},
			"indices":8,
			"material":2
		}]
	}],
	"accessors":[{
		"componentType":5123,
		"bufferView":0,
		"type":"SCALAR",
		"count":6528,
		"byteOffset":0,
		"min":[0],
		"max":[1148]
	},
	{
		"componentType":5126,
		"bufferView":1,
		"type":"VEC3",
		"count":1149,
		"byteOffset":0,
		"min":[-2.9943206310272219,
		-0.12347900122404099,
		-0.24433952569961549],
		"max":[2.3770081996917726,
		2.158376693725586,
		1.379469394683838]
	},
	{
		"componentType":5126,
		"bufferView":1,
		"type":"VEC3",
		"count":1149,
		"byteOffset":12,
		"min":[-0.9119375348091126,
		-0.986625075340271,
		-0.33115625381469729],
		"max":[0.9119375348091126,
		0.9971250295639038,
		0.9989063143730164]
	},
	{
		"componentType":5126,
		"bufferView":1,
		"type":"VEC2",
		"count":1149,
		"byteOffset":24,
		"min":[0.20205381512641908,
		0.22798117995262147],
		"max":[0.48826563358306887,
		0.8152647018432617]
	},
	{
		"componentType":5123,
		"bufferView":2,
		"type":"SCALAR",
		"count":77952,
		"byteOffset":0,
		"min":[0],
		"max":[13606]
	},
	{
		"componentType":5126,
		"bufferView":3,
		"type":"VEC3",
		"count":13607,
		"byteOffset":0,
		"min":[-3.36287522315979,
		-3.3079674243927,
		-0.6021506786346436],
		"max":[2.745562791824341,
		2.6741907596588136,
		3.1239120960235597]
	},
	{
		"componentType":5126,
		"bufferView":3,
		"type":"VEC3",
		"count":13607,
		"byteOffset":12,
		"min":[-0.9998750686645508,
		-0.999625027179718,
		-0.9947813153266907],
		"max":[0.9998750686645508,
		0.999625027179718,
		0.9998750686645508]
	},
	{
		"componentType":5126,
		"bufferView":3,
		"type":"VEC2",
		"count":13607,
		"byteOffset":24,
		"min":[0.008491424843668938,
		0.01141674816608429],
		"max":[0.8559648990631104,
		0.9912078380584717]
	},
	{
		"componentType":5123,
		"bufferView":4,
		"type":"SCALAR",
		"count":4416,
		"byteOffset":0,
		"min":[0],
		"max":[817]
	},
	{
		"componentType":5126,
		"bufferView":5,
		"type":"VEC3",
		"count":818,
		"byteOffset":0,
		"min":[-2.356796979904175,
		0.6217168569564819,
		0.41459420323371889],
		"max":[1.739484429359436,
		1.781771183013916,
		1.2197489738464356]
	},
	{
		"componentType":5126,
		"bufferView":5,
		"type":"VEC3",
		"count":818,
		"byteOffset":12,
		"min":[-0.9544063210487366,
		-0.9832813143730164,
		-0.7928125262260437],
		"max":[0.9544063210487366,
		0.9980313181877136,
		0.9966250658035278]
	},
	{
		"componentType":5126,
		"bufferView":5,
		"type":"VEC2",
		"count":818,
		"byteOffset":24,
		"min":[0.0,
		0.0],
		"max":[0.0,
		0.0]
	}],
	"buffers":[{
		"uri":"data:application/octet-stream;base64,",
		"byteLength":49824
	},
	{
		"uri":"data:application/octet-stream;base64,",
		"byteLength":591328
	},
	{
		"uri":"data:application/octet-stream;base64,",
		"byteLength":35008
	}],
	"bufferViews":[{
		"buffer":0,
		"byteOffset":0,
		"byteLength":13056,
		"target":34963
	},
	{
		"buffer":0,
		"byteOffset":13056,
		"byteLength":36768,
		"byteStride":32,
		"target":34962
	},
	{
		"buffer":1,
		"byteOffset":0,
		"byteLength":155904,
		"target":34963
	},
	{
		"buffer":1,
		"byteOffset":155904,
		"byteLength":435424,
		"byteStride":32,
		"target":34962
	},
	{
		"buffer":2,
		"byteOffset":0,
		"byteLength":8832,
		"target":34963
	},
	{
		"buffer":2,
		"byteOffset":8832,
		"byteLength":26176,
		"byteStride":32,
		"target":34962
	}],
	"materials":[{
		"pbrMetallicRoughness":{
			"baseColorFactor":[0.8,
			0.8,
			0.8,
			1.0],
			"metallicFactor":0.3,
			"roughnessFactor":0.3
		},
		"emissiveFactor":[0.0,
		0.0,
		0.0],
		"alphaMode":"OPAQUE",
		"doubleSided":true,
		"name":"PBR.1"
	},
	{
		"pbrMetallicRoughness":{
			"baseColorFactor":[0.8,
			0.8,
			0.8,
			1.0],
			"metallicFactor":0.3,
			"roughnessFactor":0.3
		},
		"emissiveFactor":[0.0,
		0.0,
		0.0],
		"alphaMode":"OPAQUE",
		"doubleSided":true,
		"name":"PBR"
	},
	{
		"pbrMetallicRoughness":{
			"baseColorFactor":[0.3529411764705883,
			0.8039215686274512,
			1.0,
			1.0],
			"metallicFactor":0.3,
			"roughnessFactor":0.3
		},
		"emissiveFactor":[0.0,
		0.0,
		0.0],
		"alphaMode":"OPAQUE",
		"doubleSided":true,
		"name":"PBR.2"
	}]
}