{
	"asset":{
		"version":"2.0",
		"generator":"Created using the official Cinema 4D glTF Exporter 1.000x284978"
	},
	"scenes":[{
		"nodes":[0]
	}],
	"nodes":[{
		"name":"mouth8",
		"translation":[0.6705276966094971,
		-1.7508612871170045,
		5.163902282714844],
		"rotation":[0.0,
		0.0,
		0.0,
		-1.0],
		"scale":[1.0,
		1.0,
		1.0],
		"mesh":0
	}],
	"meshes":[{
		"name":"mouth8",
		"primitives":[{
			"indices":0,
			"attributes":{
				"POSITION":1,
				"NORMAL":2,
				"TEXCOORD_0":3
			},
			"material":0
		}]
	}],
	"accessors":[{
		"bufferView":0,
		"type":"SCALAR",
		"componentType":5123,
		"count":13440,
		"byteOffset":0,
		"min":[0],
		"max":[2261]
	},
	{
		"bufferView":1,
		"type":"VEC3",
		"componentType":5126,
		"count":2262,
		"byteOffset":0,
		"min":[-0.33009713888168337,
		-0.7213143110275269,
		-1.3824831247329713],
		"max":[0.7948908805847168,
		0.07980688661336899,
		0.6634552478790283]
	},
	{
		"bufferView":1,
		"type":"VEC3",
		"componentType":5126,
		"count":2262,
		"byteOffset":12,
		"min":[-0.9996442794799805,
		-0.9996054768562317,
		-0.999370813369751],
		"max":[0.9990809559822083,
		0.9999386072158814,
		0.9984013438224793]
	},
	{
		"bufferView":1,
		"type":"VEC2",
		"componentType":5126,
		"count":2262,
		"byteOffset":24,
		"min":[7.771561172376096e-16,
		-1.1102230246251566e-16],
		"max":[1.0,
		1.0]
	}],
	"bufferViews":[{
		"buffer":0,
		"byteLength":26880,
		"byteOffset":0,
		"target":34963
	},
	{
		"buffer":0,
		"byteLength":72384,
		"byteOffset":26880,
		"target":34962,
		"byteStride":32
	}],
	"buffers":[{
		"uri":"data:application/octet-stream;base64,",
		"byteLength":99264
	}],
	"materials":[{
		"pbrMetallicRoughness":{
			"baseColorFactor":[0.22,
			0.1466666666666667,
			0.0825,
			1.0],
			"metallicFactor":0.3,
			"roughnessFactor":0.3
		},
		"emissiveFactor":[0.0,
		0.0,
		0.0],
		"alphaMode":"OPAQUE",
		"doubleSided":true,
		"name":"PBR"
	}]
}