{
	"asset":{
		"version":"2.0",
		"generator":"Created using the official Cinema 4D glTF Exporter 1.000x284978"
	},
	"scenes":[{
		"nodes":[0]
	}],
	"nodes":[{
		"name":"mouth3",
		"translation":[0.5106459856033325,
		-1.972245454788208,
		5.066097259521484],
		"rotation":[0.0,
		0.0,
		0.0,
		-1.0],
		"scale":[1.0,
		1.0,
		1.0],
		"children":[1,
		2,
		3]
	},
	{
		"name":"mouth3-PBR",
		"mesh":0
	},
	{
		"name":"mouth3-PBR.1",
		"mesh":1
	},
	{
		"name":"mouth3-PBR.2",
		"mesh":2
	}],
	"meshes":[{
		"name":"mouth3-PBR",
		"primitives":[{
			"indices":0,
			"attributes":{
				"POSITION":1,
				"NORMAL":2,
				"TEXCOORD_0":3
			},
			"material":0
		}]
	},
	{
		"name":"mouth3-PBR.1",
		"primitives":[{
			"indices":4,
			"attributes":{
				"POSITION":5,
				"NORMAL":6,
				"TEXCOORD_0":7
			},
			"material":1
		}]
	},
	{
		"name":"mouth3-PBR.2",
		"primitives":[{
			"indices":8,
			"attributes":{
				"POSITION":9,
				"NORMAL":10,
				"TEXCOORD_0":11
			},
			"material":2
		}]
	}],
	"accessors":[{
		"bufferView":0,
		"type":"SCALAR",
		"componentType":5123,
		"count":19440,
		"byteOffset":0,
		"min":[0],
		"max":[3428]
	},
	{
		"bufferView":1,
		"type":"VEC3",
		"componentType":5126,
		"count":3429,
		"byteOffset":0,
		"min":[-0.2306932508945465,
		-0.126238152384758,
		-1.336946725845337],
		"max":[0.09740707278251648,
		0.29017069935798647,
		0.4603627324104309]
	},
	{
		"bufferView":1,
		"type":"VEC3",
		"componentType":5126,
		"count":3429,
		"byteOffset":12,
		"min":[-0.9910625219345093,
		-0.9836875200271606,
		-0.974906325340271],
		"max":[0.9910625219345093,
		0.9836875200271606,
		0.974906325340271]
	},
	{
		"bufferView":1,
		"type":"VEC2",
		"componentType":5126,
		"count":3429,
		"byteOffset":24,
		"min":[0.0,
		0.0],
		"max":[1.0,
		1.0]
	},
	{
		"bufferView":2,
		"type":"SCALAR",
		"componentType":5123,
		"count":2304,
		"byteOffset":0,
		"min":[0],
		"max":[587]
	},
	{
		"bufferView":3,
		"type":"VEC3",
		"componentType":5126,
		"count":588,
		"byteOffset":0,
		"min":[-0.17011670768260957,
		-0.3179645836353302,
		0.23069624602794648],
		"max":[0.3034028708934784,
		0.15461596846580506,
		0.6694591045379639]
	},
	{
		"bufferView":3,
		"type":"VEC3",
		"componentType":5126,
		"count":588,
		"byteOffset":12,
		"min":[-0.9982187747955322,
		-0.995093822479248,
		-0.8675000667572022],
		"max":[0.9982187747955322,
		0.9975625276565552,
		0.9667813181877136]
	},
	{
		"bufferView":3,
		"type":"VEC2",
		"componentType":5126,
		"count":588,
		"byteOffset":24,
		"min":[0.0,
		0.1666666567325592],
		"max":[1.0,
		0.75]
	},
	{
		"bufferView":4,
		"type":"SCALAR",
		"componentType":5123,
		"count":4320,
		"byteOffset":0,
		"min":[0],
		"max":[1024]
	},
	{
		"bufferView":5,
		"type":"VEC3",
		"componentType":5126,
		"count":1025,
		"byteOffset":0,
		"min":[-0.17011670768260957,
		-0.3185485601425171,
		0.19901975989341737],
		"max":[0.3034028708934784,
		0.15403205156326295,
		0.6775643229484558]
	},
	{
		"bufferView":5,
		"type":"VEC3",
		"componentType":5126,
		"count":1025,
		"byteOffset":12,
		"min":[-0.9982187747955322,
		-0.9975625276565552,
		-0.9998750686645508],
		"max":[0.9982187747955322,
		0.995093822479248,
		0.9998750686645508]
	},
	{
		"bufferView":5,
		"type":"VEC2",
		"componentType":5126,
		"count":1025,
		"byteOffset":24,
		"min":[0.0,
		0.0208333320915699],
		"max":[1.0,
		0.9791666269302368]
	}],
	"bufferViews":[{
		"buffer":0,
		"byteLength":38880,
		"byteOffset":0,
		"target":34963
	},
	{
		"buffer":0,
		"byteLength":109728,
		"byteOffset":38880,
		"target":34962,
		"byteStride":32
	},
	{
		"buffer":1,
		"byteLength":4608,
		"byteOffset":0,
		"target":34963
	},
	{
		"buffer":1,
		"byteLength":18816,
		"byteOffset":4608,
		"target":34962,
		"byteStride":32
	},
	{
		"buffer":2,
		"byteLength":8640,
		"byteOffset":0,
		"target":34963
	},
	{
		"buffer":2,
		"byteLength":32800,
		"byteOffset":8640,
		"target":34962,
		"byteStride":32
	}],
	"buffers":[{
		"uri":"data:application/octet-stream;base64,",
		"byteLength":148608
	},
	{
		"uri":"data:application/octet-stream;base64,",
		"byteLength":23424
	},
	{
		"uri":"data:application/octet-stream;base64,",
		"byteLength":41440
	}],
	"materials":[{
		"pbrMetallicRoughness":{
			"baseColorFactor":[0.9400000000000001,
			0.9400000000000001,
			0.9400000000000001,
			1.0],
			"metallicFactor":0.3,
			"roughnessFactor":0.3
		},
		"emissiveFactor":[0.0,
		0.0,
		0.0],
		"alphaMode":"OPAQUE",
		"doubleSided":true,
		"name":"PBR"
	},
	{
		"pbrMetallicRoughness":{
			"baseColorFactor":[0.9019607843137255,
			0.30980392156862748,
			0.5215686274509802,
			1.0],
			"metallicFactor":0.3,
			"roughnessFactor":0.3
		},
		"emissiveFactor":[0.0,
		0.0,
		0.0],
		"alphaMode":"OPAQUE",
		"doubleSided":true,
		"name":"PBR.1"
	},
	{
		"pbrMetallicRoughness":{
			"baseColorFactor":[0.996078431372549,
			0.7401164587046941,
			0.35858823529411767,
			1.0],
			"metallicFactor":0.3,
			"roughnessFactor":0.3
		},
		"emissiveFactor":[0.0,
		0.0,
		0.0],
		"alphaMode":"OPAQUE",
		"doubleSided":true,
		"name":"PBR.2"
	}]
}