{
	"asset":{
		"version":"2.0",
		"generator":"Created using the official Cinema 4D glTF Exporter 1.000x284978"
	},
	"scenes":[{
		"nodes":[0]
	}],
	"nodes":[{
		"name":"mouth9",
		"translation":[0.11350590735673905,
		-2.0112366676330568,
		4.390598297119141],
		"rotation":[0.0,
		0.0,
		0.0,
		-1.0],
		"scale":[1.0,
		1.0,
		1.0],
		"children":[1,
		2]
	},
	{
		"name":"mouth9-PBR",
		"mesh":0
	},
	{
		"name":"mouth9-PBR.1",
		"mesh":1
	}],
	"meshes":[{
		"name":"mouth9-PBR",
		"primitives":[{
			"indices":0,
			"attributes":{
				"POSITION":1,
				"NORMAL":2,
				"TEXCOORD_0":3
			},
			"material":0
		}]
	},
	{
		"name":"mouth9-PBR.1",
		"primitives":[{
			"indices":4,
			"attributes":{
				"POSITION":5,
				"NORMAL":6,
				"TEXCOORD_0":7
			},
			"material":1
		}]
	}],
	"accessors":[{
		"bufferView":0,
		"type":"SCALAR",
		"componentType":5123,
		"count":9264,
		"byteOffset":0,
		"min":[0],
		"max":[1627]
	},
	{
		"bufferView":1,
		"type":"VEC3",
		"componentType":5126,
		"count":1628,
		"byteOffset":0,
		"min":[-0.3571792542934418,
		-0.5824814438819885,
		-0.7595565915107727],
		"max":[0.4574556052684784,
		0.44526445865631106,
		0.4864993989467621]
	},
	{
		"bufferView":1,
		"type":"VEC3",
		"componentType":5126,
		"count":1628,
		"byteOffset":12,
		"min":[-0.9985000491142273,
		-0.9849063158035278,
		-0.987406313419342],
		"max":[0.9997813105583191,
		0.990531325340271,
		0.9864063262939453]
	},
	{
		"bufferView":1,
		"type":"VEC2",
		"componentType":5126,
		"count":1628,
		"byteOffset":24,
		"min":[0.0,
		0.0],
		"max":[1.0,
		1.0]
	},
	{
		"bufferView":2,
		"type":"SCALAR",
		"componentType":5123,
		"count":372,
		"byteOffset":0,
		"min":[0],
		"max":[80]
	},
	{
		"bufferView":3,
		"type":"VEC3",
		"componentType":5126,
		"count":81,
		"byteOffset":0,
		"min":[-0.05610431730747223,
		-0.3615415692329407,
		-0.7101679444313049],
		"max":[0.17742007970809937,
		0.40201911330223086,
		0.26139751076698305]
	},
	{
		"bufferView":3,
		"type":"VEC3",
		"componentType":5126,
		"count":81,
		"byteOffset":12,
		"min":[-0.12790626287460328,
		0.7203750610351563,
		0.5322187542915344],
		"max":[-0.02121875062584877,
		0.8396250605583191,
		0.6844375133514404]
	},
	{
		"bufferView":3,
		"type":"VEC2",
		"componentType":5126,
		"count":81,
		"byteOffset":24,
		"min":[0.41913700103759768,
		0.0],
		"max":[0.5809725522994995,
		0.7211956977844238]
	}],
	"bufferViews":[{
		"buffer":0,
		"byteLength":18528,
		"byteOffset":0,
		"target":34963
	},
	{
		"buffer":0,
		"byteLength":52096,
		"byteOffset":18528,
		"target":34962,
		"byteStride":32
	},
	{
		"buffer":1,
		"byteLength":744,
		"byteOffset":0,
		"target":34963
	},
	{
		"buffer":1,
		"byteLength":2592,
		"byteOffset":744,
		"target":34962,
		"byteStride":32
	}],
	"buffers":[{
		"uri":"data:application/octet-stream;base64,",
		"byteLength":70624
	},
	{
		"uri":"data:application/octet-stream;base64,",
		"byteLength":3336
	}],
	"materials":[{
		"pbrMetallicRoughness":{
			"baseColorFactor":[0.9921568627450981,
			0.6052156862745098,
			0.6349803921568626,
			1.0],
			"metallicFactor":0.3,
			"roughnessFactor":0.3
		},
		"emissiveFactor":[0.0,
		0.0,
		0.0],
		"alphaMode":"OPAQUE",
		"doubleSided":true,
		"name":"PBR"
	},
	{
		"pbrMetallicRoughness":{
			"baseColorFactor":[0.03484716157205241,
			0.06113537117903931,
			0.07,
			1.0],
			"metallicFactor":0.3,
			"roughnessFactor":0.3
		},
		"emissiveFactor":[0.0,
		0.0,
		0.0],
		"alphaMode":"OPAQUE",
		"doubleSided":true,
		"name":"PBR.1"
	}]
}