{
	"asset":{
		"version":"2.0",
		"generator":"Created using the official Cinema 4D glTF Exporter 1.000x284978"
	},
	"scenes":[{
		"nodes":[0]
	}],
	"nodes":[{
		"name":"necklace1",
		"translation":[0.0,
		-2.183640480041504,
		3.3245322704315187],
		"rotation":[0.0,
		0.0,
		0.0,
		-1.0],
		"scale":[1.0,
		1.0,
		1.0],
		"mesh":0
	}],
	"materials":[{
		"pbrMetallicRoughness":{
			"baseColorFactor":[0.9921568627450981,
			0.6343790849673203,
			0.0588235294117647,
			1.0],
			"metallicFactor":0.3,
			"roughnessFactor":0.3
		},
		"emissiveFactor":[0.0,
		0.0,
		0.0],
		"alphaMode":"OPAQUE",
		"doubleSided":true,
		"name":"PBR"
	}],
	"meshes":[{
		"name":"necklace1",
		"primitives":[{
			"attributes":{
				"POSITION":1,
				"NORMAL":2,
				"TEXCOORD_0":3
			},
			"indices":0,
			"material":0
		}]
	}],
	"accessors":[{
		"max":[13324],
		"bufferView":0,
		"type":"SCALAR",
		"componentType":5123,
		"count":70848,
		"byteOffset":0,
		"min":[0]
	},
	{
		"max":[2.0008773803710939,
		-1.2778526544570923,
		-0.9072195887565613],
		"bufferView":1,
		"type":"VEC3",
		"componentType":5126,
		"count":13325,
		"byteOffset":0,
		"min":[-2.0165016651153566,
		-2.970886707305908,
		-5.486766815185547]
	},
	{
		"max":[0.999579131603241,
		0.9999774098396301,
		0.9999502301216126],
		"bufferView":1,
		"type":"VEC3",
		"componentType":5126,
		"count":13325,
		"byteOffset":12,
		"min":[-0.9995408058166504,
		-0.999979555606842,
		-0.9999555349349976]
	},
	{
		"max":[1.0,
		1.0],
		"bufferView":1,
		"type":"VEC2",
		"componentType":5126,
		"count":13325,
		"byteOffset":24,
		"min":[0.0,
		0.0]
	}],
	"bufferViews":[{
		"buffer":0,
		"byteOffset":0,
		"byteLength":141696,
		"target":34963
	},
	{
		"buffer":0,
		"byteOffset":141696,
		"byteLength":426400,
		"target":34962,
		"byteStride":32
	}],
	"buffers":[{
		"uri":"data:application/octet-stream;base64,",
		"byteLength":568096
	}]
}