{
	"asset":{
		"version":"2.0",
		"generator":"Created using the official Cinema 4D glTF Exporter 1.000x284978"
	},
	"scenes":[{
		"nodes":[0]
	}],
	"nodes":[{
		"name":"necklace4",
		"translation":[0.0834873616695404,
		-3.1453075408935549,
		3.3245322704315187],
		"rotation":[0.0,
		0.0,
		0.0,
		-1.0],
		"scale":[1.0,
		1.0,
		1.0],
		"mesh":0
	}],
	"materials":[{
		"pbrMetallicRoughness":{
			"baseColorFactor":[0.93,
			0.93,
			0.05579999999999995,
			1.0],
			"metallicFactor":0.3,
			"roughnessFactor":0.3
		},
		"emissiveFactor":[0.0,
		0.0,
		0.0],
		"alphaMode":"OPAQUE",
		"doubleSided":true,
		"name":"PBR"
	}],
	"meshes":[{
		"name":"necklace4",
		"primitives":[{
			"attributes":{
				"POSITION":1,
				"NORMAL":2,
				"TEXCOORD_0":3
			},
			"indices":0,
			"material":0
		}]
	}],
	"accessors":[{
		"max":[24496],
		"bufferView":0,
		"type":"SCALAR",
		"componentType":5123,
		"count":128340,
		"byteOffset":0,
		"min":[0]
	},
	{
		"max":[2.1277663707733156,
		-0.047492995858192447,
		-0.13838200271129609],
		"bufferView":1,
		"type":"VEC3",
		"componentType":5126,
		"count":24497,
		"byteOffset":0,
		"min":[-2.2792763710021974,
		-3.5309345722198488,
		-5.402386665344238]
	},
	{
		"max":[1.0,
		1.0,
		0.9999688267707825],
		"bufferView":1,
		"type":"VEC3",
		"componentType":5126,
		"count":24497,
		"byteOffset":12,
		"min":[-1.0,
		-1.0,
		-0.9999063014984131]
	},
	{
		"max":[1.0,
		1.0],
		"bufferView":1,
		"type":"VEC2",
		"componentType":5126,
		"count":24497,
		"byteOffset":24,
		"min":[0.0,
		0.0]
	}],
	"bufferViews":[{
		"buffer":0,
		"byteOffset":0,
		"byteLength":256680,
		"target":34963
	},
	{
		"buffer":0,
		"byteOffset":256680,
		"byteLength":783904,
		"target":34962,
		"byteStride":32
	}],
	"buffers":[{
		"uri":"data:application/octet-stream;base64,",
		"byteLength":1040584
	}]
}