{
	"asset":{
		"version":"2.0",
		"generator":"Created using the official Cinema 4D glTF Exporter 1.000x284978"
	},
	"scenes":[{
		"nodes":[0]
	}],
	"nodes":[{
		"name":"necklace3",
		"translation":[0.0,
		-2.64046049118042,
		3.8120832443237306],
		"rotation":[0.0,
		0.0,
		0.0,
		-1.0],
		"scale":[1.0,
		1.0,
		1.0],
		"children":[1,
		2]
	},
	{
		"name":"necklace3-PBR.1",
		"mesh":0
	},
	{
		"name":"necklace3-PBR",
		"mesh":1
	}],
	"materials":[{
		"pbrMetallicRoughness":{
			"baseColorFactor":[0.05,
			0.05,
			0.0029999999999999976,
			1.0],
			"metallicFactor":0.3,
			"roughnessFactor":0.3
		},
		"emissiveFactor":[0.0,
		0.0,
		0.0],
		"alphaMode":"OPAQUE",
		"doubleSided":true,
		"name":"PBR.1"
	},
	{
		"pbrMetallicRoughness":{
			"baseColorFactor":[0.93,
			0.93,
			0.05579999999999995,
			1.0],
			"metallicFactor":0.3,
			"roughnessFactor":0.3
		},
		"emissiveFactor":[0.0,
		0.0,
		0.0],
		"alphaMode":"OPAQUE",
		"doubleSided":true,
		"name":"PBR"
	}],
	"meshes":[{
		"name":"necklace3-PBR.1",
		"primitives":[{
			"attributes":{
				"POSITION":1,
				"NORMAL":2,
				"TEXCOORD_0":3
			},
			"indices":0,
			"material":0
		}]
	},
	{
		"name":"necklace3-PBR",
		"primitives":[{
			"attributes":{
				"POSITION":5,
				"NORMAL":6,
				"TEXCOORD_0":7
			},
			"indices":4,
			"material":1
		}]
	}],
	"accessors":[{
		"max":[15593],
		"bufferView":0,
		"type":"SCALAR",
		"componentType":5123,
		"count":89280,
		"byteOffset":0,
		"min":[0]
	},
	{
		"max":[1.6815375089645386,
		-0.7862147092819214,
		-0.825963020324707],
		"bufferView":1,
		"type":"VEC3",
		"componentType":5126,
		"count":15594,
		"byteOffset":0,
		"min":[-1.6807351112365723,
		-4.372961044311523,
		-5.482206344604492]
	},
	{
		"max":[0.9999688267707825,
		0.9992188215255737,
		0.9966250658035278],
		"bufferView":1,
		"type":"VEC3",
		"componentType":5126,
		"count":15594,
		"byteOffset":12,
		"min":[-0.9999688267707825,
		-0.9992188215255737,
		-0.9966250658035278]
	},
	{
		"max":[1.0,
		1.0],
		"bufferView":1,
		"type":"VEC2",
		"componentType":5126,
		"count":15594,
		"byteOffset":24,
		"min":[0.0,
		0.0]
	},
	{
		"max":[2291],
		"bufferView":2,
		"type":"SCALAR",
		"componentType":5123,
		"count":12480,
		"byteOffset":0,
		"min":[0]
	},
	{
		"max":[0.42256787419319155,
		-3.810678720474243,
		-0.6762195825576782],
		"bufferView":3,
		"type":"VEC3",
		"componentType":5126,
		"count":2292,
		"byteOffset":0,
		"min":[-0.4228522777557373,
		-4.990633964538574,
		-0.9986452460289002]
	},
	{
		"max":[1.0,
		0.9998437762260437,
		0.999000072479248],
		"bufferView":3,
		"type":"VEC3",
		"componentType":5126,
		"count":2292,
		"byteOffset":12,
		"min":[-1.0,
		-0.9998437762260437,
		-0.9999688267707825]
	},
	{
		"max":[1.0,
		1.0],
		"bufferView":3,
		"type":"VEC2",
		"componentType":5126,
		"count":2292,
		"byteOffset":24,
		"min":[0.0,
		0.0]
	}],
	"bufferViews":[{
		"buffer":0,
		"byteOffset":0,
		"byteLength":178560,
		"target":34963
	},
	{
		"buffer":0,
		"byteOffset":178560,
		"byteLength":499008,
		"target":34962,
		"byteStride":32
	},
	{
		"buffer":1,
		"byteOffset":0,
		"byteLength":24960,
		"target":34963
	},
	{
		"buffer":1,
		"byteOffset":24960,
		"byteLength":73344,
		"target":34962,
		"byteStride":32
	}],
	"buffers":[{
		"uri":"data:application/octet-stream;base64,",
		"byteLength":677568
	},
	{
		"uri":"data:application/octet-stream;base64,",
		"byteLength":98304
	}]
}