{
  "asset": {
    "version": "2.0",
    "generator": "THREE.GLTFExporter"
  },
  "scenes": [
    {
      "name": "Scene",
      "nodes": [
        4
      ]
    }
  ],
  "scene": 0,
  "nodes": [
    {
      "name": "身体-PBR3_1",
      "extras": {
        "name": "身体-PBR.3"
      },
      "mesh": 0
    },
    {
      "name": "身体-PBR4_2",
      "extras": {
        "name": "身体-PBR.4"
      },
      "mesh": 1
    },
    {
      "matrix": [
        1,
        0,
        0,
        0,
        0,
        1,
        0,
        0,
        0,
        0,
        1,
        0,
        1.0458446741104126,
        0.1266276240348816,
        1.2923322916030884,
        1
      ],
      "name": "身体",
      "extras": {
        "name": "身体"
      },
      "children": [
        0,
        1
      ]
    },
    {
      "name": "pigbody6gltf",
      "extras": {
        "name": "pigbody6.gltf"
      },
      "children": [
        2
      ]
    },
    {
      "name": "wingsshirtnecklace.gltf",
      "children": [
        3
      ]
    }
  ],
  "bufferViews": [
    {
      "buffer": 0,
      "byteOffset": 0,
      "byteLength": 27600,
      "target": 34962,
      "byteStride": 12
    },
    {
      "buffer": 0,
      "byteOffset": 27600,
      "byteLength": 27600,
      "target": 34962,
      "byteStride": 12
    },
    {
      "buffer": 0,
      "byteOffset": 55200,
      "byteLength": 18400,
      "target": 34962,
      "byteStride": 8
    },
    {
      "buffer": 0,
      "byteOffset": 73600,
      "byteLength": 24960,
      "target": 34963
    },
    {
      "buffer": 0,
      "byteOffset": 98560,
      "byteLength": 732792,
      "target": 34962,
      "byteStride": 12
    },
    {
      "buffer": 0,
      "byteOffset": 831352,
      "byteLength": 732792,
      "target": 34962,
      "byteStride": 12
    },
    {
      "buffer": 0,
      "byteOffset": 1564144,
      "byteLength": 488528,
      "target": 34962,
      "byteStride": 8
    },
    {
      "buffer": 0,
      "byteOffset": 2052672,
      "byteLength": 714240,
      "target": 34963
    }
  ],
  "buffers": [
    {
      "byteLength": 2766912,
      "uri": "data:application/octet-stream;base64,"
    }
  ],
  "accessors": [
    {
      "bufferView": 0,
      "componentType": 5126,
      "count": 2300,
      "max": [
        -0.6232768297195435,
        -6.5777668952941895,
        1.8435314893722534
      ],
      "min": [
        -1.46869695186615,
        -7.757721900939941,
        1.5211057662963867
      ],
      "type": "VEC3"
    },
    {
      "bufferView": 1,
      "componentType": 5126,
      "count": 2300,
      "max": [
        1,
        0.9998437762260437,
        0.999000072479248
      ],
      "min": [
        -1,
        -0.9998437762260437,
        -0.9999688267707825
      ],
      "type": "VEC3"
    },
    {
      "bufferView": 2,
      "componentType": 5126,
      "count": 2300,
      "max": [
        1,
        1
      ],
      "min": [
        0,
        0
      ],
      "type": "VEC2"
    },
    {
      "bufferView": 3,
      "componentType": 5123,
      "count": 12480,
      "max": [
        2299
      ],
      "min": [
        0
      ],
      "type": "SCALAR"
    },
    {
      "bufferView": 4,
      "componentType": 5126,
      "count": 61066,
      "max": [
        0.6353250741958618,
        -3.553668737411499,
        1.6934361457824707
      ],
      "min": [
        -2.7263851165771484,
        -7.137248516082764,
        -2.9620726108551025
      ],
      "type": "VEC3"
    },
    {
      "bufferView": 5,
      "componentType": 5126,
      "count": 61066,
      "max": [
        0.9999688267707825,
        0.9992188215255737,
        0.9996563196182251
      ],
      "min": [
        -0.9999688267707825,
        -0.9999688267707825,
        -0.9986875653266907
      ],
      "type": "VEC3"
    },
    {
      "bufferView": 6,
      "componentType": 5126,
      "count": 61066,
      "max": [
        1,
        1
      ],
      "min": [
        0,
        0
      ],
      "type": "VEC2"
    },
    {
      "bufferView": 7,
      "componentType": 5123,
      "count": 357120,
      "max": [
        61065
      ],
      "min": [
        0
      ],
      "type": "SCALAR"
    }
  ],
  "materials": [
    {
      "pbrMetallicRoughness": {
        "baseColorFactor": [
          0.98,
          0.6350400000000002,
          0.1176,
          1
        ],
        "metallicFactor": 0.44,
        "roughnessFactor": 0.13
      },
      "doubleSided": true,
      "name": "PBR.3"
    },
    {
      "pbrMetallicRoughness": {
        "baseColorFactor": [
          0.08,
          0.08,
          0.08,
          1
        ],
        "metallicFactor": 0.62,
        "roughnessFactor": 0.12
      },
      "doubleSided": true,
      "name": "PBR.4"
    }
  ],
  "meshes": [
    {
      "primitives": [
        {
          "mode": 4,
          "attributes": {
            "POSITION": 0,
            "NORMAL": 1,
            "TEXCOORD_0": 2
          },
          "indices": 3,
          "material": 0
        }
      ]
    },
    {
      "primitives": [
        {
          "mode": 4,
          "attributes": {
            "POSITION": 4,
            "NORMAL": 5,
            "TEXCOORD_0": 6
          },
          "indices": 7,
          "material": 1
        }
      ]
    }
  ]
}