{
	"asset":{
		"version":"2.0",
		"generator":"Created using the official Cinema 4D glTF Exporter 1.000x284978"
	},
	"scenes":[{
		"nodes":[0]
	}],
	"nodes":[{
		"name":"scarf1",
		"translation":[0.008911185897886753,
		-6.018448352813721,
		0.026192480698227884],
		"rotation":[0.0,
		0.0,
		0.0,
		-1.0],
		"scale":[1.0,
		1.0,
		1.0],
		"mesh":0
	}],
	"materials":[{
		"pbrMetallicRoughness":{
			"baseColorFactor":[0.019607843137254924,
			0.4,
			0.25490196078431379,
			1.0],
			"metallicFactor":0.3,
			"roughnessFactor":0.3
		},
		"emissiveFactor":[0.0,
		0.0,
		0.0],
		"alphaMode":"OPAQUE",
		"doubleSided":true,
		"name":"PBR.1"
	}],
	"meshes":[{
		"name":"scarf1",
		"primitives":[{
			"attributes":{
				"POSITION":1,
				"NORMAL":2,
				"TEXCOORD_0":3
			},
			"indices":0,
			"material":0
		}]
	}],
	"accessors":[{
		"max":[30994],
		"bufferView":0,
		"type":"SCALAR",
		"componentType":5123,
		"count":181728,
		"byteOffset":0,
		"min":[0]
	},
	{
		"max":[2.5380992889404299,
		2.5993175506591799,
		2.770908832550049],
		"bufferView":1,
		"type":"VEC3",
		"componentType":5126,
		"count":30995,
		"byteOffset":0,
		"min":[-2.5805017948150636,
		-2.9902148246765138,
		-2.9368109703063967]
	},
	{
		"max":[0.9999614357948303,
		0.9999047517776489,
		0.9999969601631165],
		"bufferView":1,
		"type":"VEC3",
		"componentType":5126,
		"count":30995,
		"byteOffset":12,
		"min":[-0.9998083710670471,
		-0.9999560713768005,
		-0.9999999403953552]
	},
	{
		"max":[1.0,
		1.0],
		"bufferView":1,
		"type":"VEC2",
		"componentType":5126,
		"count":30995,
		"byteOffset":24,
		"min":[0.0,
		0.0]
	}],
	"bufferViews":[{
		"buffer":0,
		"byteOffset":0,
		"byteLength":363456,
		"target":34963
	},
	{
		"buffer":0,
		"byteOffset":363456,
		"byteLength":991840,
		"target":34962,
		"byteStride":32
	}],
	"buffers":[{
		"uri":"data:application/octet-stream;base64,",
		"byteLength":1355296
	}]
}