{
  "asset": {
    "version": "2.0",
    "generator": "THREE.GLTFExporter"
  },
  "scenes": [
    {
      "name": "Scene",
      "nodes": [
        3
      ]
    }
  ],
  "scene": 0,
  "nodes": [
    {
      "name": "身体1-白色_2",
      "extras": {
        "name": "身体.1-白色"
      },
      "mesh": 0
    },
    {
      "matrix": [
        1,
        0,
        0,
        0,
        0,
        1,
        0,
        0,
        0,
        0,
        1,
        0,
        -0.25482413172721863,
        -1.7046884298324585,
        0.3169207274913788,
        1
      ],
      "name": "身体1",
      "extras": {
        "name": "身体.1"
      },
      "children": [
        0
      ]
    },
    {
      "name": "pigbody3gltf",
      "extras": {
        "name": "pigbody3.gltf"
      },
      "children": [
        1
      ]
    },
    {
      "name": "shirtcollar.gltf",
      "children": [
        2
      ]
    }
  ],
  "bufferViews": [
    {
      "buffer": 0,
      "byteOffset": 0,
      "byteLength": 21180,
      "target": 34962,
      "byteStride": 12
    },
    {
      "buffer": 0,
      "byteOffset": 21180,
      "byteLength": 21180,
      "target": 34962,
      "byteStride": 12
    },
    {
      "buffer": 0,
      "byteOffset": 42360,
      "byteLength": 14120,
      "target": 34962,
      "byteStride": 8
    },
    {
      "buffer": 0,
      "byteOffset": 56480,
      "byteLength": 18432,
      "target": 34963
    }
  ],
  "buffers": [
    {
      "byteLength": 74912,
      "uri": "data:application/octet-stream;base64,"
    }
  ],
  "accessors": [
    {
      "bufferView": 0,
      "componentType": 5126,
      "count": 1765,
      "max": [
        2.2941579818725586,
        -1.4621729850769043,
        1.4416180849075317
      ],
      "min": [
        -1.7506976127624512,
        -2.4649884700775146,
        -2.154296636581421
      ],
      "type": "VEC3"
    },
    {
      "bufferView": 1,
      "componentType": 5126,
      "count": 1765,
      "max": [
        0.9998750686645508,
        0.9386875629425049,
        0.9967188239097595
      ],
      "min": [
        -0.9985625743865967,
        -0.9999688267707825,
        -0.9965000748634338
      ],
      "type": "VEC3"
    },
    {
      "bufferView": 2,
      "componentType": 5126,
      "count": 1765,
      "max": [
        1,
        1
      ],
      "min": [
        0,
        0
      ],
      "type": "VEC2"
    },
    {
      "bufferView": 3,
      "componentType": 5123,
      "count": 9216,
      "max": [
        1764
      ],
      "min": [
        0
      ],
      "type": "SCALAR"
    }
  ],
  "materials": [
    {
      "pbrMetallicRoughness": {
        "baseColorFactor": [
          0.99,
          0.9801,
          0.9801,
          1
        ],
        "metallicFactor": 1,
        "roughnessFactor": 1
      },
      "name": "白色"
    }
  ],
  "meshes": [
    {
      "primitives": [
        {
          "mode": 4,
          "attributes": {
            "POSITION": 0,
            "NORMAL": 1,
            "TEXCOORD_0": 2
          },
          "indices": 3,
          "material": 0
        }
      ]
    }
  ]
}