{
	"asset":{
		"version":"2.0",
		"generator":"Created using the official Cinema 4D glTF Exporter 1.000x284978"
	},
	"scenes":[{
		"nodes":[0]
	}],
	"nodes":[{
		"name":"necklace5",
		"translation":[0.0,
		-2.081666946411133,
		3.3245322704315187],
		"rotation":[0.0,
		0.0,
		0.0,
		-1.0],
		"scale":[1.0,
		1.0,
		1.0],
		"mesh":0
	}],
	"materials":[{
		"pbrMetallicRoughness":{
			"baseColorFactor":[0.93,
			0.93,
			0.05579999999999995,
			1.0],
			"metallicFactor":0.3,
			"roughnessFactor":0.3
		},
		"emissiveFactor":[0.0,
		0.0,
		0.0],
		"alphaMode":"OPAQUE",
		"doubleSided":true,
		"name":"PBR.1"
	}],
	"meshes":[{
		"name":"necklace5",
		"primitives":[{
			"attributes":{
				"POSITION":1,
				"NORMAL":2,
				"TEXCOORD_0":3
			},
			"indices":0,
			"material":0
		}]
	}],
	"accessors":[{
		"max":[10074],
		"bufferView":0,
		"type":"SCALAR",
		"componentType":5123,
		"count":53568,
		"byteOffset":0,
		"min":[0]
	},
	{
		"max":[2.0469131469726564,
		-1.1213444471359254,
		-0.28789156675338747],
		"bufferView":1,
		"type":"VEC3",
		"componentType":5126,
		"count":10075,
		"byteOffset":0,
		"min":[-2.0895469188690187,
		-4.1933183670043949,
		-5.384596824645996]
	},
	{
		"max":[0.9993062019348145,
		0.9997801184654236,
		0.9998934864997864],
		"bufferView":1,
		"type":"VEC3",
		"componentType":5126,
		"count":10075,
		"byteOffset":12,
		"min":[-0.9999418258666992,
		-0.999619722366333,
		-0.9999032020568848]
	},
	{
		"max":[1.0,
		1.0],
		"bufferView":1,
		"type":"VEC2",
		"componentType":5126,
		"count":10075,
		"byteOffset":24,
		"min":[0.0,
		0.0]
	}],
	"bufferViews":[{
		"buffer":0,
		"byteOffset":0,
		"byteLength":107136,
		"target":34963
	},
	{
		"buffer":0,
		"byteOffset":107136,
		"byteLength":322400,
		"target":34962,
		"byteStride":32
	}],
	"buffers":[{
		"uri":"data:application/octet-stream;base64,",
		"byteLength":429536
	}]
}