{
	"nodes":[{
		"name":"cloth2",
		"translation":[0.922439694404602,
		-4.920328140258789,
		0.9049518704414368],
		"rotation":[0.0,
		0.0,
		0.0,
		-1.0],
		"scale":[1.0,
		1.0,
		1.0],
		"children":[1,
		2,
		3]
	},
	{
		"name":"cloth2-PBR.2",
		"mesh":0
	},
	{
		"name":"cloth2-PBR.1",
		"mesh":1
	},
	{
		"name":"cloth2-PBR",
		"mesh":2
	}],
	"asset":{
		"version":"2.0",
		"generator":"Created using the official Cinema 4D glTF Exporter 1.000x284978"
	},
	"textures":[{
		"sampler":0,
		"source":0
	},
	{
		"sampler":1,
		"source":0
	}],
	"scenes":[{
		"nodes":[0]
	}],
	"samplers":[{
		"magFilter":9729,
		"minFilter":9729,
		"wrapS":10497,
		"wrapT":10497
	},
	{
		"magFilter":9729,
		"minFilter":9729,
		"wrapS":10497,
		"wrapT":10497
	}],
	"meshes":[{
		"name":"cloth2-PBR.2",
		"primitives":[{
			"attributes":{
				"POSITION":1,
				"NORMAL":2,
				"TEXCOORD_0":3
			},
			"indices":0,
			"material":0
		}]
	},
	{
		"name":"cloth2-PBR.1",
		"primitives":[{
			"attributes":{
				"POSITION":5,
				"NORMAL":6,
				"TEXCOORD_0":7
			},
			"indices":4,
			"material":1
		}]
	},
	{
		"name":"cloth2-PBR",
		"primitives":[{
			"attributes":{
				"POSITION":9,
				"NORMAL":10,
				"TEXCOORD_0":11
			},
			"indices":8,
			"material":2
		}]
	}],
	"accessors":[{
		"componentType":5123,
		"bufferView":0,
		"type":"SCALAR",
		"count":288,
		"byteOffset":0,
		"min":[0],
		"max":[80]
	},
	{
		"componentType":5126,
		"bufferView":1,
		"type":"VEC3",
		"count":81,
		"byteOffset":0,
		"min":[0.41442668437957766,
		-1.1948126554489136,
		0.5031770467758179],
		"max":[1.4857923984527588,
		-1.0110589265823365,
		1.3853609561920167]
	},
	{
		"componentType":5126,
		"bufferView":1,
		"type":"VEC3",
		"count":81,
		"byteOffset":12,
		"min":[-0.03278125077486038,
		-0.9511563181877136,
		0.0293125007301569],
		"max":[0.8374375104904175,
		0.999000072479248,
		0.9486563205718994]
	},
	{
		"componentType":5126,
		"bufferView":1,
		"type":"VEC2",
		"count":81,
		"byteOffset":24,
		"min":[0.5640729665756226,
		0.35288548469543459],
		"max":[0.6255956888198853,
		0.3784226179122925]
	},
	{
		"componentType":5123,
		"bufferView":2,
		"type":"SCALAR",
		"count":2160,
		"byteOffset":0,
		"min":[0],
		"max":[573]
	},
	{
		"componentType":5126,
		"bufferView":3,
		"type":"VEC3",
		"count":574,
		"byteOffset":0,
		"min":[0.32449716329574587,
		-2.448734760284424,
		0.3568640351295471],
		"max":[1.508513331413269,
		-1.0110589265823365,
		1.491121768951416]
	},
	{
		"componentType":5126,
		"bufferView":3,
		"type":"VEC3",
		"count":574,
		"byteOffset":12,
		"min":[-0.8686875700950623,
		-0.9925938248634338,
		-0.8783438205718994],
		"max":[0.9509375691413879,
		0.9998750686645508,
		0.971656322479248]
	},
	{
		"componentType":5126,
		"bufferView":3,
		"type":"VEC2",
		"count":574,
		"byteOffset":24,
		"min":[0.0,
		0.0],
		"max":[1.0,
		1.0]
	},
	{
		"componentType":5123,
		"bufferView":4,
		"type":"SCALAR",
		"count":113856,
		"byteOffset":0,
		"min":[0],
		"max":[20140]
	},
	{
		"componentType":5126,
		"bufferView":5,
		"type":"VEC3",
		"count":20141,
		"byteOffset":0,
		"min":[-5.831631660461426,
		-4.663605690002441,
		-3.895297050476074],
		"max":[3.9867522716522219,
		1.656151533126831,
		1.9925888776779175]
	},
	{
		"componentType":5126,
		"bufferView":5,
		"type":"VEC3",
		"count":20141,
		"byteOffset":12,
		"min":[-0.9998750686645508,
		-0.9927188158035278,
		-0.9997813105583191],
		"max":[0.9998750686645508,
		0.9969375729560852,
		0.9998750686645508]
	},
	{
		"componentType":5126,
		"bufferView":5,
		"type":"VEC2",
		"count":20141,
		"byteOffset":24,
		"min":[0.0072393594309687618,
		0.01566905528306961],
		"max":[0.9891771078109741,
		0.9843953847885132]
	}],
	"buffers":[{
		"uri":"data:application/octet-stream;base64,",
		"byteLength":3168
	},
	{
		"uri":"data:application/octet-stream;base64,",
		"byteLength":22688
	},
	{
		"uri":"data:application/octet-stream;base64,",
		"byteLength":872224
	}],
	"bufferViews":[{
		"buffer":0,
		"byteOffset":0,
		"byteLength":576,
		"target":34963
	},
	{
		"buffer":0,
		"byteOffset":576,
		"byteLength":2592,
		"byteStride":32,
		"target":34962
	},
	{
		"buffer":1,
		"byteOffset":0,
		"byteLength":4320,
		"target":34963
	},
	{
		"buffer":1,
		"byteOffset":4320,
		"byteLength":18368,
		"byteStride":32,
		"target":34962
	},
	{
		"buffer":2,
		"byteOffset":0,
		"byteLength":227712,
		"target":34963
	},
	{
		"buffer":2,
		"byteOffset":227712,
		"byteLength":644512,
		"byteStride":32,
		"target":34962
	}],
	"images":[{
		"uri":"data:image/jpeg;base64,"
	}],
	"materials":[{
		"pbrMetallicRoughness":{
			"baseColorFactor":[0.8,
			0.8,
			0.8,
			1.0],
			"metallicFactor":0.3,
			"roughnessFactor":0.3
		},
		"emissiveFactor":[0.0,
		0.0,
		0.0],
		"alphaMode":"OPAQUE",
		"doubleSided":true,
		"name":"PBR.2"
	},
	{
		"pbrMetallicRoughness":{
			"baseColorTexture":{
				"index":0
			},
			"baseColorFactor":[0.7686274509803921,
			0.43137254901960789,
			0.26666666666666669,
			1.0],
			"metallicFactor":0.3,
			"roughnessFactor":0.3
		},
		"emissiveFactor":[0.0,
		0.0,
		0.0],
		"alphaMode":"OPAQUE",
		"doubleSided":true,
		"name":"PBR.1"
	},
	{
		"pbrMetallicRoughness":{
			"baseColorTexture":{
				"index":1
			},
			"baseColorFactor":[0.7686274509803921,
			0.43137254901960789,
			0.26666666666666669,
			1.0],
			"metallicFactor":0.3,
			"roughnessFactor":0.3
		},
		"emissiveFactor":[0.0,
		0.0,
		0.0],
		"alphaMode":"OPAQUE",
		"doubleSided":true,
		"name":"PBR"
	}]
}