{
	"nodes":[{
		"name":"cloth6",
		"translation":[0.44883430004119875,
		-5.180240154266357,
		-4.123007774353027],
		"rotation":[0.0,
		0.0,
		0.0,
		-1.0],
		"scale":[1.0,
		1.0,
		1.0],
		"children":[1,
		2]
	},
	{
		"name":"cloth6-PBR",
		"mesh":0
	},
	{
		"name":"cloth6-PBR.1",
		"mesh":1
	}],
	"asset":{
		"version":"2.0",
		"generator":"Created using the official Cinema 4D glTF Exporter 1.000x284978"
	},
	"textures":[{
		"sampler":0,
		"source":0
	}],
	"scenes":[{
		"nodes":[0]
	}],
	"samplers":[{
		"magFilter":9729,
		"minFilter":9729,
		"wrapS":10497,
		"wrapT":10497
	}],
	"meshes":[{
		"name":"cloth6-PBR",
		"primitives":[{
			"attributes":{
				"POSITION":1,
				"NORMAL":2,
				"TEXCOORD_0":3
			},
			"indices":0,
			"material":0
		}]
	},
	{
		"name":"cloth6-PBR.1",
		"primitives":[{
			"attributes":{
				"POSITION":5,
				"NORMAL":6,
				"TEXCOORD_0":7
			},
			"indices":4,
			"material":1
		}]
	}],
	"accessors":[{
		"componentType":5123,
		"bufferView":0,
		"type":"SCALAR",
		"count":4608,
		"byteOffset":0,
		"min":[0],
		"max":[917]
	},
	{
		"componentType":5126,
		"bufferView":1,
		"type":"VEC3",
		"count":918,
		"byteOffset":0,
		"min":[-3.4305427074432375,
		-3.7387425899505617,
		1.1376389265060425],
		"max":[2.53287410736084,
		-0.5607436895370483,
		7.1820454597473148]
	},
	{
		"componentType":5126,
		"bufferView":1,
		"type":"VEC3",
		"count":918,
		"byteOffset":12,
		"min":[-0.9987500309944153,
		-0.6654375195503235,
		-0.9956563115119934],
		"max":[0.9987500309944153,
		0.6745625138282776,
		0.9996563196182251]
	},
	{
		"componentType":5126,
		"bufferView":1,
		"type":"VEC2",
		"count":918,
		"byteOffset":24,
		"min":[0.001811121474020183,
		0.001922614173963666],
		"max":[0.998188853263855,
		0.18346217274665833]
	},
	{
		"componentType":5123,
		"bufferView":2,
		"type":"SCALAR",
		"count":6432,
		"byteOffset":0,
		"min":[0],
		"max":[1951]
	},
	{
		"componentType":5126,
		"bufferView":3,
		"type":"VEC3",
		"count":1952,
		"byteOffset":0,
		"min":[-2.664006471633911,
		-3.5843284130096437,
		1.6304537057876588],
		"max":[1.7663379907608033,
		1.5002777576446534,
		6.1542649269104]
	},
	{
		"componentType":5126,
		"bufferView":3,
		"type":"VEC3",
		"count":1952,
		"byteOffset":12,
		"min":[-0.9364063143730164,
		-0.9950000643730164,
		-0.9791563153266907],
		"max":[0.9364063143730164,
		0.9140312671661377,
		0.978812575340271]
	},
	{
		"componentType":5126,
		"bufferView":3,
		"type":"VEC2",
		"count":1952,
		"byteOffset":24,
		"min":[0.0,
		0.0],
		"max":[1.0,
		1.0]
	}],
	"buffers":[{
		"uri":"data:application/octet-stream;base64,",
		"byteLength":38592
	},
	{
		"uri":"data:application/octet-stream;base64,",
		"byteLength":75328
	}],
	"bufferViews":[{
		"buffer":0,
		"byteOffset":0,
		"byteLength":9216,
		"target":34963
	},
	{
		"buffer":0,
		"byteOffset":9216,
		"byteLength":29376,
		"byteStride":32,
		"target":34962
	},
	{
		"buffer":1,
		"byteOffset":0,
		"byteLength":12864,
		"target":34963
	},
	{
		"buffer":1,
		"byteOffset":12864,
		"byteLength":62464,
		"byteStride":32,
		"target":34962
	}],
	"images":[{
		"uri":"data:image/jpeg;base64,"
	}],
	"materials":[{
		"pbrMetallicRoughness":{
			"baseColorTexture":{
				"index":0
			},
			"baseColorFactor":[0.7686274509803921,
			0.43137254901960789,
			0.26666666666666669,
			1.0],
			"metallicFactor":0.3,
			"roughnessFactor":0.3
		},
		"emissiveFactor":[0.0,
		0.0,
		0.0],
		"alphaMode":"OPAQUE",
		"doubleSided":true,
		"name":"PBR"
	},
	{
		"pbrMetallicRoughness":{
			"baseColorFactor":[0.2106,
			0.3434599999999995,
			0.78,
			1.0],
			"metallicFactor":0.3,
			"roughnessFactor":0.3
		},
		"emissiveFactor":[0.0,
		0.0,
		0.0],
		"alphaMode":"OPAQUE",
		"doubleSided":true,
		"name":"PBR.1"
	}]
}