{
	"bufferViews":[{
		"buffer":0,
		"byteOffset":0,
		"byteLength":4608,
		"target":34963
	},
	{
		"buffer":0,
		"byteOffset":4608,
		"byteLength":19200,
		"target":34962,
		"byteStride":32
	},
	{
		"buffer":1,
		"byteOffset":0,
		"byteLength":57696,
		"target":34963
	},
	{
		"buffer":1,
		"byteOffset":57696,
		"byteLength":165312,
		"target":34962,
		"byteStride":32
	},
	{
		"buffer":2,
		"byteOffset":0,
		"byteLength":4896,
		"target":34963
	},
	{
		"buffer":2,
		"byteOffset":4896,
		"byteLength":18336,
		"target":34962,
		"byteStride":32
	},
	{
		"buffer":3,
		"byteOffset":0,
		"byteLength":125568,
		"target":34963
	},
	{
		"buffer":3,
		"byteOffset":125568,
		"byteLength":340096,
		"target":34962,
		"byteStride":32
	},
	{
		"buffer":4,
		"byteOffset":0,
		"byteLength":59904,
		"target":34963
	},
	{
		"buffer":4,
		"byteOffset":59904,
		"byteLength":172160,
		"target":34962,
		"byteStride":32
	},
	{
		"buffer":5,
		"byteOffset":0,
		"byteLength":696,
		"target":34963
	},
	{
		"buffer":5,
		"byteOffset":696,
		"byteLength":6144,
		"target":34962,
		"byteStride":32
	}],
	"asset":{
		"version":"2.0",
		"generator":"Created using the official Cinema 4D glTF Exporter 1.000x284978"
	},
	"scenes":[{
		"nodes":[0]
	}],
	"nodes":[{
		"name":"cloth10",
		"translation":[0.7719197273254395,
		-5.315713882446289,
		1.0675837993621827],
		"rotation":[0.0,
		0.0,
		0.0,
		-1.0],
		"scale":[1.0,
		1.0,
		1.0],
		"children":[1,
		2,
		3,
		4,
		5,
		6]
	},
	{
		"name":"cloth10-PBR.4",
		"mesh":0
	},
	{
		"name":"cloth10-PBR.1",
		"mesh":1
	},
	{
		"name":"cloth10-PBR.2",
		"mesh":2
	},
	{
		"name":"cloth10-PBR",
		"mesh":3
	},
	{
		"name":"cloth10-PBR.3",
		"mesh":4
	},
	{
		"name":"cloth10-PBR.4",
		"mesh":5
	}],
	"meshes":[{
		"primitives":[{
			"attributes":{
				"POSITION":1,
				"NORMAL":2,
				"TEXCOORD_0":3
			},
			"indices":0,
			"material":0
		}],
		"name":"cloth10-PBR.4"
	},
	{
		"primitives":[{
			"attributes":{
				"POSITION":5,
				"NORMAL":6,
				"TEXCOORD_0":7
			},
			"indices":4,
			"material":1
		}],
		"name":"cloth10-PBR.1"
	},
	{
		"primitives":[{
			"attributes":{
				"POSITION":9,
				"NORMAL":10,
				"TEXCOORD_0":11
			},
			"indices":8,
			"material":2
		}],
		"name":"cloth10-PBR.2"
	},
	{
		"primitives":[{
			"attributes":{
				"POSITION":13,
				"NORMAL":14,
				"TEXCOORD_0":15
			},
			"indices":12,
			"material":3
		}],
		"name":"cloth10-PBR"
	},
	{
		"primitives":[{
			"attributes":{
				"POSITION":17,
				"NORMAL":18,
				"TEXCOORD_0":19
			},
			"indices":16,
			"material":4
		}],
		"name":"cloth10-PBR.3"
	},
	{
		"primitives":[{
			"attributes":{
				"POSITION":21,
				"NORMAL":22,
				"TEXCOORD_0":23
			},
			"indices":20,
			"material":0
		}],
		"name":"cloth10-PBR.4"
	}],
	"accessors":[{
		"bufferView":0,
		"type":"SCALAR",
		"min":[0],
		"count":2304,
		"componentType":5123,
		"byteOffset":0,
		"max":[599]
	},
	{
		"bufferView":1,
		"type":"VEC3",
		"min":[-2.576655149459839,
		0.5610035061836243,
		-2.6758906841278078],
		"count":600,
		"componentType":5126,
		"byteOffset":0,
		"max":[1.032816767692566,
		1.7804197072982789,
		1.0934733152389527]
	},
	{
		"bufferView":1,
		"type":"VEC3",
		"min":[-0.4765625298023224,
		0.5170312523841858,
		-0.7222188115119934],
		"count":600,
		"componentType":5126,
		"byteOffset":12,
		"max":[0.4765625298023224,
		0.9293438196182251,
		0.8548125624656677]
	},
	{
		"bufferView":1,
		"type":"VEC2",
		"min":[0.1480410099029541,
		0.00878862664103508],
		"count":600,
		"componentType":5126,
		"byteOffset":24,
		"max":[0.5475454330444336,
		0.5889171361923218]
	},
	{
		"bufferView":2,
		"type":"SCALAR",
		"min":[0],
		"count":28848,
		"componentType":5123,
		"byteOffset":0,
		"max":[5165]
	},
	{
		"bufferView":3,
		"type":"VEC3",
		"min":[-3.8146064281463625,
		-4.331596374511719,
		-4.107787609100342],
		"count":5166,
		"componentType":5126,
		"byteOffset":0,
		"max":[2.2707102298736574,
		1.7800979614257813,
		2.0217950344085695]
	},
	{
		"bufferView":3,
		"type":"VEC3",
		"min":[-0.9999688267707825,
		-0.09537500143051148,
		-0.9999688267707825],
		"count":5166,
		"componentType":5126,
		"byteOffset":12,
		"max":[0.9999688267707825,
		0.9283437728881836,
		0.9996563196182251]
	},
	{
		"bufferView":3,
		"type":"VEC2",
		"min":[0.0075117009691894058,
		0.006785562261939049],
		"count":5166,
		"componentType":5126,
		"byteOffset":24,
		"max":[0.7626252770423889,
		0.9892966747283936]
	},
	{
		"bufferView":4,
		"type":"SCALAR",
		"min":[0],
		"count":2448,
		"componentType":5123,
		"byteOffset":0,
		"max":[572]
	},
	{
		"bufferView":5,
		"type":"VEC3",
		"min":[0.11504437774419785,
		-1.764482855796814,
		0.6192207336425781],
		"count":573,
		"componentType":5126,
		"byteOffset":0,
		"max":[1.3271626234054566,
		-0.3268068730831146,
		1.5529521703720093]
	},
	{
		"bufferView":5,
		"type":"VEC3",
		"min":[-0.9196875691413879,
		-0.9875000715255737,
		-0.9812188148498535],
		"count":573,
		"componentType":5126,
		"byteOffset":12,
		"max":[0.9856563210487366,
		0.9998437762260437,
		0.9825000762939453]
	},
	{
		"bufferView":5,
		"type":"VEC2",
		"min":[0.0,
		0.0],
		"count":573,
		"componentType":5126,
		"byteOffset":24,
		"max":[1.0,
		1.0]
	},
	{
		"bufferView":6,
		"type":"SCALAR",
		"min":[0],
		"count":62784,
		"componentType":5123,
		"byteOffset":0,
		"max":[10627]
	},
	{
		"bufferView":7,
		"type":"VEC3",
		"min":[-5.9694085121154789,
		-4.268258571624756,
		-4.057324409484863],
		"count":10628,
		"componentType":5126,
		"byteOffset":0,
		"max":[4.425569534301758,
		1.6876338720321656,
		1.9834119081497193]
	},
	{
		"bufferView":7,
		"type":"VEC3",
		"min":[-0.9998750686645508,
		-0.9619687795639038,
		-0.9997813105583191],
		"count":10628,
		"componentType":5126,
		"byteOffset":12,
		"max":[0.9998750686645508,
		0.9350938200950623,
		0.9999688267707825]
	},
	{
		"bufferView":7,
		"type":"VEC2",
		"min":[0.001736027654260397,
		0.07559196650981903],
		"count":10628,
		"componentType":5126,
		"byteOffset":24,
		"max":[0.998263955116272,
		0.9974145889282227]
	},
	{
		"bufferView":8,
		"type":"SCALAR",
		"min":[0],
		"count":29952,
		"componentType":5123,
		"byteOffset":0,
		"max":[5379]
	},
	{
		"bufferView":9,
		"type":"VEC3",
		"min":[-2.999509811401367,
		0.4564298391342163,
		-3.2381138801574709],
		"count":5380,
		"componentType":5126,
		"byteOffset":0,
		"max":[1.4556701183319092,
		2.1729025840759279,
		1.1328587532043458]
	},
	{
		"bufferView":9,
		"type":"VEC3",
		"min":[-1.0,
		-0.9998437762260437,
		-0.9998750686645508],
		"count":5380,
		"componentType":5126,
		"byteOffset":12,
		"max":[1.0,
		0.9977188110351563,
		0.9998750686645508]
	},
	{
		"bufferView":9,
		"type":"VEC2",
		"min":[0.0,
		0.0],
		"count":5380,
		"componentType":5126,
		"byteOffset":24,
		"max":[1.0,
		1.0]
	},
	{
		"bufferView":10,
		"type":"SCALAR",
		"min":[0],
		"count":348,
		"componentType":5123,
		"byteOffset":0,
		"max":[191]
	},
	{
		"bufferView":11,
		"type":"VEC3",
		"min":[0.3331831395626068,
		-1.0852752923965455,
		0.8063691854476929],
		"count":192,
		"componentType":5126,
		"byteOffset":0,
		"max":[1.2305489778518677,
		-0.679690420627594,
		1.4598217010498047]
	},
	{
		"bufferView":11,
		"type":"VEC3",
		"min":[-0.8680312633514404,
		-0.9790313243865967,
		-0.877375066280365],
		"count":192,
		"componentType":5126,
		"byteOffset":12,
		"max":[0.8680312633514404,
		0.9790313243865967,
		0.877375066280365]
	},
	{
		"bufferView":11,
		"type":"VEC2",
		"min":[0.0,
		0.0],
		"count":192,
		"componentType":5126,
		"byteOffset":24,
		"max":[1.0,
		1.0]
	}],
	"buffers":[{
		"uri":"data:application/octet-stream;base64,",
		"byteLength":23808
	},
	{
		"uri":"data:application/octet-stream;base64,",
		"byteLength":223008
	},
	{
		"uri":"data:application/octet-stream;base64,",
		"byteLength":23232
	},
	{
		"uri":"data:application/octet-stream;base64,",
		"byteLength":465664
	},
	{
		"uri":"data:application/octet-stream;base64,",
		"byteLength":232064
	},
	{
		"uri":"data:application/octet-stream;base64,",
		"byteLength":6840
	}],
	"materials":[{
		"pbrMetallicRoughness":{
			"baseColorFactor":[0.7176470588235294,
			0.6509803921568628,
			0.5058823529411765,
			1.0],
			"metallicFactor":0.3,
			"roughnessFactor":0.3
		},
		"emissiveFactor":[0.0,
		0.0,
		0.0],
		"alphaMode":"OPAQUE",
		"name":"PBR.4",
		"doubleSided":true
	},
	{
		"pbrMetallicRoughness":{
			"baseColorFactor":[0.35294117647058828,
			0.30980392156862748,
			0.2784313725490196,
			1.0],
			"metallicFactor":0.3,
			"roughnessFactor":0.3
		},
		"emissiveFactor":[0.0,
		0.0,
		0.0],
		"alphaMode":"OPAQUE",
		"name":"PBR.1",
		"doubleSided":true
	},
	{
		"pbrMetallicRoughness":{
			"baseColorFactor":[0.35294117647058828,
			0.27325077399380817,
			0.21529411764705884,
			1.0],
			"metallicFactor":0.3,
			"roughnessFactor":0.3
		},
		"emissiveFactor":[0.0,
		0.0,
		0.0],
		"alphaMode":"OPAQUE",
		"name":"PBR.2",
		"doubleSided":true
	},
	{
		"pbrMetallicRoughness":{
			"baseColorFactor":[0.7298131487889272,
			0.5044705882352941,
			0.788235294117647,
			1.0],
			"metallicFactor":0.3,
			"roughnessFactor":0.3
		},
		"emissiveFactor":[0.0,
		0.0,
		0.0],
		"alphaMode":"OPAQUE",
		"name":"PBR",
		"doubleSided":true
	},
	{
		"pbrMetallicRoughness":{
			"baseColorFactor":[0.9500000000000001,
			0.9280000000000003,
			0.912,
			1.0],
			"metallicFactor":0.3,
			"roughnessFactor":0.3
		},
		"emissiveFactor":[0.0,
		0.0,
		0.0],
		"alphaMode":"OPAQUE",
		"name":"PBR.3",
		"doubleSided":true
	}]
}