{
  "asset": {
    "version": "2.0",
    "generator": "THREE.GLTFExporter"
  },
  "scenes": [
    {
      "name": "Scene",
      "nodes": [
        3
      ]
    }
  ],
  "scene": 0,
  "nodes": [
    {
      "name": "身体-PBR7",
      "extras": {
        "name": "身体-PBR.7"
      },
      "mesh": 0
    },
    {
      "matrix": [
        1,
        0,
        0,
        0,
        0,
        1,
        0,
        0,
        0,
        0,
        1,
        0,
        1.0458446741104126,
        0.1266276240348816,
        1.2923322916030884,
        1
      ],
      "name": "身体",
      "extras": {
        "name": "身体"
      },
      "children": [
        0
      ]
    },
    {
      "name": "pigbody6gltf",
      "extras": {
        "name": "pigbody6.gltf"
      },
      "children": [
        1
      ]
    },
    {
      "name": "wingsshirtnecklace.gltf",
      "children": [
        2
      ]
    }
  ],
  "bufferViews": [
    {
      "buffer": 0,
      "byteOffset": 0,
      "byteLength": 126672,
      "target": 34962,
      "byteStride": 12
    },
    {
      "buffer": 0,
      "byteOffset": 126672,
      "byteLength": 126672,
      "target": 34962,
      "byteStride": 12
    },
    {
      "buffer": 0,
      "byteOffset": 253344,
      "byteLength": 84448,
      "target": 34962,
      "byteStride": 8
    },
    {
      "buffer": 0,
      "byteOffset": 337792,
      "byteLength": 122880,
      "target": 34963
    }
  ],
  "buffers": [
    {
      "byteLength": 460672,
      "uri": "data:application/octet-stream;base64,"
    }
  ],
  "accessors": [
    {
      "bufferView": 0,
      "componentType": 5126,
      "count": 10556,
      "max": [
        1.992488145828247,
        -3.6800668239593506,
        1.7327646017074585
      ],
      "min": [
        -4.084177017211914,
        -9.735455513000488,
        -4.3275909423828125
      ],
      "type": "VEC3"
    },
    {
      "bufferView": 1,
      "componentType": 5126,
      "count": 10556,
      "max": [
        0.9998125433921814,
        0.9999688267707825,
        0.9998750686645508
      ],
      "min": [
        -0.9998125433921814,
        -0.995218813419342,
        -0.999750018119812
      ],
      "type": "VEC3"
    },
    {
      "bufferView": 2,
      "componentType": 5126,
      "count": 10556,
      "max": [
        0.9672720432281494,
        0.4456287622451782
      ],
      "min": [
        0.49903953075408936,
        0.03628525137901306
      ],
      "type": "VEC2"
    },
    {
      "bufferView": 3,
      "componentType": 5123,
      "count": 61440,
      "max": [
        10555
      ],
      "min": [
        0
      ],
      "type": "SCALAR"
    }
  ],
  "materials": [
    {
      "pbrMetallicRoughness": {
        "baseColorFactor": [
          0.22,
          0.22,
          0.22,
          1
        ],
        "metallicFactor": 0.54,
        "roughnessFactor": 0.3
      },
      "doubleSided": true,
      "name": "PBR.7"
    }
  ],
  "meshes": [
    {
      "primitives": [
        {
          "mode": 4,
          "attributes": {
            "POSITION": 0,
            "NORMAL": 1,
            "TEXCOORD_0": 2
          },
          "indices": 3,
          "material": 0
        }
      ]
    }
  ]
}