{
	"nodes":[{
		"name":"cloth5",
		"translation":[1.69543346029144e-9,
		-6.287469387054443,
		0.03386478126049042],
		"mesh":0,
		"rotation":[0.0,
		0.0,
		0.0,
		-1.0],
		"scale":[1.0,
		1.0,
		1.0]
	}],
	"asset":{
		"version":"2.0",
		"generator":"Created using the official Cinema 4D glTF Exporter 1.000x284978"
	},
	"scenes":[{
		"nodes":[0]
	}],
	"meshes":[{
		"name":"cloth5",
		"primitives":[{
			"attributes":{
				"POSITION":1,
				"NORMAL":2,
				"TEXCOORD_0":3
			},
			"indices":0,
			"material":0
		}]
	}],
	"accessors":[{
		"componentType":5123,
		"bufferView":0,
		"type":"SCALAR",
		"count":26112,
		"byteOffset":0,
		"min":[0],
		"max":[4739]
	},
	{
		"componentType":5126,
		"bufferView":1,
		"type":"VEC3",
		"count":4740,
		"byteOffset":0,
		"min":[-5.209392070770264,
		-3.314743757247925,
		-3.0400009155273439],
		"max":[5.209392070770264,
		1.949468731880188,
		3.029719352722168]
	},
	{
		"componentType":5126,
		"bufferView":1,
		"type":"VEC3",
		"count":4740,
		"byteOffset":12,
		"min":[-0.9999062418937683,
		-0.9843891859054565,
		-0.9999688267707825],
		"max":[0.9999061822891235,
		0.9963161945343018,
		0.9998645186424255]
	},
	{
		"componentType":5126,
		"bufferView":1,
		"type":"VEC2",
		"count":4740,
		"byteOffset":24,
		"min":[0.05170418322086334,
		0.0356069877743721],
		"max":[0.9573061466217041,
		0.7018394470214844]
	}],
	"buffers":[{
		"uri":"data:application/octet-stream;base64,",
		"byteLength":203904
	}],
	"bufferViews":[{
		"buffer":0,
		"byteOffset":0,
		"byteLength":52224,
		"target":34963
	},
	{
		"buffer":0,
		"byteOffset":52224,
		"byteLength":151680,
		"byteStride":32,
		"target":34962
	}],
	"materials":[{
		"pbrMetallicRoughness":{
			"baseColorFactor":[0.8627450980392157,
			0.2823529411764706,
			0.25882352941176475,
			1.0],
			"metallicFactor":0.3,
			"roughnessFactor":0.3
		},
		"emissiveFactor":[0.0,
		0.0,
		0.0],
		"alphaMode":"OPAQUE",
		"doubleSided":true,
		"name":"PBR"
	}]
}