{
	"nodes":[{
		"name":"细分曲面",
		"translation":[0.0008752106805332005,
		-7.566436290740967,
		0.33042359352111819],
		"rotation":[0.0,
		0.0,
		0.0,
		-1.0],
		"scale":[1.0,
		1.0,
		1.0],
		"children":[1,
		2]
	},
	{
		"name":"细分曲面-PBR.1",
		"mesh":0
	},
	{
		"name":"细分曲面-PBR",
		"mesh":1
	}],
	"asset":{
		"version":"2.0",
		"generator":"Created using the official Cinema 4D glTF Exporter 1.000x284978"
	},
	"scenes":[{
		"nodes":[0]
	}],
	"meshes":[{
		"name":"细分曲面-PBR.1",
		"primitives":[{
			"attributes":{
				"POSITION":1,
				"NORMAL":2,
				"TEXCOORD_0":3
			},
			"indices":0,
			"material":0
		}]
	},
	{
		"name":"细分曲面-PBR",
		"primitives":[{
			"attributes":{
				"POSITION":5,
				"NORMAL":6,
				"TEXCOORD_0":7
			},
			"indices":4,
			"material":1
		}]
	}],
	"accessors":[{
		"componentType":5123,
		"bufferView":0,
		"type":"SCALAR",
		"count":32904,
		"byteOffset":0,
		"min":[0],
		"max":[7008]
	},
	{
		"componentType":5126,
		"bufferView":1,
		"type":"VEC3",
		"count":7009,
		"byteOffset":0,
		"min":[-2.4531240463256838,
		-1.833443284034729,
		0.978492259979248],
		"max":[2.464514970779419,
		0.08171152323484421,
		2.7268166542053224]
	},
	{
		"componentType":5126,
		"bufferView":1,
		"type":"VEC3",
		"count":7009,
		"byteOffset":12,
		"min":[-0.9997813105583191,
		-0.9998750686645508,
		-0.9996563196182251],
		"max":[0.999125063419342,
		0.999125063419342,
		0.9998750686645508]
	},
	{
		"componentType":5126,
		"bufferView":1,
		"type":"VEC2",
		"count":7009,
		"byteOffset":24,
		"min":[0.0,
		0.0],
		"max":[0.0,
		0.0]
	},
	{
		"componentType":5123,
		"bufferView":2,
		"type":"SCALAR",
		"count":96000,
		"byteOffset":0,
		"min":[0],
		"max":[21660]
	},
	{
		"componentType":5126,
		"bufferView":3,
		"type":"VEC3",
		"count":21661,
		"byteOffset":0,
		"min":[-4.910602569580078,
		-2.035447835922241,
		-3.3145503997802736],
		"max":[4.9088521003723148,
		3.83512806892395,
		2.7019691467285158]
	},
	{
		"componentType":5126,
		"bufferView":3,
		"type":"VEC3",
		"count":21661,
		"byteOffset":12,
		"min":[-0.9999688267707825,
		-0.9975625276565552,
		-0.9999688267707825],
		"max":[0.9999688267707825,
		0.999625027179718,
		0.9998750686645508]
	},
	{
		"componentType":5126,
		"bufferView":3,
		"type":"VEC2",
		"count":21661,
		"byteOffset":24,
		"min":[0.0,
		0.0],
		"max":[1.0,
		1.0]
	}],
	"buffers":[{
		"uri":"data:application/octet-stream;base64,",
		"byteLength":290096
	},
	{
		"uri":"data:application/octet-stream;base64,",
		"byteLength":885152
	}],
	"bufferViews":[{
		"buffer":0,
		"byteOffset":0,
		"byteLength":65808,
		"target":34963
	},
	{
		"buffer":0,
		"byteOffset":65808,
		"byteLength":224288,
		"byteStride":32,
		"target":34962
	},
	{
		"buffer":1,
		"byteOffset":0,
		"byteLength":192000,
		"target":34963
	},
	{
		"buffer":1,
		"byteOffset":192000,
		"byteLength":693152,
		"byteStride":32,
		"target":34962
	}],
	"materials":[{
		"pbrMetallicRoughness":{
			"baseColorFactor":[0.3686274509803922,
			0.23921568627450982,
			0.27058823529411765,
			1.0],
			"metallicFactor":0.3,
			"roughnessFactor":0.3
		},
		"emissiveFactor":[0.0,
		0.0,
		0.0],
		"alphaMode":"OPAQUE",
		"doubleSided":true,
		"name":"PBR.1"
	},
	{
		"pbrMetallicRoughness":{
			"baseColorFactor":[0.17672727272727274,
			0.144,
			0.18,
			1.0],
			"metallicFactor":0.3,
			"roughnessFactor":0.3
		},
		"emissiveFactor":[0.0,
		0.0,
		0.0],
		"alphaMode":"OPAQUE",
		"doubleSided":true,
		"name":"PBR"
	}]
}