{
	"nodes":[{
		"name":"cloth1",
		"translation":[8.4771673014572e-10,
		-3.306525707244873,
		0.0003780252009164542],
		"rotation":[0.0,
		0.0,
		0.0,
		-1.0],
		"scale":[1.0,
		1.0,
		1.0],
		"children":[1]
	},
	{
		"name":"cloth1-PBR",
		"mesh":0
	}],
	"asset":{
		"version":"2.0",
		"generator":"Created using the official Cinema 4D glTF Exporter 1.000x284978"
	},
	"textures":[{
		"sampler":0,
		"source":0
	}],
	"scenes":[{
		"nodes":[0]
	}],
	"samplers":[{
		"magFilter":9729,
		"minFilter":9729,
		"wrapS":10497,
		"wrapT":10497
	}],
	"meshes":[{
		"name":"cloth1-PBR",
		"primitives":[{
			"attributes":{
				"POSITION":1,
				"NORMAL":2,
				"TEXCOORD_0":3
			},
			"indices":0,
			"material":0
		}]
	}],
	"accessors":[{
		"componentType":5123,
		"bufferView":0,
		"type":"SCALAR",
		"count":15360,
		"byteOffset":0,
		"min":[0],
		"max":[2811]
	},
	{
		"componentType":5126,
		"bufferView":1,
		"type":"VEC3",
		"count":2812,
		"byteOffset":0,
		"min":[-2.966994285583496,
		-6.326416015625,
		-2.9646074771881105],
		"max":[2.96696138381958,
		-0.3131481111049652,
		3.0136754512786867]
	},
	{
		"componentType":5126,
		"bufferView":1,
		"type":"VEC3",
		"count":2812,
		"byteOffset":12,
		"min":[-0.9998437762260437,
		-0.9997813105583191,
		-0.9998437762260437],
		"max":[0.9998437762260437,
		0.9998750686645508,
		0.9998750686645508]
	},
	{
		"componentType":5126,
		"bufferView":1,
		"type":"VEC2",
		"count":2812,
		"byteOffset":24,
		"min":[0.0059735896065831188,
		0.0059735896065831188],
		"max":[0.7650691270828247,
		0.9939491748809815]
	}],
	"buffers":[{
		"uri":"data:application/octet-stream;base64,",
		"byteLength":120704
	}],
	"bufferViews":[{
		"buffer":0,
		"byteOffset":0,
		"byteLength":30720,
		"target":34963
	},
	{
		"buffer":0,
		"byteOffset":30720,
		"byteLength":89984,
		"byteStride":32,
		"target":34962
	}],
	"images":[{
		"uri":"data:image/jpeg;base64,"
	}],
	"materials":[{
		"pbrMetallicRoughness":{
			"baseColorTexture":{
				"index":0
			},
			"baseColorFactor":[0.7686274509803921,
			0.43137254901960789,
			0.26666666666666669,
			1.0],
			"metallicFactor":0.3,
			"roughnessFactor":0.3
		},
		"emissiveFactor":[0.0,
		0.0,
		0.0],
		"alphaMode":"OPAQUE",
		"doubleSided":true,
		"name":"PBR"
	}]
}