{
  "asset": {
    "version": "2.0",
    "generator": "THREE.GLTFExporter"
  },
  "scenes": [
    {
      "name": "Scene",
      "nodes": [
        3
      ]
    }
  ],
  "scene": 0,
  "nodes": [
    {
      "name": "身体1-衣服",
      "extras": {
        "name": "身体.1-衣服"
      },
      "mesh": 0
    },
    {
      "matrix": [
        1,
        0,
        0,
        0,
        0,
        1,
        0,
        0,
        0,
        0,
        1,
        0,
        -0.25482413172721863,
        -1.7046884298324585,
        0.3169207274913788,
        1
      ],
      "name": "身体1",
      "extras": {
        "name": "身体.1"
      },
      "children": [
        0
      ]
    },
    {
      "name": "pigbody3gltf",
      "extras": {
        "name": "pigbody3.gltf"
      },
      "children": [
        1
      ]
    },
    {
      "name": "shirtcollar.gltf",
      "children": [
        2
      ]
    }
  ],
  "bufferViews": [
    {
      "buffer": 0,
      "byteOffset": 0,
      "byteLength": 130512,
      "target": 34962,
      "byteStride": 12
    },
    {
      "buffer": 0,
      "byteOffset": 130512,
      "byteLength": 130512,
      "target": 34962,
      "byteStride": 12
    },
    {
      "buffer": 0,
      "byteOffset": 261024,
      "byteLength": 87008,
      "target": 34962,
      "byteStride": 8
    },
    {
      "buffer": 0,
      "byteOffset": 348032,
      "byteLength": 122880,
      "target": 34963
    }
  ],
  "buffers": [
    {
      "byteLength": 470912,
      "uri": "data:application/octet-stream;base64,"
    }
  ],
  "accessors": [
    {
      "bufferView": 0,
      "componentType": 5126,
      "count": 10876,
      "max": [
        3.214062452316284,
        -1.9199994802474976,
        2.6884684562683105
      ],
      "min": [
        -2.704470157623291,
        -7.910705089569092,
        -3.2731170654296875
      ],
      "type": "VEC3"
    },
    {
      "bufferView": 1,
      "componentType": 5126,
      "count": 10876,
      "max": [
        0.9998125433921814,
        0.9954375624656677,
        0.9996563196182251
      ],
      "min": [
        -0.9998125433921814,
        -0.9999688267707825,
        -0.9998750686645508
      ],
      "type": "VEC3"
    },
    {
      "bufferView": 2,
      "componentType": 5126,
      "count": 10876,
      "max": [
        0.9800727367401123,
        0.4056287705898285
      ],
      "min": [
        0.5071106553077698,
        -0.003714747726917267
      ],
      "type": "VEC2"
    },
    {
      "bufferView": 3,
      "componentType": 5123,
      "count": 61440,
      "max": [
        10875
      ],
      "min": [
        0
      ],
      "type": "SCALAR"
    }
  ],
  "materials": [
    {
      "pbrMetallicRoughness": {
        "baseColorFactor": [
          1,
          0.55,
          0.55,
          1
        ],
        "metallicFactor": 1,
        "roughnessFactor": 0.3,
        "baseColorTexture": {
          "index": 0
        }
      },
      "name": "衣服"
    }
  ],
  "textures": [
    {
      "sampler": 0,
      "source": 0
    }
  ],
  "samplers": [
    {
      "magFilter": 9729,
      "minFilter": 9729,
      "wrapS": 10497,
      "wrapT": 10497
    }
  ],
  "images": [
    {
      "mimeType": "image/png",
      "uri": "data:image/png;base64,"
    }
  ],
  "meshes": [
    {
      "primitives": [
        {
          "mode": 4,
          "attributes": {
            "POSITION": 0,
            "NORMAL": 1,
            "TEXCOORD_0": 2
          },
          "indices": 3,
          "material": 0
        }
      ]
    }
  ]
}