{
	"nodes":[{
		"name":"cloth8",
		"translation":[0.44883430004119875,
		-3.5864903926849367,
		-4.125298976898193],
		"mesh":0,
		"rotation":[0.0,
		0.0,
		0.0,
		-1.0],
		"scale":[1.0,
		1.0,
		1.0]
	}],
	"asset":{
		"version":"2.0",
		"generator":"Created using the official Cinema 4D glTF Exporter 1.000x284978"
	},
	"scenes":[{
		"nodes":[0]
	}],
	"meshes":[{
		"name":"cloth8",
		"primitives":[{
			"attributes":{
				"POSITION":1,
				"NORMAL":2,
				"TEXCOORD_0":3
			},
			"indices":0,
			"material":0
		}]
	}],
	"accessors":[{
		"componentType":5123,
		"bufferView":0,
		"type":"SCALAR",
		"count":53376,
		"byteOffset":0,
		"min":[0],
		"max":[10761]
	},
	{
		"componentType":5126,
		"bufferView":1,
		"type":"VEC3",
		"count":10762,
		"byteOffset":0,
		"min":[-3.437481641769409,
		-4.90498685836792,
		1.1424249410629273],
		"max":[2.539813280105591,
		-0.15601937472820283,
		7.181732654571533]
	},
	{
		"componentType":5126,
		"bufferView":1,
		"type":"VEC3",
		"count":10762,
		"byteOffset":12,
		"min":[-0.9994226098060608,
		-0.9999913573265076,
		-0.999934196472168],
		"max":[0.9994224905967712,
		0.9997237324714661,
		0.9999969601631165]
	},
	{
		"componentType":5126,
		"bufferView":1,
		"type":"VEC2",
		"count":10762,
		"byteOffset":24,
		"min":[0.0,
		0.000027864050935022534],
		"max":[1.0,
		0.9999513626098633]
	}],
	"buffers":[{
		"uri":"data:application/octet-stream;base64,",
		"byteLength":451136
	}],
	"bufferViews":[{
		"buffer":0,
		"byteOffset":0,
		"byteLength":106752,
		"target":34963
	},
	{
		"buffer":0,
		"byteOffset":106752,
		"byteLength":344384,
		"byteStride":32,
		"target":34962
	}],
	"materials":[{
		"pbrMetallicRoughness":{
			"baseColorFactor":[1.0,
			0.16000000000000004,
			0.7389189189189191,
			1.0],
			"metallicFactor":0.3,
			"roughnessFactor":0.3
		},
		"emissiveFactor":[0.0,
		0.0,
		0.0],
		"alphaMode":"OPAQUE",
		"doubleSided":true,
		"name":"PBR"
	}]
}