{
	"nodes":[{
		"name":"clouth11",
		"translation":[1.5056347846984864,
		-4.801069736480713,
		1.0839037895202637],
		"rotation":[0.0,
		0.0,
		0.0,
		-1.0],
		"scale":[1.0,
		1.0,
		1.0],
		"children":[1,
		2,
		3,
		4]
	},
	{
		"name":"clouth11-PBR.3",
		"mesh":0
	},
	{
		"name":"clouth11-PBR.1",
		"mesh":1
	},
	{
		"name":"clouth11-PBR",
		"mesh":2
	},
	{
		"name":"clouth11-PBR.2",
		"mesh":3
	}],
	"asset":{
		"version":"2.0",
		"generator":"Created using the official Cinema 4D glTF Exporter 1.000x284978"
	},
	"scenes":[{
		"nodes":[0]
	}],
	"meshes":[{
		"name":"clouth11-PBR.3",
		"primitives":[{
			"attributes":{
				"POSITION":1,
				"NORMAL":2,
				"TEXCOORD_0":3
			},
			"indices":0,
			"material":0
		}]
	},
	{
		"name":"clouth11-PBR.1",
		"primitives":[{
			"attributes":{
				"POSITION":5,
				"NORMAL":6,
				"TEXCOORD_0":7
			},
			"indices":4,
			"material":1
		}]
	},
	{
		"name":"clouth11-PBR",
		"primitives":[{
			"attributes":{
				"POSITION":9,
				"NORMAL":10,
				"TEXCOORD_0":11
			},
			"indices":8,
			"material":2
		}]
	},
	{
		"name":"clouth11-PBR.2",
		"primitives":[{
			"attributes":{
				"POSITION":13,
				"NORMAL":14,
				"TEXCOORD_0":15
			},
			"indices":12,
			"material":3
		}]
	}],
	"accessors":[{
		"componentType":5123,
		"bufferView":0,
		"type":"SCALAR",
		"count":9408,
		"byteOffset":0,
		"min":[0],
		"max":[1685]
	},
	{
		"componentType":5126,
		"bufferView":1,
		"type":"VEC3",
		"count":1686,
		"byteOffset":0,
		"min":[-1.9781655073165894,
		-3.400556802749634,
		0.3295540511608124],
		"max":[-1.0279111862182618,
		0.9324685335159302,
		1.9656407833099366]
	},
	{
		"componentType":5126,
		"bufferView":1,
		"type":"VEC3",
		"count":1686,
		"byteOffset":12,
		"min":[-0.9965625405311585,
		-0.9885938167572022,
		-0.9998750686645508],
		"max":[0.9969688057899475,
		0.9998750686645508,
		0.999625027179718]
	},
	{
		"componentType":5126,
		"bufferView":1,
		"type":"VEC2",
		"count":1686,
		"byteOffset":24,
		"min":[0.5060957670211792,
		0.24776297807693482],
		"max":[0.5306394100189209,
		0.5130397081375122]
	},
	{
		"componentType":5123,
		"bufferView":2,
		"type":"SCALAR",
		"count":30720,
		"byteOffset":0,
		"min":[0],
		"max":[5330]
	},
	{
		"componentType":5126,
		"bufferView":3,
		"type":"VEC3",
		"count":5331,
		"byteOffset":0,
		"min":[-3.775491237640381,
		-0.8118834495544434,
		-3.191498279571533],
		"max":[0.7642218470573425,
		1.5562530755996705,
		1.455364465713501]
	},
	{
		"componentType":5126,
		"bufferView":3,
		"type":"VEC3",
		"count":5331,
		"byteOffset":12,
		"min":[-0.9954062700271606,
		-0.9984375238418579,
		-0.9999688267707825],
		"max":[0.9954062700271606,
		0.998468816280365,
		0.9996563196182251]
	},
	{
		"componentType":5126,
		"bufferView":3,
		"type":"VEC2",
		"count":5331,
		"byteOffset":24,
		"min":[0.2779772877693176,
		0.01171714998781681],
		"max":[0.7220226526260376,
		0.37748587131500246]
	},
	{
		"componentType":5123,
		"bufferView":4,
		"type":"SCALAR",
		"count":126720,
		"byteOffset":0,
		"min":[0],
		"max":[21441]
	},
	{
		"componentType":5126,
		"bufferView":5,
		"type":"VEC3",
		"count":21442,
		"byteOffset":0,
		"min":[-6.703123569488525,
		-4.782902717590332,
		-4.073644161224365],
		"max":[3.691854238510132,
		1.2017974853515626,
		1.9670919179916382]
	},
	{
		"componentType":5126,
		"bufferView":5,
		"type":"VEC3",
		"count":21442,
		"byteOffset":12,
		"min":[-0.9998750686645508,
		-0.9619687795639038,
		-0.9999688267707825],
		"max":[0.9998750686645508,
		0.9969375729560852,
		0.9999688267707825]
	},
	{
		"componentType":5126,
		"bufferView":5,
		"type":"VEC2",
		"count":21442,
		"byteOffset":24,
		"min":[0.001736027654260397,
		0.06895925104618073],
		"max":[0.998263955116272,
		0.9974145889282227]
	},
	{
		"componentType":5123,
		"bufferView":6,
		"type":"SCALAR",
		"count":85824,
		"byteOffset":0,
		"min":[0],
		"max":[14789]
	},
	{
		"componentType":5126,
		"bufferView":7,
		"type":"VEC3",
		"count":14790,
		"byteOffset":0,
		"min":[-3.623347282409668,
		-4.841184616088867,
		-3.7325081825256349],
		"max":[0.6120777726173401,
		1.0868264436721802,
		1.5136014223098755]
	},
	{
		"componentType":5126,
		"bufferView":7,
		"type":"VEC3",
		"count":14790,
		"byteOffset":12,
		"min":[-0.9998125433921814,
		-0.9960938096046448,
		-0.986750066280365],
		"max":[0.9998125433921814,
		0.9960938096046448,
		0.9868438243865967]
	},
	{
		"componentType":5126,
		"bufferView":7,
		"type":"VEC2",
		"count":14790,
		"byteOffset":24,
		"min":[0.0,
		0.0],
		"max":[1.0,
		1.0]
	}],
	"buffers":[{
		"uri":"data:application/octet-stream;base64,",
		"byteLength":72768
	},
	{
		"uri":"data:application/octet-stream;base64,",
		"byteLength":232032
	},
	{
		"uri":"data:application/octet-stream;base64,",
		"byteLength":939584
	},
	{
		"uri":"data:application/octet-stream;base64,",
		"byteLength":644928
	}],
	"bufferViews":[{
		"buffer":0,
		"byteOffset":0,
		"byteLength":18816,
		"target":34963
	},
	{
		"buffer":0,
		"byteOffset":18816,
		"byteLength":53952,
		"byteStride":32,
		"target":34962
	},
	{
		"buffer":1,
		"byteOffset":0,
		"byteLength":61440,
		"target":34963
	},
	{
		"buffer":1,
		"byteOffset":61440,
		"byteLength":170592,
		"byteStride":32,
		"target":34962
	},
	{
		"buffer":2,
		"byteOffset":0,
		"byteLength":253440,
		"target":34963
	},
	{
		"buffer":2,
		"byteOffset":253440,
		"byteLength":686144,
		"byteStride":32,
		"target":34962
	},
	{
		"buffer":3,
		"byteOffset":0,
		"byteLength":171648,
		"target":34963
	},
	{
		"buffer":3,
		"byteOffset":171648,
		"byteLength":473280,
		"byteStride":32,
		"target":34962
	}],
	"materials":[{
		"pbrMetallicRoughness":{
			"baseColorFactor":[0.011764705882352966,
			0.34901960784313726,
			0.42745098039215687,
			1.0],
			"metallicFactor":0.3,
			"roughnessFactor":0.3
		},
		"emissiveFactor":[0.0,
		0.0,
		0.0],
		"alphaMode":"OPAQUE",
		"doubleSided":true,
		"name":"PBR.3"
	},
	{
		"pbrMetallicRoughness":{
			"baseColorFactor":[0.8531304878048779,
			0.8439000000000001,
			0.87,
			1.0],
			"metallicFactor":0.3,
			"roughnessFactor":0.3
		},
		"emissiveFactor":[0.0,
		0.0,
		0.0],
		"alphaMode":"OPAQUE",
		"doubleSided":true,
		"name":"PBR.1"
	},
	{
		"pbrMetallicRoughness":{
			"baseColorFactor":[0.38823529411764698,
			0.2745098039215686,
			0.596078431372549,
			1.0],
			"metallicFactor":0.3,
			"roughnessFactor":0.3
		},
		"emissiveFactor":[0.0,
		0.0,
		0.0],
		"alphaMode":"OPAQUE",
		"doubleSided":true,
		"name":"PBR"
	},
	{
		"pbrMetallicRoughness":{
			"baseColorFactor":[0.75,
			0.07499999999999999,
			0.1309171597633136,
			1.0],
			"metallicFactor":0.3,
			"roughnessFactor":0.3
		},
		"emissiveFactor":[0.0,
		0.0,
		0.0],
		"alphaMode":"OPAQUE",
		"doubleSided":true,
		"name":"PBR.2"
	}]
}