{
	"nodes":[{
		"name":"cloth4",
		"translation":[1.5056347846984864,
		-4.204720497131348,
		1.1905791759490967],
		"rotation":[0.0,
		0.0,
		0.0,
		-1.0],
		"scale":[1.0,
		1.0,
		1.0],
		"children":[1,
		2,
		3,
		4]
	},
	{
		"name":"cloth4-PBR.1",
		"mesh":0
	},
	{
		"name":"cloth4-PBR.2",
		"mesh":1
	},
	{
		"name":"cloth4-PBR",
		"mesh":2
	},
	{
		"name":"cloth4-PBR.3",
		"mesh":3
	}],
	"asset":{
		"version":"2.0",
		"generator":"Created using the official Cinema 4D glTF Exporter 1.000x284978"
	},
	"scenes":[{
		"nodes":[0]
	}],
	"meshes":[{
		"name":"cloth4-PBR.1",
		"primitives":[{
			"attributes":{
				"POSITION":1,
				"NORMAL":2,
				"TEXCOORD_0":3
			},
			"indices":0,
			"material":0
		}]
	},
	{
		"name":"cloth4-PBR.2",
		"primitives":[{
			"attributes":{
				"POSITION":5,
				"NORMAL":6,
				"TEXCOORD_0":7
			},
			"indices":4,
			"material":1
		}]
	},
	{
		"name":"cloth4-PBR",
		"primitives":[{
			"attributes":{
				"POSITION":9,
				"NORMAL":10,
				"TEXCOORD_0":11
			},
			"indices":8,
			"material":2
		}]
	},
	{
		"name":"cloth4-PBR.3",
		"primitives":[{
			"attributes":{
				"POSITION":13,
				"NORMAL":14,
				"TEXCOORD_0":15
			},
			"indices":12,
			"material":3
		}]
	}],
	"accessors":[{
		"componentType":5123,
		"bufferView":0,
		"type":"SCALAR",
		"count":6912,
		"byteOffset":0,
		"min":[0],
		"max":[1299]
	},
	{
		"componentType":5126,
		"bufferView":1,
		"type":"VEC3",
		"count":1300,
		"byteOffset":0,
		"min":[-3.653595209121704,
		-0.6332775354385376,
		-3.285057306289673],
		"max":[0.642325758934021,
		1.0324792861938477,
		1.006044864654541]
	},
	{
		"componentType":5126,
		"bufferView":1,
		"type":"VEC3",
		"count":1300,
		"byteOffset":12,
		"min":[-0.9650312662124634,
		-0.999625027179718,
		-0.991281270980835],
		"max":[0.9650312662124634,
		0.9957500696182251,
		0.9885938167572022]
	},
	{
		"componentType":5126,
		"bufferView":1,
		"type":"VEC2",
		"count":1300,
		"byteOffset":24,
		"min":[0.4203835129737854,
		0.07421250641345978],
		"max":[0.6189758777618408,
		0.30968207120895388]
	},
	{
		"componentType":5123,
		"bufferView":2,
		"type":"SCALAR",
		"count":15360,
		"byteOffset":0,
		"min":[0],
		"max":[2715]
	},
	{
		"componentType":5126,
		"bufferView":3,
		"type":"VEC3",
		"count":2716,
		"byteOffset":0,
		"min":[-4.5325188636779789,
		-5.422869682312012,
		-4.214744567871094],
		"max":[1.5212494134902955,
		0.6409047842025757,
		1.8255497217178345]
	},
	{
		"componentType":5126,
		"bufferView":3,
		"type":"VEC3",
		"count":2716,
		"byteOffset":12,
		"min":[-0.9997813105583191,
		-0.9968125224113464,
		-0.9996563196182251],
		"max":[0.9997813105583191,
		0.9992188215255737,
		0.9998750686645508]
	},
	{
		"componentType":5126,
		"bufferView":3,
		"type":"VEC2",
		"count":2716,
		"byteOffset":24,
		"min":[0.5040562152862549,
		0.04085893929004669],
		"max":[0.9585747718811035,
		0.445506751537323]
	},
	{
		"componentType":5123,
		"bufferView":4,
		"type":"SCALAR",
		"count":864,
		"byteOffset":0,
		"min":[0],
		"max":[251]
	},
	{
		"componentType":5126,
		"bufferView":5,
		"type":"VEC3",
		"count":252,
		"byteOffset":0,
		"min":[-1.9614945650100709,
		-3.9588210582733156,
		0.752111554145813],
		"max":[-1.0503292083740235,
		-0.2869373857975006,
		1.9770530462265015]
	},
	{
		"componentType":5126,
		"bufferView":5,
		"type":"VEC3",
		"count":252,
		"byteOffset":12,
		"min":[-0.9693750739097595,
		-0.5738750100135803,
		-0.983500063419342],
		"max":[0.9662500619888306,
		0.5526250004768372,
		0.9929375648498535]
	},
	{
		"componentType":5126,
		"bufferView":5,
		"type":"VEC2",
		"count":252,
		"byteOffset":24,
		"min":[0.5056661367416382,
		0.28403377532958987],
		"max":[0.5316776037216187,
		0.511459231376648]
	},
	{
		"componentType":5123,
		"bufferView":6,
		"type":"SCALAR",
		"count":15312,
		"byteOffset":0,
		"min":[0],
		"max":[2805]
	},
	{
		"componentType":5126,
		"bufferView":7,
		"type":"VEC3",
		"count":2806,
		"byteOffset":0,
		"min":[-3.312260389328003,
		-4.008803844451904,
		-2.9058754444122316],
		"max":[0.2982655167579651,
		0.7561749815940857,
		1.9770530462265015]
	},
	{
		"componentType":5126,
		"bufferView":7,
		"type":"VEC3",
		"count":2806,
		"byteOffset":12,
		"min":[-0.9889375567436218,
		-0.998468816280365,
		-0.9972500205039978],
		"max":[0.9936875700950623,
		0.998468816280365,
		0.9973437786102295]
	},
	{
		"componentType":5126,
		"bufferView":7,
		"type":"VEC2",
		"count":2806,
		"byteOffset":24,
		"min":[0.0,
		0.0],
		"max":[1.0,
		1.0]
	}],
	"buffers":[{
		"uri":"data:application/octet-stream;base64,",
		"byteLength":55424
	},
	{
		"uri":"data:application/octet-stream;base64,",
		"byteLength":117632
	},
	{
		"uri":"data:application/octet-stream;base64,",
		"byteLength":9792
	},
	{
		"uri":"data:application/octet-stream;base64,",
		"byteLength":120416
	}],
	"bufferViews":[{
		"buffer":0,
		"byteOffset":0,
		"byteLength":13824,
		"target":34963
	},
	{
		"buffer":0,
		"byteOffset":13824,
		"byteLength":41600,
		"byteStride":32,
		"target":34962
	},
	{
		"buffer":1,
		"byteOffset":0,
		"byteLength":30720,
		"target":34963
	},
	{
		"buffer":1,
		"byteOffset":30720,
		"byteLength":86912,
		"byteStride":32,
		"target":34962
	},
	{
		"buffer":2,
		"byteOffset":0,
		"byteLength":1728,
		"target":34963
	},
	{
		"buffer":2,
		"byteOffset":1728,
		"byteLength":8064,
		"byteStride":32,
		"target":34962
	},
	{
		"buffer":3,
		"byteOffset":0,
		"byteLength":30624,
		"target":34963
	},
	{
		"buffer":3,
		"byteOffset":30624,
		"byteLength":89792,
		"byteStride":32,
		"target":34962
	}],
	"materials":[{
		"pbrMetallicRoughness":{
			"baseColorFactor":[1.0,
			0.32999999999999998,
			0.6601449275362321,
			1.0],
			"metallicFactor":0.3,
			"roughnessFactor":0.3
		},
		"emissiveFactor":[0.0,
		0.0,
		0.0],
		"alphaMode":"OPAQUE",
		"doubleSided":true,
		"name":"PBR.1"
	},
	{
		"pbrMetallicRoughness":{
			"baseColorFactor":[0.2,
			0.2,
			0.2,
			1.0],
			"metallicFactor":0.3,
			"roughnessFactor":0.3
		},
		"emissiveFactor":[0.0,
		0.0,
		0.0],
		"alphaMode":"OPAQUE",
		"doubleSided":true,
		"name":"PBR.2"
	},
	{
		"pbrMetallicRoughness":{
			"baseColorFactor":[1.0,
			0.9647058823529412,
			0.8431372549019608,
			1.0],
			"metallicFactor":0.3,
			"roughnessFactor":0.3
		},
		"emissiveFactor":[0.0,
		0.0,
		0.0],
		"alphaMode":"OPAQUE",
		"doubleSided":true,
		"name":"PBR"
	},
	{
		"pbrMetallicRoughness":{
			"baseColorFactor":[0.7764705882352941,
			0.21176470588235295,
			0.345098039215686,
			1.0],
			"metallicFactor":0.3,
			"roughnessFactor":0.3
		},
		"emissiveFactor":[0.0,
		0.0,
		0.0],
		"alphaMode":"OPAQUE",
		"doubleSided":true,
		"name":"PBR.3"
	}]
}