{
	"nodes":[{
		"name":"cloth9",
		"translation":[0.7238985300064087,
		-6.990053653717041,
		2.0237233638763429],
		"rotation":[0.0,
		0.0,
		0.0,
		-1.0],
		"scale":[1.0,
		1.0,
		1.0],
		"children":[1,
		2,
		3,
		4]
	},
	{
		"name":"cloth9-PBR.1",
		"mesh":0
	},
	{
		"name":"cloth9-PBR.1",
		"mesh":1
	},
	{
		"name":"cloth9-PBR",
		"mesh":2
	},
	{
		"name":"cloth9-PBR.1",
		"mesh":3
	}],
	"asset":{
		"version":"2.0",
		"generator":"Created using the official Cinema 4D glTF Exporter 1.000x284978"
	},
	"scenes":[{
		"nodes":[0]
	}],
	"meshes":[{
		"name":"cloth9-PBR.1",
		"primitives":[{
			"attributes":{
				"POSITION":1,
				"NORMAL":2,
				"TEXCOORD_0":3
			},
			"indices":0,
			"material":0
		}]
	},
	{
		"name":"cloth9-PBR.1",
		"primitives":[{
			"attributes":{
				"POSITION":5,
				"NORMAL":6,
				"TEXCOORD_0":7
			},
			"indices":4,
			"material":0
		}]
	},
	{
		"name":"cloth9-PBR",
		"primitives":[{
			"attributes":{
				"POSITION":9,
				"NORMAL":10,
				"TEXCOORD_0":11
			},
			"indices":8,
			"material":1
		}]
	},
	{
		"name":"cloth9-PBR.1",
		"primitives":[{
			"attributes":{
				"POSITION":13,
				"NORMAL":14,
				"TEXCOORD_0":15
			},
			"indices":12,
			"material":0
		}]
	}],
	"accessors":[{
		"componentType":5123,
		"bufferView":0,
		"type":"SCALAR",
		"count":7164,
		"byteOffset":0,
		"min":[0],
		"max":[1440]
	},
	{
		"componentType":5126,
		"bufferView":1,
		"type":"VEC3",
		"count":1441,
		"byteOffset":0,
		"min":[0.13002368807792664,
		0.5920953154563904,
		-0.4396733045578003],
		"max":[1.3247172832489014,
		1.7125669717788697,
		0.37030017375946047]
	},
	{
		"componentType":5126,
		"bufferView":1,
		"type":"VEC3",
		"count":1441,
		"byteOffset":12,
		"min":[-0.9959688186645508,
		-0.9796562790870667,
		-0.9961562752723694],
		"max":[0.9987500309944153,
		0.9958750605583191,
		0.9953125715255737]
	},
	{
		"componentType":5126,
		"bufferView":1,
		"type":"VEC2",
		"count":1441,
		"byteOffset":24,
		"min":[0.0,
		0.0],
		"max":[0.0,
		0.0]
	},
	{
		"componentType":5123,
		"bufferView":2,
		"type":"SCALAR",
		"count":17616,
		"byteOffset":0,
		"min":[0],
		"max":[3961]
	},
	{
		"componentType":5126,
		"bufferView":3,
		"type":"VEC3",
		"count":3962,
		"byteOffset":0,
		"min":[-2.7822530269622804,
		-2.16658616065979,
		-0.22973506152629853],
		"max":[1.331804633140564,
		-0.15817227959632874,
		1.1425341367721558]
	},
	{
		"componentType":5126,
		"bufferView":3,
		"type":"VEC3",
		"count":3962,
		"byteOffset":12,
		"min":[-0.9993438124656677,
		-0.9891250729560852,
		-0.9999688267707825],
		"max":[0.9934688210487366,
		0.9986875653266907,
		0.9994062781333923]
	},
	{
		"componentType":5126,
		"bufferView":3,
		"type":"VEC2",
		"count":3962,
		"byteOffset":24,
		"min":[0.0,
		0.0],
		"max":[0.0,
		0.0]
	},
	{
		"componentType":5123,
		"bufferView":4,
		"type":"SCALAR",
		"count":148800,
		"byteOffset":0,
		"min":[0],
		"max":[27147]
	},
	{
		"componentType":5126,
		"bufferView":5,
		"type":"VEC3",
		"count":27148,
		"byteOffset":0,
		"min":[-5.890750408172607,
		-2.5939228534698488,
		-4.984156131744385],
		"max":[4.442953109741211,
		3.74523663520813,
		1.040418028831482]
	},
	{
		"componentType":5126,
		"bufferView":5,
		"type":"VEC3",
		"count":27148,
		"byteOffset":12,
		"min":[-0.9999688267707825,
		-0.9989063143730164,
		-0.9999688267707825],
		"max":[0.9999688267707825,
		0.998468816280365,
		0.9998750686645508]
	},
	{
		"componentType":5126,
		"bufferView":5,
		"type":"VEC2",
		"count":27148,
		"byteOffset":24,
		"min":[0.0,
		0.0],
		"max":[1.0,
		1.0]
	},
	{
		"componentType":5123,
		"bufferView":6,
		"type":"SCALAR",
		"count":10368,
		"byteOffset":0,
		"min":[0],
		"max":[2119]
	},
	{
		"componentType":5126,
		"bufferView":7,
		"type":"VEC3",
		"count":2120,
		"byteOffset":0,
		"min":[-0.6809981465339661,
		-2.1051905155181886,
		0.2789389193058014],
		"max":[-0.5010420680046082,
		1.497597098350525,
		1.0788426399230958]
	},
	{
		"componentType":5126,
		"bufferView":7,
		"type":"VEC3",
		"count":2120,
		"byteOffset":12,
		"min":[-0.9965625405311585,
		-0.9966250658035278,
		-0.238218754529953],
		"max":[0.9965625405311585,
		0.9999688267707825,
		0.9999688267707825]
	},
	{
		"componentType":5126,
		"bufferView":7,
		"type":"VEC2",
		"count":2120,
		"byteOffset":24,
		"min":[0.0,
		0.0],
		"max":[1.0,
		1.0]
	}],
	"buffers":[{
		"uri":"data:application/octet-stream;base64,",
		"byteLength":60440
	},
	{
		"uri":"data:application/octet-stream;base64,",
		"byteLength":162016
	},
	{
		"uri":"data:application/octet-stream;base64,",
		"byteLength":1166336
	},
	{
		"uri":"data:application/octet-stream;base64,",
		"byteLength":88576
	}],
	"bufferViews":[{
		"buffer":0,
		"byteOffset":0,
		"byteLength":14328,
		"target":34963
	},
	{
		"buffer":0,
		"byteOffset":14328,
		"byteLength":46112,
		"byteStride":32,
		"target":34962
	},
	{
		"buffer":1,
		"byteOffset":0,
		"byteLength":35232,
		"target":34963
	},
	{
		"buffer":1,
		"byteOffset":35232,
		"byteLength":126784,
		"byteStride":32,
		"target":34962
	},
	{
		"buffer":2,
		"byteOffset":0,
		"byteLength":297600,
		"target":34963
	},
	{
		"buffer":2,
		"byteOffset":297600,
		"byteLength":868736,
		"byteStride":32,
		"target":34962
	},
	{
		"buffer":3,
		"byteOffset":0,
		"byteLength":20736,
		"target":34963
	},
	{
		"buffer":3,
		"byteOffset":20736,
		"byteLength":67840,
		"byteStride":32,
		"target":34962
	}],
	"materials":[{
		"pbrMetallicRoughness":{
			"baseColorFactor":[0.85,
			0.85,
			0.85,
			1.0],
			"metallicFactor":0.3,
			"roughnessFactor":0.3
		},
		"emissiveFactor":[0.0,
		0.0,
		0.0],
		"alphaMode":"OPAQUE",
		"doubleSided":true,
		"name":"PBR.1"
	},
	{
		"pbrMetallicRoughness":{
			"baseColorFactor":[0.16078431372549019,
			0.1568627450980392,
			0.23529411764705883,
			1.0],
			"metallicFactor":0.3,
			"roughnessFactor":0.3
		},
		"emissiveFactor":[0.0,
		0.0,
		0.0],
		"alphaMode":"OPAQUE",
		"doubleSided":true,
		"name":"PBR"
	}]
}