{
	"bufferViews":[{
		"buffer":0,
		"byteOffset":0,
		"byteLength":1968,
		"target":34963
	},
	{
		"buffer":0,
		"byteOffset":1968,
		"byteLength":6528,
		"target":34962,
		"byteStride":32
	}],
	"asset":{
		"version":"2.0",
		"generator":"Created using the official Cinema 4D glTF Exporter 1.000x284978"
	},
	"scenes":[{
		"nodes":[0]
	}],
	"nodes":[{
		"name":"对称.2",
		"translation":[0.0,
		0.49093207716941836,
		0.21645104885101319],
		"rotation":[0.0,
		0.0,
		0.0,
		-1.0],
		"scale":[1.0,
		1.0,
		1.0],
		"mesh":0
	}],
	"meshes":[{
		"primitives":[{
			"attributes":{
				"POSITION":1,
				"NORMAL":2,
				"TEXCOORD_0":3
			},
			"indices":0,
			"material":0
		}],
		"name":"对称.2"
	}],
	"accessors":[{
		"bufferView":0,
		"type":"SCALAR",
		"min":[0],
		"count":984,
		"componentType":5123,
		"byteOffset":0,
		"max":[203]
	},
	{
		"bufferView":1,
		"type":"VEC3",
		"min":[-3.218526840209961,
		-0.6356906890869141,
		1.6235870122909547],
		"count":204,
		"componentType":5126,
		"byteOffset":0,
		"max":[3.218526840209961,
		1.8808435201644898,
		3.069729804992676]
	},
	{
		"bufferView":1,
		"type":"VEC3",
		"min":[-0.649030327796936,
		0.03815283998847008,
		0.7028992176055908],
		"count":204,
		"componentType":5126,
		"byteOffset":12,
		"max":[0.6490302681922913,
		0.5601704716682434,
		0.9811222553253174]
	},
	{
		"bufferView":1,
		"type":"VEC2",
		"min":[0.03135693818330765,
		0.04401516914367676],
		"count":204,
		"componentType":5126,
		"byteOffset":24,
		"max":[0.9604817628860474,
		0.9349864721298218]
	}],
	"buffers":[{
		"uri":"data:application/octet-stream;base64,",
		"byteLength":8496
	}],
	"images":[{
		"uri":"data:image/png;base64,"
	}],
	"samplers":[{
		"magFilter":9729,
		"minFilter":9729,
		"wrapS":10497,
		"wrapT":10497
	}],
	"textures":[{
		"sampler":0,
		"source":0
	}],
	"materials":[{
		"pbrMetallicRoughness":{
			"baseColorTexture":{
				"index":0
			},
			"baseColorFactor":[1.0,
			1.0,
			1.0,
			1.0],
			"metallicFactor":0.0,
			"roughnessFactor":0.5
		},
		"emissiveFactor":[0.0,
		0.0,
		0.0],
		"alphaMode":"BLEND",
		"name":"材质.1",
		"doubleSided":true
	}]
}