{
	"asset":{
		"version":"2.0",
		"generator":"Created using the official Cinema 4D glTF Exporter 1.000x284978"
	},
	"scenes":[{
		"nodes":[0]
	}],
	"nodes":[{
		"name":"hat3",
		"translation":[-0.5097150206565857,
		3.1636431217193605,
		-2.2528927326202394],
		"rotation":[0.0,
		0.0,
		0.0,
		-1.0],
		"scale":[1.0,
		1.0,
		1.0],
		"mesh":0
	}],
	"meshes":[{
		"name":"hat3",
		"primitives":[{
			"attributes":{
				"POSITION":1,
				"NORMAL":2,
				"TEXCOORD_0":3
			},
			"indices":0,
			"material":0
		}]
	}],
	"accessors":[{
		"bufferView":0,
		"type":"SCALAR",
		"componentType":5123,
		"min":[0],
		"count":82752,
		"byteOffset":0,
		"max":[14811]
	},
	{
		"bufferView":1,
		"type":"VEC3",
		"componentType":5126,
		"min":[-3.604222297668457,
		-3.003031015396118,
		-4.3946452140808109],
		"count":14812,
		"byteOffset":0,
		"max":[3.921550989151001,
		2.3106637001037599,
		5.278591156005859]
	},
	{
		"bufferView":1,
		"type":"VEC3",
		"componentType":5126,
		"min":[-0.9988492727279663,
		-0.9999099373817444,
		-0.9999033212661743],
		"count":14812,
		"byteOffset":12,
		"max":[0.9988518953323364,
		0.9998275637626648,
		0.9999110102653503]
	},
	{
		"bufferView":1,
		"type":"VEC2",
		"componentType":5126,
		"min":[0.0,
		0.0],
		"count":14812,
		"byteOffset":24,
		"max":[1.0,
		1.0]
	}],
	"bufferViews":[{
		"buffer":0,
		"byteOffset":0,
		"byteLength":165504,
		"target":34963
	},
	{
		"buffer":0,
		"byteOffset":165504,
		"byteLength":473984,
		"target":34962,
		"byteStride":32
	}],
	"buffers":[{
		"uri":"data:application/octet-stream;base64,",
		"byteLength":639488
	}],
	"materials":[{
		"pbrMetallicRoughness":{
			"baseColorFactor":[0.21176470588235295,
			0.17254901960784314,
			0.21568627450980394,
			1.0],
			"metallicFactor":0.3,
			"roughnessFactor":0.3
		},
		"emissiveFactor":[0.0,
		0.0,
		0.0],
		"alphaMode":"OPAQUE",
		"doubleSided":true,
		"name":"PBR"
	}]
}