{
  "asset": {
    "version": "2.0",
    "generator": "THREE.GLTFExporter"
  },
  "scenes": [
    {
      "name": "Scene",
      "nodes": [
        0,
        2
      ]
    }
  ],
  "scene": 0,
  "nodes": [
    {
      "name": "AmbientLight"
    },
    {
      "matrix": [
        1,
        0,
        0,
        0,
        0,
        1,
        0,
        0,
        0,
        0,
        1,
        0,
        -1.705528736114502,
        -1.399824857711792,
        1.3490363359451294,
        1
      ],
      "name": "hat1",
      "extras": {
        "name": "hat1"
      },
      "mesh": 0
    },
    {
      "matrix": [
        1,
        0,
        0,
        0,
        0,
        1,
        0,
        0,
        0,
        0,
        1,
        0,
        1.1172667831672025,
        1.5069122766358176,
        -1.9915661434484417,
        1
      ],
      "name": "Bandana.gltf",
      "children": [
        1
      ]
    }
  ],
  "bufferViews": [
    {
      "buffer": 0,
      "byteOffset": 0,
      "byteLength": 206820,
      "target": 34962,
      "byteStride": 12
    },
    {
      "buffer": 0,
      "byteOffset": 206820,
      "byteLength": 206820,
      "target": 34962,
      "byteStride": 12
    },
    {
      "buffer": 0,
      "byteOffset": 413640,
      "byteLength": 137880,
      "target": 34962,
      "byteStride": 8
    },
    {
      "buffer": 0,
      "byteOffset": 551520,
      "byteLength": 193536,
      "target": 34963
    }
  ],
  "buffers": [
    {
      "byteLength": 745056,
      "uri": "data:application/octet-stream;base64,"
    }
  ],
  "accessors": [
    {
      "bufferView": 0,
      "componentType": 5126,
      "count": 17235,
      "max": [
        4.087286949157715,
        5.688003063201904,
        3.370849370956421
      ],
      "min": [
        -5.621756553649902,
        -0.1070142388343811,
        -2.9389870166778564
      ],
      "type": "VEC3"
    },
    {
      "bufferView": 1,
      "componentType": 5126,
      "count": 17235,
      "max": [
        0.9996539950370789,
        0.9999452233314514,
        0.998024582862854
      ],
      "min": [
        -0.9976033568382263,
        -0.9999584555625916,
        -0.9974771738052368
      ],
      "type": "VEC3"
    },
    {
      "bufferView": 2,
      "componentType": 5126,
      "count": 17235,
      "max": [
        1.067664384841919,
        1.5170998573303223
      ],
      "min": [
        -0.6149531006813049,
        -0.03359610587358475
      ],
      "type": "VEC2"
    },
    {
      "bufferView": 3,
      "componentType": 5123,
      "count": 96768,
      "max": [
        17234
      ],
      "min": [
        0
      ],
      "type": "SCALAR"
    }
  ],
  "materials": [
    {
      "pbrMetallicRoughness": {
        "baseColorFactor": [
          0.7686274509803921,
          0.43137254901960786,
          0.26666666666666666,
          1
        ],
        "metallicFactor": 0.3,
        "roughnessFactor": 0.3,
        "baseColorTexture": {
          "index": 0
        }
      },
      "doubleSided": true,
      "name": "PBR"
    }
  ],
  "textures": [
    {
      "sampler": 0,
      "source": 0
    }
  ],
  "samplers": [
    {
      "magFilter": 9729,
      "minFilter": 9729,
      "wrapS": 10497,
      "wrapT": 10497
    }
  ],
  "images": [
    {
      "mimeType": "image/png",
      "uri": "data:image/png;base64,"
    }
  ],
  "meshes": [
    {
      "primitives": [
        {
          "mode": 4,
          "attributes": {
            "POSITION": 0,
            "NORMAL": 1,
            "TEXCOORD_0": 2
          },
          "indices": 3,
          "material": 0
        }
      ]
    }
  ]
}