{
	"asset":{
		"version":"2.0",
		"generator":"Created using the official Cinema 4D glTF Exporter 1.000x284978"
	},
	"scenes":[{
		"nodes":[0]
	}],
	"nodes":[{
		"name":"hat7",
		"translation":[-1.8474110452136248e-15,
		3.9087324142456056,
		0.8462983965873718],
		"rotation":[0.0,
		0.0,
		0.0,
		-1.0],
		"scale":[1.0,
		1.0,
		1.0],
		"children":[1,
		2,
		3,
		4]
	},
	{
		"name":"hat7-PBR.1",
		"mesh":0
	},
	{
		"name":"hat7-PBR.2",
		"mesh":1
	},
	{
		"name":"hat7-PBR.1",
		"mesh":2
	},
	{
		"name":"hat7-PBR",
		"mesh":3
	}],
	"meshes":[{
		"name":"hat7-PBR.1",
		"primitives":[{
			"attributes":{
				"POSITION":1,
				"NORMAL":2,
				"TEXCOORD_0":3
			},
			"indices":0,
			"material":0
		}]
	},
	{
		"name":"hat7-PBR.2",
		"primitives":[{
			"attributes":{
				"POSITION":5,
				"NORMAL":6,
				"TEXCOORD_0":7
			},
			"indices":4,
			"material":1
		}]
	},
	{
		"name":"hat7-PBR.1",
		"primitives":[{
			"attributes":{
				"POSITION":9,
				"NORMAL":10,
				"TEXCOORD_0":11
			},
			"indices":8,
			"material":0
		}]
	},
	{
		"name":"hat7-PBR",
		"primitives":[{
			"attributes":{
				"POSITION":13,
				"NORMAL":14,
				"TEXCOORD_0":15
			},
			"indices":12,
			"material":2
		}]
	}],
	"accessors":[{
		"bufferView":0,
		"type":"SCALAR",
		"componentType":5123,
		"min":[0],
		"count":1536,
		"byteOffset":0,
		"max":[324]
	},
	{
		"bufferView":1,
		"type":"VEC3",
		"componentType":5126,
		"min":[-3.5673668384552,
		-1.0373420715332032,
		-4.2320356369018559],
		"count":325,
		"byteOffset":0,
		"max":[3.5121381282806398,
		-0.12257430702447891,
		2.3942394256591799]
	},
	{
		"bufferView":1,
		"type":"VEC3",
		"componentType":5126,
		"min":[-0.9341250658035278,
		0.3562812805175781,
		-0.7170937657356262],
		"count":325,
		"byteOffset":12,
		"max":[0.9034063220024109,
		0.9449688196182251,
		0.8210625648498535]
	},
	{
		"bufferView":1,
		"type":"VEC2",
		"componentType":5126,
		"min":[0.0,
		0.0],
		"count":325,
		"byteOffset":24,
		"max":[1.0,
		0.15625]
	},
	{
		"bufferView":2,
		"type":"SCALAR",
		"componentType":5123,
		"min":[0],
		"count":35328,
		"byteOffset":0,
		"max":[8424]
	},
	{
		"bufferView":3,
		"type":"VEC3",
		"componentType":5126,
		"min":[-3.5832605361938478,
		-1.6920406818389893,
		-4.566948413848877],
		"count":8425,
		"byteOffset":0,
		"max":[3.5591824054718019,
		4.932856559753418,
		2.5131657123565676]
	},
	{
		"bufferView":3,
		"type":"VEC3",
		"componentType":5126,
		"min":[-0.9993125200271606,
		-0.9997813105583191,
		-0.9995625615119934],
		"count":8425,
		"byteOffset":12,
		"max":[0.99937504529953,
		0.9997813105583191,
		0.9998750686645508]
	},
	{
		"bufferView":3,
		"type":"VEC2",
		"componentType":5126,
		"min":[0.0,
		0.0],
		"count":8425,
		"byteOffset":24,
		"max":[1.0,
		1.0]
	},
	{
		"bufferView":4,
		"type":"SCALAR",
		"componentType":5123,
		"min":[0],
		"count":10368,
		"byteOffset":0,
		"max":[2366]
	},
	{
		"bufferView":5,
		"type":"VEC3",
		"componentType":5126,
		"min":[-0.8026887774467468,
		0.7766050100326538,
		0.10076896846294403],
		"count":2367,
		"byteOffset":0,
		"max":[0.8026887774467468,
		1.7748196125030518,
		1.4887721538543702]
	},
	{
		"bufferView":5,
		"type":"VEC3",
		"componentType":5126,
		"min":[-1.0,
		-0.9980313181877136,
		-0.9934688210487366],
		"count":2367,
		"byteOffset":12,
		"max":[1.0,
		0.9980313181877136,
		0.9934688210487366]
	},
	{
		"bufferView":5,
		"type":"VEC2",
		"componentType":5126,
		"min":[0.00041149146272800863,
		0.0],
		"count":2367,
		"byteOffset":24,
		"max":[0.9995884895324707,
		1.0]
	},
	{
		"bufferView":6,
		"type":"SCALAR",
		"componentType":5123,
		"min":[0],
		"count":11520,
		"byteOffset":0,
		"max":[2072]
	},
	{
		"bufferView":7,
		"type":"VEC3",
		"componentType":5126,
		"min":[-0.3364628553390503,
		0.9595335125923157,
		0.5098355412483215],
		"count":2073,
		"byteOffset":0,
		"max":[0.3364628553390503,
		1.6571675539016724,
		1.182761311531067]
	},
	{
		"bufferView":7,
		"type":"VEC3",
		"componentType":5126,
		"min":[-1.0,
		-1.0,
		-1.0],
		"count":2073,
		"byteOffset":12,
		"max":[1.0,
		1.0,
		1.0]
	},
	{
		"bufferView":7,
		"type":"VEC2",
		"componentType":5126,
		"min":[0.0,
		0.0390625],
		"count":2073,
		"byteOffset":24,
		"max":[1.0,
		0.9609375]
	}],
	"bufferViews":[{
		"buffer":0,
		"byteOffset":0,
		"byteLength":3072,
		"target":34963
	},
	{
		"buffer":0,
		"byteOffset":3072,
		"byteLength":10400,
		"target":34962,
		"byteStride":32
	},
	{
		"buffer":1,
		"byteOffset":0,
		"byteLength":70656,
		"target":34963
	},
	{
		"buffer":1,
		"byteOffset":70656,
		"byteLength":269600,
		"target":34962,
		"byteStride":32
	},
	{
		"buffer":2,
		"byteOffset":0,
		"byteLength":20736,
		"target":34963
	},
	{
		"buffer":2,
		"byteOffset":20736,
		"byteLength":75744,
		"target":34962,
		"byteStride":32
	},
	{
		"buffer":3,
		"byteOffset":0,
		"byteLength":23040,
		"target":34963
	},
	{
		"buffer":3,
		"byteOffset":23040,
		"byteLength":66336,
		"target":34962,
		"byteStride":32
	}],
	"buffers":[{
		"uri":"data:application/octet-stream;base64,",
		"byteLength":13472
	},
	{
		"uri":"data:application/octet-stream;base64,",
		"byteLength":340256
	},
	{
		"uri":"data:application/octet-stream;base64,",
		"byteLength":96480
	},
	{
		"uri":"data:application/octet-stream;base64,",
		"byteLength":89376
	}],
	"materials":[{
		"pbrMetallicRoughness":{
			"baseColorFactor":[0.9137254901960784,
			0.7725490196078432,
			0.10588235294117648,
			1.0],
			"metallicFactor":0.3,
			"roughnessFactor":0.3
		},
		"emissiveFactor":[0.0,
		0.0,
		0.0],
		"alphaMode":"OPAQUE",
		"doubleSided":true,
		"name":"PBR.1"
	},
	{
		"pbrMetallicRoughness":{
			"baseColorFactor":[0.8862745098039215,
			0.13725490196078433,
			0.13725490196078433,
			1.0],
			"metallicFactor":0.3,
			"roughnessFactor":0.3
		},
		"emissiveFactor":[0.0,
		0.0,
		0.0],
		"alphaMode":"OPAQUE",
		"doubleSided":true,
		"name":"PBR.2"
	},
	{
		"pbrMetallicRoughness":{
			"baseColorFactor":[0.16078431372549027,
			0.7568627450980392,
			0.11764705882352941,
			1.0],
			"metallicFactor":0.3,
			"roughnessFactor":0.3
		},
		"emissiveFactor":[0.0,
		0.0,
		0.0],
		"alphaMode":"OPAQUE",
		"doubleSided":true,
		"name":"PBR"
	}]
}