{
	"asset":{
		"version":"2.0",
		"generator":"Created using the official Cinema 4D glTF Exporter 1.000x284978"
	},
	"scenes":[{
		"nodes":[0]
	}],
	"nodes":[{
		"name":"hat4",
		"translation":[0.21182096004486085,
		3.77412486076355,
		0.8334748148918152],
		"rotation":[0.0,
		0.0,
		0.0,
		-1.0],
		"scale":[1.0,
		1.0,
		1.0],
		"children":[1,
		2,
		3,
		4,
		5]
	},
	{
		"name":"hat4-PBR.3",
		"mesh":0
	},
	{
		"name":"hat4-PBR.2",
		"mesh":1
	},
	{
		"name":"hat4-PBR.1",
		"mesh":2
	},
	{
		"name":"hat4-PBR",
		"mesh":3
	},
	{
		"name":"hat4-PBR.1",
		"mesh":4
	}],
	"meshes":[{
		"name":"hat4-PBR.3",
		"primitives":[{
			"attributes":{
				"POSITION":1,
				"NORMAL":2,
				"TEXCOORD_0":3
			},
			"indices":0,
			"material":0
		}]
	},
	{
		"name":"hat4-PBR.2",
		"primitives":[{
			"attributes":{
				"POSITION":5,
				"NORMAL":6,
				"TEXCOORD_0":7
			},
			"indices":4,
			"material":1
		}]
	},
	{
		"name":"hat4-PBR.1",
		"primitives":[{
			"attributes":{
				"POSITION":9,
				"NORMAL":10,
				"TEXCOORD_0":11
			},
			"indices":8,
			"material":2
		}]
	},
	{
		"name":"hat4-PBR",
		"primitives":[{
			"attributes":{
				"POSITION":13,
				"NORMAL":14,
				"TEXCOORD_0":15
			},
			"indices":12,
			"material":3
		}]
	},
	{
		"name":"hat4-PBR.1",
		"primitives":[{
			"attributes":{
				"POSITION":17,
				"NORMAL":18,
				"TEXCOORD_0":19
			},
			"indices":16,
			"material":2
		}]
	}],
	"accessors":[{
		"bufferView":0,
		"type":"SCALAR",
		"componentType":5123,
		"min":[0],
		"count":5088,
		"byteOffset":0,
		"max":[1047]
	},
	{
		"bufferView":1,
		"type":"VEC3",
		"componentType":5126,
		"min":[-3.8148837089538576,
		-1.3327043056488038,
		-3.406892776489258],
		"count":1048,
		"byteOffset":0,
		"max":[3.118145227432251,
		2.30362606048584,
		1.8992174863815308]
	},
	{
		"bufferView":1,
		"type":"VEC3",
		"componentType":5126,
		"min":[-0.9985625743865967,
		0.04481250047683716,
		-0.779718816280365],
		"count":1048,
		"byteOffset":12,
		"max":[0.9865313172340393,
		0.9982500672340393,
		0.7769063115119934]
	},
	{
		"bufferView":1,
		"type":"VEC2",
		"componentType":5126,
		"min":[0.0,
		0.019534073770046235],
		"count":1048,
		"byteOffset":24,
		"max":[1.0,
		0.4917795658111572]
	},
	{
		"bufferView":2,
		"type":"SCALAR",
		"componentType":5123,
		"min":[0],
		"count":4776,
		"byteOffset":0,
		"max":[982]
	},
	{
		"bufferView":3,
		"type":"VEC3",
		"componentType":5126,
		"min":[-2.587676763534546,
		-1.291489839553833,
		-4.038778305053711],
		"count":983,
		"byteOffset":0,
		"max":[1.8559268712997437,
		2.30362606048584,
		2.60206937789917]
	},
	{
		"bufferView":3,
		"type":"VEC3",
		"componentType":5126,
		"min":[-0.6430000066757202,
		-0.5478437542915344,
		-0.9994062781333923],
		"count":983,
		"byteOffset":12,
		"max":[0.6071875095367432,
		0.9982500672340393,
		0.9954375624656677]
	},
	{
		"bufferView":3,
		"type":"VEC2",
		"componentType":5126,
		"min":[0.011599693447351456,
		0.019534073770046235],
		"count":983,
		"byteOffset":24,
		"max":[0.75,
		0.4917795658111572]
	},
	{
		"bufferView":4,
		"type":"SCALAR",
		"componentType":5123,
		"min":[0],
		"count":4776,
		"byteOffset":0,
		"max":[978]
	},
	{
		"bufferView":5,
		"type":"VEC3",
		"componentType":5126,
		"min":[-3.804386615753174,
		-1.321560263633728,
		-3.751462697982788],
		"count":979,
		"byteOffset":0,
		"max":[3.1076483726501467,
		2.30362606048584,
		2.465329885482788]
	},
	{
		"bufferView":5,
		"type":"VEC3",
		"componentType":5126,
		"min":[-0.9856563210487366,
		-0.5241562724113464,
		-0.9379062652587891],
		"count":979,
		"byteOffset":12,
		"max":[0.9735000729560852,
		0.9982500672340393,
		0.9313750267028809]
	},
	{
		"bufferView":5,
		"type":"VEC2",
		"componentType":5126,
		"min":[0.17826636135578156,
		0.01953408122062683],
		"count":979,
		"byteOffset":24,
		"max":[0.9166666269302368,
		0.4917795658111572]
	},
	{
		"bufferView":6,
		"type":"SCALAR",
		"componentType":5123,
		"min":[0],
		"count":8232,
		"byteOffset":0,
		"max":[2252]
	},
	{
		"bufferView":7,
		"type":"VEC3",
		"componentType":5126,
		"min":[-3.867166757583618,
		-1.6591795682907105,
		-4.128515243530273],
		"count":2253,
		"byteOffset":0,
		"max":[3.4601078033447267,
		-0.8191190958023071,
		5.023067474365234]
	},
	{
		"bufferView":7,
		"type":"VEC3",
		"componentType":5126,
		"min":[-0.9992188215255737,
		-0.9999688267707825,
		-0.994437575340271],
		"count":2253,
		"byteOffset":12,
		"max":[0.9997813105583191,
		0.9998750686645508,
		0.9745938181877136]
	},
	{
		"bufferView":7,
		"type":"VEC2",
		"componentType":5126,
		"min":[0.0,
		0.0],
		"count":2253,
		"byteOffset":24,
		"max":[1.0,
		1.0]
	},
	{
		"bufferView":8,
		"type":"SCALAR",
		"componentType":5123,
		"min":[0],
		"count":16176,
		"byteOffset":0,
		"max":[3302]
	},
	{
		"bufferView":9,
		"type":"VEC3",
		"componentType":5126,
		"min":[-3.4956891536712648,
		2.095682144165039,
		-1.9192150831222535],
		"count":3303,
		"byteOffset":0,
		"max":[2.400601625442505,
		2.8525774478912355,
		0.5095442533493042]
	},
	{
		"bufferView":9,
		"type":"VEC3",
		"componentType":5126,
		"min":[-0.9999688267707825,
		-0.9999688267707825,
		-0.9994062781333923],
		"count":3303,
		"byteOffset":12,
		"max":[0.9999688267707825,
		0.9999688267707825,
		0.9995625615119934]
	},
	{
		"bufferView":9,
		"type":"VEC2",
		"componentType":5126,
		"min":[0.0,
		0.0],
		"count":3303,
		"byteOffset":24,
		"max":[1.0,
		1.0]
	}],
	"bufferViews":[{
		"buffer":0,
		"byteOffset":0,
		"byteLength":10176,
		"target":34963
	},
	{
		"buffer":0,
		"byteOffset":10176,
		"byteLength":33536,
		"target":34962,
		"byteStride":32
	},
	{
		"buffer":1,
		"byteOffset":0,
		"byteLength":9552,
		"target":34963
	},
	{
		"buffer":1,
		"byteOffset":9552,
		"byteLength":31456,
		"target":34962,
		"byteStride":32
	},
	{
		"buffer":2,
		"byteOffset":0,
		"byteLength":9552,
		"target":34963
	},
	{
		"buffer":2,
		"byteOffset":9552,
		"byteLength":31328,
		"target":34962,
		"byteStride":32
	},
	{
		"buffer":3,
		"byteOffset":0,
		"byteLength":16464,
		"target":34963
	},
	{
		"buffer":3,
		"byteOffset":16464,
		"byteLength":72096,
		"target":34962,
		"byteStride":32
	},
	{
		"buffer":4,
		"byteOffset":0,
		"byteLength":32352,
		"target":34963
	},
	{
		"buffer":4,
		"byteOffset":32352,
		"byteLength":105696,
		"target":34962,
		"byteStride":32
	}],
	"buffers":[{
		"uri":"data:application/octet-stream;base64,",
		"byteLength":43712
	},
	{
		"uri":"data:application/octet-stream;base64,",
		"byteLength":41008
	},
	{
		"uri":"data:application/octet-stream;base64,",
		"byteLength":40880
	},
	{
		"uri":"data:application/octet-stream;base64,",
		"byteLength":88560
	},
	{
		"uri":"data:application/octet-stream;base64,",
		"byteLength":138048
	}],
	"materials":[{
		"pbrMetallicRoughness":{
			"baseColorFactor":[0.92,
			0.8123600000000001,
			0.2024,
			1.0],
			"metallicFactor":0.41000000000000005,
			"roughnessFactor":0.22
		},
		"emissiveFactor":[0.0,
		0.0,
		0.0],
		"alphaMode":"OPAQUE",
		"doubleSided":true,
		"name":"PBR.3"
	},
	{
		"pbrMetallicRoughness":{
			"baseColorFactor":[0.2024,
			0.4415999999999998,
			0.92,
			1.0],
			"metallicFactor":0.41000000000000005,
			"roughnessFactor":0.22
		},
		"emissiveFactor":[0.0,
		0.0,
		0.0],
		"alphaMode":"OPAQUE",
		"doubleSided":true,
		"name":"PBR.2"
	},
	{
		"pbrMetallicRoughness":{
			"baseColorFactor":[0.8,
			0.176,
			0.176,
			1.0],
			"metallicFactor":0.41000000000000005,
			"roughnessFactor":0.22
		},
		"emissiveFactor":[0.0,
		0.0,
		0.0],
		"alphaMode":"OPAQUE",
		"doubleSided":true,
		"name":"PBR.1"
	},
	{
		"pbrMetallicRoughness":{
			"baseColorFactor":[0.9500000000000001,
			0.9500000000000001,
			0.9500000000000001,
			1.0],
			"metallicFactor":0.35000000000000006,
			"roughnessFactor":0.19
		},
		"emissiveFactor":[0.0,
		0.0,
		0.0],
		"alphaMode":"OPAQUE",
		"doubleSided":true,
		"name":"PBR"
	}]
}