{
	"asset":{
		"version":"2.0",
		"generator":"Created using the official Cinema 4D glTF Exporter 1.000x284978"
	},
	"scenes":[{
		"nodes":[0]
	}],
	"nodes":[{
		"name":"hat8",
		"translation":[0.0033003976568579675,
		5.272032260894775,
		1.5048192739486695],
		"rotation":[0.0,
		0.0,
		0.0,
		-1.0],
		"scale":[1.0,
		1.0,
		1.0],
		"children":[1,
		2,
		3,
		4]
	},
	{
		"name":"hat8-PBR",
		"mesh":0
	},
	{
		"name":"hat8-PBR.2",
		"mesh":1
	},
	{
		"name":"hat8-PBR",
		"mesh":2
	},
	{
		"name":"hat8-PBR.1",
		"mesh":3
	}],
	"meshes":[{
		"name":"hat8-PBR",
		"primitives":[{
			"attributes":{
				"POSITION":1,
				"NORMAL":2,
				"TEXCOORD_0":3
			},
			"indices":0,
			"material":0
		}]
	},
	{
		"name":"hat8-PBR.2",
		"primitives":[{
			"attributes":{
				"POSITION":5,
				"NORMAL":6,
				"TEXCOORD_0":7
			},
			"indices":4,
			"material":1
		}]
	},
	{
		"name":"hat8-PBR",
		"primitives":[{
			"attributes":{
				"POSITION":9,
				"NORMAL":10,
				"TEXCOORD_0":11
			},
			"indices":8,
			"material":0
		}]
	},
	{
		"name":"hat8-PBR.1",
		"primitives":[{
			"attributes":{
				"POSITION":13,
				"NORMAL":14,
				"TEXCOORD_0":15
			},
			"indices":12,
			"material":2
		}]
	}],
	"accessors":[{
		"bufferView":0,
		"type":"SCALAR",
		"componentType":5123,
		"min":[0],
		"count":1584,
		"byteOffset":0,
		"max":[322]
	},
	{
		"bufferView":1,
		"type":"VEC3",
		"componentType":5126,
		"min":[-0.43046289682388308,
		1.3275337219238282,
		-1.9319816827774048],
		"count":323,
		"byteOffset":0,
		"max":[0.423862099647522,
		2.181858777999878,
		-1.0776567459106446]
	},
	{
		"bufferView":1,
		"type":"VEC3",
		"componentType":5126,
		"min":[-1.0,
		-1.0,
		-0.9999688267707825],
		"count":323,
		"byteOffset":12,
		"max":[0.9999688267707825,
		1.0,
		0.9999688267707825]
	},
	{
		"bufferView":1,
		"type":"VEC2",
		"componentType":5126,
		"min":[0.0,
		0.0],
		"count":323,
		"byteOffset":24,
		"max":[1.0,
		1.0]
	},
	{
		"bufferView":2,
		"type":"SCALAR",
		"componentType":5123,
		"min":[0],
		"count":390,
		"byteOffset":0,
		"max":[187]
	},
	{
		"bufferView":3,
		"type":"VEC3",
		"componentType":5126,
		"min":[-0.15488611161708833,
		-2.0254967212677,
		1.3891640901565552],
		"count":188,
		"byteOffset":0,
		"max":[0.1614869087934494,
		-1.4953656196594239,
		1.6392924785614014]
	},
	{
		"bufferView":3,
		"type":"VEC3",
		"componentType":5126,
		"min":[-1.0,
		-0.9930313229560852,
		-0.9330000281333923],
		"count":188,
		"byteOffset":12,
		"max":[1.0,
		0.9930313229560852,
		0.9930313229560852]
	},
	{
		"bufferView":3,
		"type":"VEC2",
		"componentType":5126,
		"min":[0.0,
		0.00146484375],
		"count":188,
		"byteOffset":24,
		"max":[0.99853515625,
		1.0]
	},
	{
		"bufferView":4,
		"type":"SCALAR",
		"componentType":5123,
		"min":[0],
		"count":161280,
		"byteOffset":0,
		"max":[34727]
	},
	{
		"bufferView":5,
		"type":"VEC3",
		"componentType":5126,
		"min":[-3.7948145866394045,
		-2.287944793701172,
		-5.296333312988281],
		"count":34728,
		"byteOffset":0,
		"max":[3.7882139682769777,
		1.3642948865890504,
		2.2866950035095217]
	},
	{
		"bufferView":5,
		"type":"VEC3",
		"componentType":5126,
		"min":[-1.0,
		-1.0,
		-1.0],
		"count":34728,
		"byteOffset":12,
		"max":[1.0,
		1.0,
		0.9999688267707825]
	},
	{
		"bufferView":5,
		"type":"VEC2",
		"componentType":5126,
		"min":[0.0,
		0.0],
		"count":34728,
		"byteOffset":24,
		"max":[1.0,
		1.0]
	},
	{
		"bufferView":6,
		"type":"SCALAR",
		"componentType":5123,
		"min":[0],
		"count":36864,
		"byteOffset":0,
		"max":[6551]
	},
	{
		"bufferView":7,
		"type":"VEC3",
		"componentType":5126,
		"min":[-2.774655342102051,
		-2.2219603061676027,
		-4.276174068450928],
		"count":6552,
		"byteOffset":0,
		"max":[2.768054485321045,
		1.1699155569076539,
		1.266535758972168]
	},
	{
		"bufferView":7,
		"type":"VEC3",
		"componentType":5126,
		"min":[-1.0,
		-1.0,
		-1.0],
		"count":6552,
		"byteOffset":12,
		"max":[1.0,
		0.9999688267707825,
		1.0]
	},
	{
		"bufferView":7,
		"type":"VEC2",
		"componentType":5126,
		"min":[0.0,
		0.0],
		"count":6552,
		"byteOffset":24,
		"max":[1.0,
		1.0]
	}],
	"bufferViews":[{
		"buffer":0,
		"byteOffset":0,
		"byteLength":3168,
		"target":34963
	},
	{
		"buffer":0,
		"byteOffset":3168,
		"byteLength":10336,
		"target":34962,
		"byteStride":32
	},
	{
		"buffer":1,
		"byteOffset":0,
		"byteLength":780,
		"target":34963
	},
	{
		"buffer":1,
		"byteOffset":780,
		"byteLength":6016,
		"target":34962,
		"byteStride":32
	},
	{
		"buffer":2,
		"byteOffset":0,
		"byteLength":322560,
		"target":34963
	},
	{
		"buffer":2,
		"byteOffset":322560,
		"byteLength":1111296,
		"target":34962,
		"byteStride":32
	},
	{
		"buffer":3,
		"byteOffset":0,
		"byteLength":73728,
		"target":34963
	},
	{
		"buffer":3,
		"byteOffset":73728,
		"byteLength":209664,
		"target":34962,
		"byteStride":32
	}],
	"buffers":[{
		"uri":"data:application/octet-stream;base64,",
		"byteLength":13504
	},
	{
		"uri":"data:application/octet-stream;base64,",
		"byteLength":6796
	},
	{
		"uri":"data:application/octet-stream;base64,",
		"byteLength":1433856
	},
	{
		"uri":"data:application/octet-stream;base64,",
		"byteLength":283392
	}],
	"materials":[{
		"pbrMetallicRoughness":{
			"baseColorFactor":[0.996078431372549,
			0.685301960784315,
			0.27890196078431375,
			1.0],
			"metallicFactor":0.3,
			"roughnessFactor":0.3
		},
		"emissiveFactor":[0.0,
		0.0,
		0.0],
		"alphaMode":"OPAQUE",
		"doubleSided":true,
		"name":"PBR"
	},
	{
		"pbrMetallicRoughness":{
			"baseColorFactor":[0.10439999999999999,
			0.3856408163265306,
			0.87,
			1.0],
			"metallicFactor":0.3,
			"roughnessFactor":0.3
		},
		"emissiveFactor":[0.0,
		0.0,
		0.0],
		"alphaMode":"OPAQUE",
		"doubleSided":true,
		"name":"PBR.2"
	},
	{
		"pbrMetallicRoughness":{
			"baseColorFactor":[0.74,
			0.12402234636871512,
			0.1446927374301674,
			1.0],
			"metallicFactor":0.3,
			"roughnessFactor":0.3
		},
		"emissiveFactor":[0.0,
		0.0,
		0.0],
		"alphaMode":"OPAQUE",
		"doubleSided":true,
		"name":"PBR.1"
	}]
}