{
	"asset":{
		"version":"2.0",
		"generator":"Created using the official Cinema 4D glTF Exporter 1.000x284978"
	},
	"scenes":[{
		"nodes":[0]
	}],
	"nodes":[{
		"name":"headset1",
		"translation":[2.1669209003448488,
		0.207956463098526,
		2.9787521362304689],
		"rotation":[0.0,
		0.0,
		0.0,
		-1.0],
		"scale":[1.0,
		1.0,
		1.0],
		"mesh":0
	}],
	"meshes":[{
		"name":"headset1",
		"primitives":[{
			"attributes":{
				"POSITION":1,
				"NORMAL":2,
				"TEXCOORD_0":3
			},
			"indices":0,
			"material":0
		}]
	}],
	"accessors":[{
		"bufferView":0,
		"type":"SCALAR",
		"componentType":5123,
		"min":[0],
		"count":122352,
		"byteOffset":0,
		"max":[23364]
	},
	{
		"bufferView":1,
		"type":"VEC3",
		"componentType":5126,
		"min":[-6.743576526641846,
		-10.31847095489502,
		-3.3951809406280519],
		"count":23365,
		"byteOffset":0,
		"max":[2.4097349643707277,
		1.3893259763717652,
		0.27723070979118349]
	},
	{
		"bufferView":1,
		"type":"VEC3",
		"componentType":5126,
		"min":[-0.99996417760849,
		-0.9995478987693787,
		-0.9994707107543945],
		"count":23365,
		"byteOffset":12,
		"max":[0.9999639987945557,
		0.9998297691345215,
		0.9995046257972717]
	},
	{
		"bufferView":1,
		"type":"VEC2",
		"componentType":5126,
		"min":[0.0,
		0.0],
		"count":23365,
		"byteOffset":24,
		"max":[1.0,
		1.0]
	}],
	"bufferViews":[{
		"buffer":0,
		"byteOffset":0,
		"byteLength":244704,
		"target":34963
	},
	{
		"buffer":0,
		"byteOffset":244704,
		"byteLength":747680,
		"target":34962,
		"byteStride":32
	}],
	"buffers":[{
		"uri":"data:application/octet-stream;base64,",
		"byteLength":992384
	}],
	"materials":[{
		"pbrMetallicRoughness":{
			"baseColorFactor":[0.06,
			0.06,
			0.06,
			1.0],
			"metallicFactor":0.3,
			"roughnessFactor":0.3
		},
		"emissiveFactor":[0.0,
		0.0,
		0.0],
		"alphaMode":"OPAQUE",
		"doubleSided":true,
		"name":"PBR"
	}]
}