{
	"asset":{
		"version":"2.0",
		"generator":"Created using the official Cinema 4D glTF Exporter 1.000x284978"
	},
	"scenes":[{
		"nodes":[0]
	}],
	"nodes":[{
		"name":"hat05",
		"translation":[0.7926498055458069,
		4.17710018157959,
		2.642306089401245],
		"children":[1,
		2,
		3,
		4,
		5],
		"rotation":[0.0,
		0.0,
		0.0,
		-1.0],
		"scale":[1.0,
		1.0,
		1.0]
	},
	{
		"name":"hat05-PBR.1",
		"mesh":0
	},
	{
		"name":"hat05-PBR",
		"mesh":1
	},
	{
		"name":"hat05-PBR",
		"mesh":2
	},
	{
		"name":"hat05-PBR.2",
		"mesh":3
	},
	{
		"name":"hat05-PBR.2",
		"mesh":4
	}],
	"meshes":[{
		"name":"hat05-PBR.1",
		"primitives":[{
			"attributes":{
				"POSITION":1,
				"NORMAL":2,
				"TEXCOORD_0":3
			},
			"indices":0,
			"material":0
		}]
	},
	{
		"name":"hat05-PBR",
		"primitives":[{
			"attributes":{
				"POSITION":5,
				"NORMAL":6,
				"TEXCOORD_0":7
			},
			"indices":4,
			"material":1
		}]
	},
	{
		"name":"hat05-PBR",
		"primitives":[{
			"attributes":{
				"POSITION":9,
				"NORMAL":10,
				"TEXCOORD_0":11
			},
			"indices":8,
			"material":1
		}]
	},
	{
		"name":"hat05-PBR.2",
		"primitives":[{
			"attributes":{
				"POSITION":13,
				"NORMAL":14,
				"TEXCOORD_0":15
			},
			"indices":12,
			"material":2
		}]
	},
	{
		"name":"hat05-PBR.2",
		"primitives":[{
			"attributes":{
				"POSITION":17,
				"NORMAL":18,
				"TEXCOORD_0":19
			},
			"indices":16,
			"material":2
		}]
	}],
	"accessors":[{
		"bufferView":0,
		"type":"SCALAR",
		"componentType":5123,
		"count":2304,
		"byteOffset":0,
		"min":[0],
		"max":[464]
	},
	{
		"bufferView":1,
		"type":"VEC3",
		"componentType":5126,
		"count":465,
		"byteOffset":0,
		"min":[-0.5753538012504578,
		-1.4486465454101563,
		0.178077831864357],
		"max":[1.0947868824005128,
		0.28687340021133425,
		0.8436017632484436]
	},
	{
		"bufferView":1,
		"type":"VEC3",
		"componentType":5126,
		"count":465,
		"byteOffset":12,
		"min":[-0.9435625672340393,
		-0.9780625700950623,
		-0.3814375102519989],
		"max":[0.995093822479248,
		0.9959688186645508,
		0.9982500672340393]
	},
	{
		"bufferView":1,
		"type":"VEC2",
		"componentType":5126,
		"count":465,
		"byteOffset":24,
		"min":[0.0,
		0.0],
		"max":[1.0,
		1.0]
	},
	{
		"bufferView":2,
		"type":"SCALAR",
		"componentType":5123,
		"count":3456,
		"byteOffset":0,
		"min":[0],
		"max":[646]
	},
	{
		"bufferView":3,
		"type":"VEC3",
		"componentType":5126,
		"count":647,
		"byteOffset":0,
		"min":[-0.7203481197357178,
		-1.5683155059814454,
		0.010200255550444126],
		"max":[1.18440842628479,
		0.393061101436615,
		0.8714427947998047]
	},
	{
		"bufferView":3,
		"type":"VEC3",
		"componentType":5126,
		"count":647,
		"byteOffset":12,
		"min":[-0.9435625672340393,
		-0.9780625700950623,
		-0.3815000057220459],
		"max":[0.9971563220024109,
		0.9955000281333923,
		0.9982500672340393]
	},
	{
		"bufferView":3,
		"type":"VEC2",
		"componentType":5126,
		"count":647,
		"byteOffset":24,
		"min":[0.0,
		0.0],
		"max":[1.0,
		1.0]
	},
	{
		"bufferView":4,
		"type":"SCALAR",
		"componentType":5123,
		"count":3024,
		"byteOffset":0,
		"min":[0],
		"max":[750]
	},
	{
		"bufferView":5,
		"type":"VEC3",
		"componentType":5126,
		"count":751,
		"byteOffset":0,
		"min":[-4.325723171234131,
		-2.5219645500183107,
		-6.032593250274658],
		"max":[3.0097429752349855,
		-1.090370774269104,
		3.158344030380249]
	},
	{
		"bufferView":5,
		"type":"VEC3",
		"componentType":5126,
		"count":751,
		"byteOffset":12,
		"min":[-0.9991875290870667,
		-0.9998750686645508,
		-0.9810000658035278],
		"max":[0.9969375729560852,
		0.9992188215255737,
		0.9310938119888306]
	},
	{
		"bufferView":5,
		"type":"VEC2",
		"componentType":5126,
		"count":751,
		"byteOffset":24,
		"min":[0.0,
		0.0],
		"max":[1.0,
		1.0]
	},
	{
		"bufferView":6,
		"type":"SCALAR",
		"componentType":5123,
		"count":28320,
		"byteOffset":0,
		"min":[0],
		"max":[5902]
	},
	{
		"bufferView":7,
		"type":"VEC3",
		"componentType":5126,
		"count":5903,
		"byteOffset":0,
		"min":[-4.325723171234131,
		-2.5219645500183107,
		-6.032593250274658],
		"max":[2.9130983352661135,
		2.314945936203003,
		3.242013692855835]
	},
	{
		"bufferView":7,
		"type":"VEC3",
		"componentType":5126,
		"count":5903,
		"byteOffset":12,
		"min":[-0.9994375705718994,
		-0.9998750686645508,
		-0.9993438124656677],
		"max":[0.9995625615119934,
		0.9991875290870667,
		0.9993438124656677]
	},
	{
		"bufferView":7,
		"type":"VEC2",
		"componentType":5126,
		"count":5903,
		"byteOffset":24,
		"min":[0.0,
		0.0],
		"max":[1.0,
		1.0]
	},
	{
		"bufferView":8,
		"type":"SCALAR",
		"componentType":5123,
		"count":24024,
		"byteOffset":0,
		"min":[0],
		"max":[4388]
	},
	{
		"bufferView":9,
		"type":"VEC3",
		"componentType":5126,
		"count":4389,
		"byteOffset":0,
		"min":[-0.07813608646392822,
		-1.2704769372940064,
		0.43207022547721865],
		"max":[0.8029474020004273,
		0.21800893545150758,
		0.8175529837608337]
	},
	{
		"bufferView":9,
		"type":"VEC3",
		"componentType":5126,
		"count":4389,
		"byteOffset":12,
		"min":[-0.9986875653266907,
		-0.9966250658035278,
		-0.999125063419342],
		"max":[0.9993438124656677,
		0.9986875653266907,
		0.9998750686645508]
	},
	{
		"bufferView":9,
		"type":"VEC2",
		"componentType":5126,
		"count":4389,
		"byteOffset":24,
		"min":[0.0,
		0.0],
		"max":[0.0,
		0.0]
	}],
	"bufferViews":[{
		"buffer":0,
		"byteOffset":0,
		"byteLength":4608,
		"target":34963
	},
	{
		"buffer":0,
		"byteOffset":4608,
		"byteLength":14880,
		"target":34962,
		"byteStride":32
	},
	{
		"buffer":1,
		"byteOffset":0,
		"byteLength":6912,
		"target":34963
	},
	{
		"buffer":1,
		"byteOffset":6912,
		"byteLength":20704,
		"target":34962,
		"byteStride":32
	},
	{
		"buffer":2,
		"byteOffset":0,
		"byteLength":6048,
		"target":34963
	},
	{
		"buffer":2,
		"byteOffset":6048,
		"byteLength":24032,
		"target":34962,
		"byteStride":32
	},
	{
		"buffer":3,
		"byteOffset":0,
		"byteLength":56640,
		"target":34963
	},
	{
		"buffer":3,
		"byteOffset":56640,
		"byteLength":188896,
		"target":34962,
		"byteStride":32
	},
	{
		"buffer":4,
		"byteOffset":0,
		"byteLength":48048,
		"target":34963
	},
	{
		"buffer":4,
		"byteOffset":48048,
		"byteLength":140448,
		"target":34962,
		"byteStride":32
	}],
	"buffers":[{
		"uri":"data:application/octet-stream;base64,",
		"byteLength":19488
	},
	{
		"uri":"data:application/octet-stream;base64,",
		"byteLength":27616
	},
	{
		"uri":"data:application/octet-stream;base64,",
		"byteLength":30080
	},
	{
		"uri":"data:application/octet-stream;base64,",
		"byteLength":245536
	},
	{
		"uri":"data:application/octet-stream;base64,",
		"byteLength":188496
	}],
	"materials":[{
		"pbrMetallicRoughness":{
			"baseColorFactor":[0.08,
			0.08,
			0.08,
			1.0],
			"metallicFactor":0.3,
			"roughnessFactor":0.3
		},
		"emissiveFactor":[0.0,
		0.0,
		0.0],
		"alphaMode":"OPAQUE",
		"doubleSided":true,
		"name":"PBR.1"
	},
	{
		"pbrMetallicRoughness":{
			"baseColorFactor":[1.0,
			0.19215686274509803,
			0.16078431372549019,
			1.0],
			"metallicFactor":0.3,
			"roughnessFactor":0.3
		},
		"emissiveFactor":[0.0,
		0.0,
		0.0],
		"alphaMode":"OPAQUE",
		"doubleSided":true,
		"name":"PBR"
	},
	{
		"pbrMetallicRoughness":{
			"baseColorFactor":[1.0,
			0.9921568627450981,
			1.0,
			1.0],
			"metallicFactor":0.3,
			"roughnessFactor":0.3
		},
		"emissiveFactor":[0.0,
		0.0,
		0.0],
		"alphaMode":"OPAQUE",
		"doubleSided":true,
		"name":"PBR.2"
	}]
}