{
	"asset":{
		"version":"2.0",
		"generator":"Created using the official Cinema 4D glTF Exporter 1.000x284978"
	},
	"scenes":[{
		"nodes":[0]
	}],
	"nodes":[{
		"name":"hat6",
		"translation":[-0.01441923063248396,
		4.743322372436523,
		-0.041616734117269519],
		"rotation":[0.0,
		0.0,
		0.0,
		-1.0],
		"scale":[1.0,
		1.0,
		1.0],
		"children":[1,
		2,
		3]
	},
	{
		"name":"hat6-PBR",
		"mesh":0
	},
	{
		"name":"hat6-PBR.1",
		"mesh":1
	},
	{
		"name":"hat6-PBR",
		"mesh":2
	}],
	"meshes":[{
		"name":"hat6-PBR",
		"primitives":[{
			"attributes":{
				"POSITION":1,
				"NORMAL":2,
				"TEXCOORD_0":3
			},
			"indices":0,
			"material":0
		}]
	},
	{
		"name":"hat6-PBR.1",
		"primitives":[{
			"attributes":{
				"POSITION":5,
				"NORMAL":6,
				"TEXCOORD_0":7
			},
			"indices":4,
			"material":1
		}]
	},
	{
		"name":"hat6-PBR",
		"primitives":[{
			"attributes":{
				"POSITION":9,
				"NORMAL":10,
				"TEXCOORD_0":11
			},
			"indices":8,
			"material":2
		}]
	}],
	"accessors":[{
		"bufferView":0,
		"type":"SCALAR",
		"componentType":5123,
		"min":[0],
		"count":18432,
		"byteOffset":0,
		"max":[3466]
	},
	{
		"bufferView":1,
		"type":"VEC3",
		"componentType":5126,
		"min":[-5.846636772155762,
		-2.7507641315460207,
		-6.431878566741943],
		"count":3467,
		"byteOffset":0,
		"max":[5.846636772155762,
		2.595125198364258,
		6.424769401550293]
	},
	{
		"bufferView":1,
		"type":"VEC3",
		"componentType":5126,
		"min":[-0.9999688267707825,
		-0.9997813105583191,
		-0.9999688267707825],
		"count":3467,
		"byteOffset":12,
		"max":[0.9999688267707825,
		0.9998750686645508,
		0.9999688267707825]
	},
	{
		"bufferView":1,
		"type":"VEC2",
		"componentType":5126,
		"min":[0.019145682454109193,
		0.017229855060577394],
		"count":3467,
		"byteOffset":24,
		"max":[0.8364677429199219,
		0.9714925289154053]
	},
	{
		"bufferView":2,
		"type":"SCALAR",
		"componentType":5123,
		"min":[0],
		"count":576,
		"byteOffset":0,
		"max":[210]
	},
	{
		"bufferView":3,
		"type":"VEC3",
		"componentType":5126,
		"min":[2.7252166271209719,
		-1.244696855545044,
		0.031231770291924478],
		"count":211,
		"byteOffset":0,
		"max":[3.124483108520508,
		-0.2220790535211563,
		0.9090102910995483]
	},
	{
		"bufferView":3,
		"type":"VEC3",
		"componentType":5126,
		"min":[-0.9965000748634338,
		-0.9989063143730164,
		-0.4320625066757202],
		"count":211,
		"byteOffset":12,
		"max":[0.9967188239097595,
		0.9989063143730164,
		0.43396878242492678]
	},
	{
		"bufferView":3,
		"type":"VEC2",
		"componentType":5126,
		"min":[0.0,
		0.0],
		"count":211,
		"byteOffset":24,
		"max":[1.0,
		1.0]
	},
	{
		"bufferView":4,
		"type":"SCALAR",
		"componentType":5123,
		"min":[0],
		"count":4152,
		"byteOffset":0,
		"max":[964]
	},
	{
		"bufferView":5,
		"type":"VEC3",
		"componentType":5126,
		"min":[-2.981036901473999,
		-1.3127328157424927,
		-3.341836452484131],
		"count":965,
		"byteOffset":0,
		"max":[2.956894636154175,
		-0.10095100104808808,
		3.426743745803833]
	},
	{
		"bufferView":5,
		"type":"VEC3",
		"componentType":5126,
		"min":[-0.9999688267707825,
		-0.9997813105583191,
		-0.9998750686645508],
		"count":965,
		"byteOffset":12,
		"max":[0.9999688267707825,
		0.7156875133514404,
		0.9998750686645508]
	},
	{
		"bufferView":5,
		"type":"VEC2",
		"componentType":5126,
		"min":[0.0,
		0.0],
		"count":965,
		"byteOffset":24,
		"max":[1.0,
		1.0]
	}],
	"bufferViews":[{
		"buffer":0,
		"byteOffset":0,
		"byteLength":36864,
		"target":34963
	},
	{
		"buffer":0,
		"byteOffset":36864,
		"byteLength":110944,
		"target":34962,
		"byteStride":32
	},
	{
		"buffer":1,
		"byteOffset":0,
		"byteLength":1152,
		"target":34963
	},
	{
		"buffer":1,
		"byteOffset":1152,
		"byteLength":6752,
		"target":34962,
		"byteStride":32
	},
	{
		"buffer":2,
		"byteOffset":0,
		"byteLength":8304,
		"target":34963
	},
	{
		"buffer":2,
		"byteOffset":8304,
		"byteLength":30880,
		"target":34962,
		"byteStride":32
	}],
	"buffers":[{
		"uri":"data:application/octet-stream;base64,",
		"byteLength":147808
	},
	{
		"uri":"data:application/octet-stream;base64,",
		"byteLength":7904
	},
	{
		"uri":"data:application/octet-stream;base64,",
		"byteLength":39184
	}],
	"materials":[{
		"pbrMetallicRoughness":{
			"baseColorFactor":[0.55,
			0.10671641791044777,
			0.12723880597014945,
			1.0],
			"metallicFactor":0.3,
			"roughnessFactor":0.3
		},
		"emissiveFactor":[0.0,
		0.0,
		0.0],
		"alphaMode":"OPAQUE",
		"doubleSided":true,
		"name":"PBR"
	},
	{
		"pbrMetallicRoughness":{
			"baseColorFactor":[0.05,
			0.0381057268722467,
			0.04383259911894275,
			1.0],
			"metallicFactor":0.3,
			"roughnessFactor":0.3
		},
		"emissiveFactor":[0.0,
		0.0,
		0.0],
		"alphaMode":"OPAQUE",
		"doubleSided":true,
		"name":"PBR.1"
	},
	{
		"pbrMetallicRoughness":{
			"baseColorFactor":[0.1411764705882353,
			0.3686274509803922,
			0.4117647058823529,
			1.0],
			"metallicFactor":0.3,
			"roughnessFactor":0.3
		},
		"emissiveFactor":[0.0,
		0.0,
		0.0],
		"alphaMode":"OPAQUE",
		"doubleSided":true,
		"name":"PBR"
	}]
}