{
	"asset":{
		"version":"2.0",
		"generator":"Created using the official Cinema 4D glTF Exporter 1.000x284978"
	},
	"scenes":[{
		"nodes":[0]
	}],
	"nodes":[{
		"scale":[1.0,
		1.0,
		1.0],
		"name":"hair6",
		"rotation":[0.0,
		0.0,
		0.0,
		-1.0],
		"translation":[0.2031673640012741,
		3.6948108673095705,
		-0.002841405803337693],
		"mesh":0
	}],
	"materials":[{
		"pbrMetallicRoughness":{
			"baseColorFactor":[0.5098039215686274,
			0.22352941176470587,
			0.03137254901960784,
			1.0],
			"metallicFactor":0.2,
			"roughnessFactor":0.35000000000000006
		},
		"emissiveFactor":[0.0,
		0.0,
		0.0],
		"alphaMode":"OPAQUE",
		"doubleSided":true,
		"name":"PBR"
	}],
	"meshes":[{
		"name":"hair6",
		"primitives":[{
			"attributes":{
				"POSITION":1,
				"NORMAL":2,
				"TEXCOORD_0":3
			},
			"indices":0,
			"material":0
		}]
	}],
	"accessors":[{
		"bufferView":0,
		"type":"SCALAR",
		"componentType":5123,
		"count":106716,
		"byteOffset":0,
		"min":[0],
		"max":[20806]
	},
	{
		"bufferView":1,
		"type":"VEC3",
		"componentType":5126,
		"count":20807,
		"byteOffset":0,
		"min":[-3.5369620323181154,
		-2.3971190452575685,
		-3.548781633377075],
		"max":[3.13032865524292,
		2.5405280590057375,
		3.2571332454681398]
	},
	{
		"bufferView":1,
		"type":"VEC3",
		"componentType":5126,
		"count":20807,
		"byteOffset":12,
		"min":[-0.999865710735321,
		-0.9999932050704956,
		-0.9999631643295288],
		"max":[0.9998658895492554,
		0.9999421238899231,
		0.9996436834335327]
	},
	{
		"bufferView":1,
		"type":"VEC2",
		"componentType":5126,
		"count":20807,
		"byteOffset":24,
		"min":[0.0,
		0.0],
		"max":[1.0,
		1.0]
	}],
	"bufferViews":[{
		"buffer":0,
		"byteOffset":0,
		"byteLength":213432,
		"target":34963
	},
	{
		"buffer":0,
		"byteOffset":213432,
		"byteLength":665824,
		"target":34962,
		"byteStride":32
	}],
	"buffers":[{
		"uri":"data:application/octet-stream;base64,",
		"byteLength":879256
	}]
}