{
	"asset":{
		"version":"2.0",
		"generator":"Created using the official Cinema 4D glTF Exporter 1.000x284978"
	},
	"scenes":[{
		"nodes":[0]
	}],
	"nodes":[{
		"name":"Headband1",
		"translation":[0.057677317410707477,
		3.4808120727539064,
		1.3713936805725098],
		"rotation":[0.0,
		0.0,
		0.0,
		-1.0],
		"scale":[1.0,
		1.0,
		1.0],
		"children":[1,
		2]
	},
	{
		"name":"Headband1-PBR.1",
		"mesh":0
	},
	{
		"name":"Headband1-PBR",
		"mesh":1
	}],
	"meshes":[{
		"name":"Headband1-PBR.1",
		"primitives":[{
			"attributes":{
				"POSITION":1,
				"NORMAL":2,
				"TEXCOORD_0":3
			},
			"indices":0,
			"material":0
		}]
	},
	{
		"name":"Headband1-PBR",
		"primitives":[{
			"attributes":{
				"POSITION":5,
				"NORMAL":6,
				"TEXCOORD_0":7
			},
			"indices":4,
			"material":1
		}]
	}],
	"accessors":[{
		"bufferView":0,
		"type":"SCALAR",
		"componentType":5123,
		"min":[0],
		"count":6144,
		"byteOffset":0,
		"max":[1087]
	},
	{
		"bufferView":1,
		"type":"VEC3",
		"componentType":5126,
		"min":[-3.2523410320281984,
		-0.8617085218429565,
		-4.629047393798828],
		"count":1088,
		"byteOffset":0,
		"max":[3.136986494064331,
		0.10044091194868088,
		1.7602797746658326]
	},
	{
		"bufferView":1,
		"type":"VEC3",
		"componentType":5126,
		"min":[-0.9774063229560852,
		-1.0,
		-0.9774063229560852],
		"count":1088,
		"byteOffset":12,
		"max":[0.9774063229560852,
		1.0,
		0.9774063229560852]
	},
	{
		"bufferView":1,
		"type":"VEC2",
		"componentType":5126,
		"min":[0.027686674147844316,
		-2.220446049250313e-16],
		"count":1088,
		"byteOffset":24,
		"max":[0.972313404083252,
		1.0]
	},
	{
		"bufferView":2,
		"type":"SCALAR",
		"componentType":5123,
		"min":[0],
		"count":63600,
		"byteOffset":0,
		"max":[10617]
	},
	{
		"bufferView":3,
		"type":"VEC3",
		"componentType":5126,
		"min":[-0.9780268669128418,
		-0.6748343110084534,
		1.0896215438842774],
		"count":10618,
		"byteOffset":0,
		"max":[1.0874114036560059,
		0.062047798186540607,
		1.7687543630599976]
	},
	{
		"bufferView":3,
		"type":"VEC3",
		"componentType":5126,
		"min":[-0.9998750686645508,
		-0.9998750686645508,
		-0.9973750710487366],
		"count":10618,
		"byteOffset":12,
		"max":[0.9998437762260437,
		0.9998750686645508,
		0.9999688267707825]
	},
	{
		"bufferView":3,
		"type":"VEC2",
		"componentType":5126,
		"min":[0.0,
		0.0],
		"count":10618,
		"byteOffset":24,
		"max":[0.0,
		0.0]
	}],
	"bufferViews":[{
		"buffer":0,
		"byteOffset":0,
		"byteLength":12288,
		"target":34963
	},
	{
		"buffer":0,
		"byteOffset":12288,
		"byteLength":34816,
		"target":34962,
		"byteStride":32
	},
	{
		"buffer":1,
		"byteOffset":0,
		"byteLength":127200,
		"target":34963
	},
	{
		"buffer":1,
		"byteOffset":127200,
		"byteLength":339776,
		"target":34962,
		"byteStride":32
	}],
	"buffers":[{
		"uri":"data:application/octet-stream;base64,",
		"byteLength":47104
	},
	{
		"uri":"data:application/octet-stream;base64,",
		"byteLength":466976
	}],
	"materials":[{
		"pbrMetallicRoughness":{
			"baseColorFactor":[0.9137254901960784,
			0.396078431372549,
			0.16470588235294116,
			1.0],
			"metallicFactor":0.3,
			"roughnessFactor":0.3
		},
		"emissiveFactor":[0.0,
		0.0,
		0.0],
		"alphaMode":"OPAQUE",
		"doubleSided":true,
		"name":"PBR.1"
	},
	{
		"pbrMetallicRoughness":{
			"baseColorFactor":[0.96,
			0.9287111111111112,
			0.1152,
			1.0],
			"metallicFactor":0.3,
			"roughnessFactor":0.3
		},
		"emissiveFactor":[0.0,
		0.0,
		0.0],
		"alphaMode":"OPAQUE",
		"doubleSided":true,
		"name":"PBR"
	}]
}