{
	"asset":{
		"version":"2.0",
		"generator":"Created using the official Cinema 4D glTF Exporter 1.000x284978"
	},
	"scenes":[{
		"nodes":[0]
	}],
	"nodes":[{
		"name":"hat2",
		"translation":[0.03068314865231514,
		8.509967803955079,
		0.06091500073671341],
		"rotation":[0.0,
		0.0,
		0.0,
		-1.0],
		"scale":[1.0,
		1.0,
		1.0],
		"children":[1,
		2,
		3]
	},
	{
		"name":"hat2-PBR",
		"mesh":0
	},
	{
		"name":"hat2-PBR.1",
		"mesh":1
	},
	{
		"name":"hat2-PBR.2",
		"mesh":2
	}],
	"meshes":[{
		"name":"hat2-PBR",
		"primitives":[{
			"attributes":{
				"POSITION":1,
				"NORMAL":2,
				"TEXCOORD_0":3
			},
			"indices":0,
			"material":0
		}]
	},
	{
		"name":"hat2-PBR.1",
		"primitives":[{
			"attributes":{
				"POSITION":5,
				"NORMAL":6,
				"TEXCOORD_0":7
			},
			"indices":4,
			"material":1
		}]
	},
	{
		"name":"hat2-PBR.2",
		"primitives":[{
			"attributes":{
				"POSITION":9,
				"NORMAL":10,
				"TEXCOORD_0":11
			},
			"indices":8,
			"material":2
		}]
	}],
	"accessors":[{
		"bufferView":0,
		"type":"SCALAR",
		"componentType":5123,
		"min":[0],
		"count":6912,
		"byteOffset":0,
		"max":[1856]
	},
	{
		"bufferView":1,
		"type":"VEC3",
		"componentType":5126,
		"min":[-3.0976030826568605,
		-5.12903356552124,
		-3.1278347969055177],
		"count":1857,
		"byteOffset":0,
		"max":[3.0362367630004885,
		0.8345912098884583,
		3.006004810333252]
	},
	{
		"bufferView":1,
		"type":"VEC3",
		"componentType":5126,
		"min":[-0.9989063143730164,
		0.04584375396370888,
		-0.9989063143730164],
		"count":1857,
		"byteOffset":12,
		"max":[0.9989063143730164,
		0.9626563191413879,
		0.9989063143730164]
	},
	{
		"bufferView":1,
		"type":"VEC2",
		"componentType":5126,
		"min":[0.0,
		0.0],
		"count":1857,
		"byteOffset":24,
		"max":[1.0,
		1.0]
	},
	{
		"bufferView":2,
		"type":"SCALAR",
		"componentType":5123,
		"min":[0],
		"count":10368,
		"byteOffset":0,
		"max":[2939]
	},
	{
		"bufferView":3,
		"type":"VEC3",
		"componentType":5126,
		"min":[-3.23966383934021,
		-5.555006504058838,
		-3.2698957920074465],
		"count":2940,
		"byteOffset":0,
		"max":[3.178297519683838,
		0.7813447713851929,
		3.1480658054351808]
	},
	{
		"bufferView":3,
		"type":"VEC3",
		"componentType":5126,
		"min":[-1.0,
		-1.0,
		-1.0],
		"count":2940,
		"byteOffset":12,
		"max":[1.0,
		0.5138750076293945,
		1.0]
	},
	{
		"bufferView":3,
		"type":"VEC2",
		"componentType":5126,
		"min":[0.0,
		0.0],
		"count":2940,
		"byteOffset":24,
		"max":[1.0,
		1.0]
	},
	{
		"bufferView":4,
		"type":"SCALAR",
		"componentType":5123,
		"min":[0],
		"count":3024,
		"byteOffset":0,
		"max":[803]
	},
	{
		"bufferView":5,
		"type":"VEC3",
		"componentType":5126,
		"min":[-1.779545545578003,
		-0.043420709669589999,
		-2.2172577381134035],
		"count":804,
		"byteOffset":0,
		"max":[2.199413776397705,
		2.115823984146118,
		1.3949092626571656]
	},
	{
		"bufferView":5,
		"type":"VEC3",
		"componentType":5126,
		"min":[-0.9965313076972961,
		-0.9973437786102295,
		-0.9984375238418579],
		"count":804,
		"byteOffset":12,
		"max":[0.9874375462532044,
		0.9835625290870667,
		0.998343825340271]
	},
	{
		"bufferView":5,
		"type":"VEC2",
		"componentType":5126,
		"min":[0.0,
		0.0],
		"count":804,
		"byteOffset":24,
		"max":[1.0,
		1.0]
	}],
	"bufferViews":[{
		"buffer":0,
		"byteOffset":0,
		"byteLength":13824,
		"target":34963
	},
	{
		"buffer":0,
		"byteOffset":13824,
		"byteLength":59424,
		"target":34962,
		"byteStride":32
	},
	{
		"buffer":1,
		"byteOffset":0,
		"byteLength":20736,
		"target":34963
	},
	{
		"buffer":1,
		"byteOffset":20736,
		"byteLength":94080,
		"target":34962,
		"byteStride":32
	},
	{
		"buffer":2,
		"byteOffset":0,
		"byteLength":6048,
		"target":34963
	},
	{
		"buffer":2,
		"byteOffset":6048,
		"byteLength":25728,
		"target":34962,
		"byteStride":32
	}],
	"buffers":[{
		"uri":"data:application/octet-stream;base64,",
		"byteLength":73248
	},
	{
		"uri":"data:application/octet-stream;base64,",
		"byteLength":114816
	},
	{
		"uri":"data:application/octet-stream;base64,",
		"byteLength":31776
	}],
	"materials":[{
		"pbrMetallicRoughness":{
			"baseColorFactor":[0.8392156862745095,
			0.35294117647058828,
			0.9137254901960784,
			1.0],
			"metallicFactor":0.3,
			"roughnessFactor":0.3
		},
		"emissiveFactor":[0.0,
		0.0,
		0.0],
		"alphaMode":"OPAQUE",
		"doubleSided":true,
		"name":"PBR"
	},
	{
		"pbrMetallicRoughness":{
			"baseColorFactor":[0.8431372549019608,
			0.8431372549019608,
			0.8431372549019608,
			1.0],
			"metallicFactor":0.3,
			"roughnessFactor":0.3
		},
		"emissiveFactor":[0.0,
		0.0,
		0.0],
		"alphaMode":"OPAQUE",
		"doubleSided":true,
		"name":"PBR.1"
	},
	{
		"pbrMetallicRoughness":{
			"baseColorFactor":[0.8901960784313725,
			0.6784313725490196,
			0.7803921568627452,
			1.0],
			"metallicFactor":0.3,
			"roughnessFactor":0.3
		},
		"emissiveFactor":[0.0,
		0.0,
		0.0],
		"alphaMode":"OPAQUE",
		"doubleSided":true,
		"name":"PBR.2"
	}]
}