{
	"asset":{
		"version":"2.0",
		"generator":"Created using the official Cinema 4D glTF Exporter 1.000x284978"
	},
	"scenes":[{
		"nodes":[0]
	}],
	"nodes":[{
		"scale":[1.0,
		1.0,
		1.0],
		"name":"hair5",
		"rotation":[0.0,
		0.0,
		0.0,
		-1.0],
		"translation":[-0.46756884455680849,
		2.184298276901245,
		0.9270537495613098],
		"mesh":0
	}],
	"materials":[{
		"pbrMetallicRoughness":{
			"baseColorFactor":[0.08627450980392157,
			0.07450980392156863,
			0.06666666666666667,
			1.0],
			"metallicFactor":0.2,
			"roughnessFactor":0.35000000000000006
		},
		"emissiveFactor":[0.0,
		0.0,
		0.0],
		"alphaMode":"OPAQUE",
		"doubleSided":true,
		"name":"PBR"
	}],
	"meshes":[{
		"name":"hair5",
		"primitives":[{
			"attributes":{
				"POSITION":1,
				"NORMAL":2,
				"TEXCOORD_0":3
			},
			"indices":0,
			"material":0
		}]
	}],
	"accessors":[{
		"bufferView":0,
		"type":"SCALAR",
		"componentType":5123,
		"count":156924,
		"byteOffset":0,
		"min":[0],
		"max":[30545]
	},
	{
		"bufferView":1,
		"type":"VEC3",
		"componentType":5126,
		"count":30546,
		"byteOffset":0,
		"min":[-5.091215133666992,
		-5.3694987297058109,
		-4.478676795959473],
		"max":[4.747549057006836,
		5.0201592445373539,
		3.015974760055542]
	},
	{
		"bufferView":1,
		"type":"VEC3",
		"componentType":5126,
		"count":30546,
		"byteOffset":12,
		"min":[-1.0,
		-1.0,
		-1.0],
		"max":[1.0,
		1.0,
		1.0]
	},
	{
		"bufferView":1,
		"type":"VEC2",
		"componentType":5126,
		"count":30546,
		"byteOffset":24,
		"min":[0.0,
		0.0],
		"max":[1.0,
		1.0]
	}],
	"bufferViews":[{
		"buffer":0,
		"byteOffset":0,
		"byteLength":313848,
		"target":34963
	},
	{
		"buffer":0,
		"byteOffset":313848,
		"byteLength":977472,
		"target":34962,
		"byteStride":32
	}],
	"buffers":[{
		"uri":"data:application/octet-stream;base64,",
		"byteLength":1291320
	}]
}