{
	"asset":{
		"version":"2.0",
		"generator":"Created using the official Cinema 4D glTF Exporter 1.000x284978"
	},
	"scenes":[{
		"nodes":[0]
	}],
	"nodes":[{
		"name":"hat9",
		"translation":[-0.03337244689464569,
		5.017251491546631,
		1.7341912984848023],
		"rotation":[0.0,
		0.0,
		0.0,
		-1.0],
		"scale":[1.0,
		1.0,
		1.0],
		"children":[1,
		2]
	},
	{
		"name":"hat9-PBR.1",
		"mesh":0
	},
	{
		"name":"hat9-PBR",
		"mesh":1
	}],
	"meshes":[{
		"name":"hat9-PBR.1",
		"primitives":[{
			"attributes":{
				"POSITION":1,
				"NORMAL":2,
				"TEXCOORD_0":3
			},
			"indices":0,
			"material":0
		}]
	},
	{
		"name":"hat9-PBR",
		"primitives":[{
			"attributes":{
				"POSITION":5,
				"NORMAL":6,
				"TEXCOORD_0":7
			},
			"indices":4,
			"material":1
		}]
	}],
	"accessors":[{
		"bufferView":0,
		"type":"SCALAR",
		"componentType":5123,
		"min":[0],
		"count":2988,
		"byteOffset":0,
		"max":[1410]
	},
	{
		"bufferView":1,
		"type":"VEC3",
		"componentType":5126,
		"min":[-1.6579313278198243,
		-1.3799264430999756,
		0.40702593326568606],
		"count":1411,
		"byteOffset":0,
		"max":[1.724676251411438,
		1.415471076965332,
		1.2915334701538087]
	},
	{
		"bufferView":1,
		"type":"VEC3",
		"componentType":5126,
		"min":[-0.9956875443458557,
		-0.9578750729560852,
		-0.9835938215255737],
		"count":1411,
		"byteOffset":12,
		"max":[0.9941250681877136,
		0.9578750729560852,
		0.9969375729560852]
	},
	{
		"bufferView":1,
		"type":"VEC2",
		"componentType":5126,
		"min":[0.0,
		0.021891474723815919],
		"count":1411,
		"byteOffset":24,
		"max":[0.99853515625,
		1.0]
	},
	{
		"bufferView":2,
		"type":"SCALAR",
		"componentType":5123,
		"min":[0],
		"count":66240,
		"byteOffset":0,
		"max":[11510]
	},
	{
		"bufferView":3,
		"type":"VEC3",
		"componentType":5126,
		"min":[-2.8874552249908449,
		-1.8892067670822144,
		-4.6550188064575199],
		"count":11511,
		"byteOffset":0,
		"max":[2.954200029373169,
		1.253598690032959,
		1.1866363286972047]
	},
	{
		"bufferView":3,
		"type":"VEC3",
		"componentType":5126,
		"min":[-1.0,
		-0.9999688267707825,
		-1.0],
		"count":11511,
		"byteOffset":12,
		"max":[1.0,
		0.9999688267707825,
		1.0]
	},
	{
		"bufferView":3,
		"type":"VEC2",
		"componentType":5126,
		"min":[0.0,
		0.0],
		"count":11511,
		"byteOffset":24,
		"max":[1.0,
		1.0]
	}],
	"bufferViews":[{
		"buffer":0,
		"byteOffset":0,
		"byteLength":5976,
		"target":34963
	},
	{
		"buffer":0,
		"byteOffset":5976,
		"byteLength":45152,
		"target":34962,
		"byteStride":32
	},
	{
		"buffer":1,
		"byteOffset":0,
		"byteLength":132480,
		"target":34963
	},
	{
		"buffer":1,
		"byteOffset":132480,
		"byteLength":368352,
		"target":34962,
		"byteStride":32
	}],
	"buffers":[{
		"uri":"data:application/octet-stream;base64,",
		"byteLength":51128
	},
	{
		"uri":"data:application/octet-stream;base64,",
		"byteLength":500832
	}],
	"materials":[{
		"pbrMetallicRoughness":{
			"baseColorFactor":[0.67,
			0.02010000000000002,
			0.040731746031745997,
			1.0],
			"metallicFactor":0.3,
			"roughnessFactor":0.3
		},
		"emissiveFactor":[0.0,
		0.0,
		0.0],
		"alphaMode":"OPAQUE",
		"doubleSided":true,
		"name":"PBR.1"
	},
	{
		"pbrMetallicRoughness":{
			"baseColorFactor":[0.9882352941176471,
			0.7098039215686274,
			0.15294117647058826,
			1.0],
			"metallicFactor":0.3,
			"roughnessFactor":0.3
		},
		"emissiveFactor":[0.0,
		0.0,
		0.0],
		"alphaMode":"OPAQUE",
		"doubleSided":true,
		"name":"PBR"
	}]
}