{
	"asset":{
		"version":"2.0",
		"generator":"Created using the official Cinema 4D glTF Exporter 1.000x284978"
	},
	"scenes":[{
		"nodes":[0]
	}],
	"nodes":[{
		"name":"口罩2",
		"translation":[2.5115368366241457,
		-0.6569892168045044,
		1.9189835786819459],
		"rotation":[0.0,
		0.0,
		0.0,
		-1.0],
		"scale":[1.0,
		1.0,
		1.0],
		"mesh":0
	}],
	"meshes":[{
		"name":"口罩2",
		"primitives":[{
			"attributes":{
				"POSITION":1,
				"NORMAL":2,
				"TEXCOORD_0":3
			},
			"indices":0,
			"material":0
		}]
	}],
	"accessors":[{
		"bufferView":0,
		"type":"SCALAR",
		"componentType":5123,
		"count":23664,
		"byteOffset":0,
		"min":[0],
		"max":[4391]
	},
	{
		"bufferView":1,
		"type":"VEC3",
		"componentType":5126,
		"count":4392,
		"byteOffset":0,
		"min":[-6.682576656341553,
		-2.3948991298675539,
		-4.739837646484375],
		"max":[1.6595031023025513,
		3.2826244831085207,
		2.7149412631988527]
	},
	{
		"bufferView":1,
		"type":"VEC3",
		"componentType":5126,
		"count":4392,
		"byteOffset":12,
		"min":[-0.9961825013160706,
		-0.9990923404693604,
		-0.9998988509178162],
		"max":[0.9961822032928467,
		0.9990923404693604,
		0.9999527931213379]
	},
	{
		"bufferView":1,
		"type":"VEC2",
		"componentType":5126,
		"count":4392,
		"byteOffset":24,
		"min":[0.0,
		0.0],
		"max":[1.0,
		1.0]
	}],
	"bufferViews":[{
		"buffer":0,
		"byteOffset":0,
		"byteLength":47328,
		"target":34963
	},
	{
		"buffer":0,
		"byteOffset":47328,
		"byteLength":140544,
		"target":34962,
		"byteStride":32
	}],
	"buffers":[{
		"uri":"data:application/octet-stream;base64,",
		"byteLength":187872
	}],
	"materials":[{
		"emissiveFactor":[0.0,
		0.0,
		0.0],
		"pbrMetallicRoughness":{
			"baseColorFactor":[0.8,
			0.8,
			0.8,
			1.0],
			"metallicFactor":1.0,
			"roughnessFactor":1.0
		},
		"alphaMode":"OPAQUE",
		"doubleSided":false,
		"name":"PBR"
	}]
}