{
	"nodes":[{
		"name":"Copper wings1",
		"translation":[1.9895919561386109,
		-1.571974754333496,
		-0.6159689426422119],
		"mesh":0,
		"rotation":[0.0,
		0.0,
		0.0,
		-1.0],
		"scale":[1.0,
		1.0,
		1.0]
	}],
	"asset":{
		"version":"2.0",
		"generator":"Created using the official Cinema 4D glTF Exporter 1.000x284978"
	},
	"scenes":[{
		"nodes":[0]
	}],
	"meshes":[{
		"name":"Copper wings1",
		"primitives":[{
			"attributes":{
				"POSITION":1,
				"NORMAL":2
			},
			"indices":0,
			"material":0
		}]
	}],
	"accessors":[{
		"componentType":5123,
		"bufferView":0,
		"type":"SCALAR",
		"count":297648,
		"byteOffset":0,
		"min":[0],
		"max":[52386]
	},
	{
		"componentType":5126,
		"bufferView":1,
		"type":"VEC3",
		"count":52387,
		"byteOffset":0,
		"min":[-14.42694091796875,
		-6.924001216888428,
		-1.9836326837539673],
		"max":[10.44775390625,
		-1.7767412662506104,
		-1.6723132133483887]
	},
	{
		"componentType":5126,
		"bufferView":1,
		"type":"VEC3",
		"count":52387,
		"byteOffset":12,
		"min":[-0.9999918341636658,
		-0.9998961687088013,
		-1.0],
		"max":[0.9999918341636658,
		0.99998939037323,
		1.0]
	}],
	"buffers":[{
		"uri":"data:application/octet-stream;base64,",
		"byteLength":1852584
	}],
	"bufferViews":[{
		"buffer":0,
		"byteOffset":0,
		"byteLength":595296,
		"target":34963
	},
	{
		"buffer":0,
		"byteOffset":595296,
		"byteLength":1257288,
		"byteStride":24,
		"target":34962
	}],
	"materials":[{
		"pbrMetallicRoughness":{
			"baseColorFactor":[0.8509803921568627,
			0.6470588235294118,
			0.23137254901960789,
			1.0],
			"metallicFactor":0.3,
			"roughnessFactor":0.3
		},
		"emissiveFactor":[0.0,
		0.0,
		0.0],
		"alphaMode":"OPAQUE",
		"doubleSided":true,
		"name":"PBR.1"
	}]
}