{
  "asset": {
    "version": "2.0",
    "generator": "THREE.GLTFExporter"
  },
  "scenes": [
    {
      "name": "Scene",
      "nodes": [
        3
      ]
    }
  ],
  "scene": 0,
  "nodes": [
    {
      "name": "身体-PBR_1",
      "extras": {
        "name": "身体-PBR"
      },
      "mesh": 0
    },
    {
      "matrix": [
        1,
        0,
        0,
        0,
        0,
        1,
        0,
        0,
        0,
        0,
        1,
        0,
        1.0458446741104126,
        0.1266276240348816,
        1.2923322916030884,
        1
      ],
      "name": "身体",
      "extras": {
        "name": "身体"
      },
      "children": [
        0
      ]
    },
    {
      "name": "pigbody6gltf",
      "extras": {
        "name": "pigbody6.gltf"
      },
      "children": [
        1
      ]
    },
    {
      "name": "wingsshirtnecklace.gltf",
      "children": [
        2
      ]
    }
  ],
  "bufferViews": [
    {
      "buffer": 0,
      "byteOffset": 0,
      "byteLength": 627660,
      "target": 34962,
      "byteStride": 12
    },
    {
      "buffer": 0,
      "byteOffset": 627660,
      "byteLength": 627660,
      "target": 34962,
      "byteStride": 12
    },
    {
      "buffer": 0,
      "byteOffset": 1255320,
      "byteLength": 418440,
      "target": 34962,
      "byteStride": 8
    },
    {
      "buffer": 0,
      "byteOffset": 1673760,
      "byteLength": 595296,
      "target": 34963
    }
  ],
  "buffers": [
    {
      "byteLength": 2269056,
      "uri": "data:application/octet-stream;base64,"
    }
  ],
  "accessors": [
    {
      "bufferView": 0,
      "componentType": 5126,
      "count": 52305,
      "max": [
        7.846519947052002,
        -3.8372044563293457,
        -3.603358507156372
      ],
      "min": [
        -9.938209533691406,
        -10.285728454589844,
        -3.8583292961120605
      ],
      "type": "VEC3"
    },
    {
      "bufferView": 1,
      "componentType": 5126,
      "count": 52305,
      "max": [
        1,
        0.9999688267707825,
        1
      ],
      "min": [
        -1,
        -0.9999688267707825,
        -1
      ],
      "type": "VEC3"
    },
    {
      "bufferView": 2,
      "componentType": 5126,
      "count": 52305,
      "max": [
        0,
        0
      ],
      "min": [
        0,
        0
      ],
      "type": "VEC2"
    },
    {
      "bufferView": 3,
      "componentType": 5123,
      "count": 297648,
      "max": [
        52304
      ],
      "min": [
        0
      ],
      "type": "SCALAR"
    }
  ],
  "materials": [
    {
      "pbrMetallicRoughness": {
        "baseColorFactor": [
          0.9500000000000001,
          0.9500000000000001,
          0.9500000000000001,
          1
        ],
        "metallicFactor": 0.35000000000000003,
        "roughnessFactor": 0.19
      },
      "doubleSided": true,
      "name": "PBR"
    }
  ],
  "meshes": [
    {
      "primitives": [
        {
          "mode": 4,
          "attributes": {
            "POSITION": 0,
            "NORMAL": 1,
            "TEXCOORD_0": 2
          },
          "indices": 3,
          "material": 0
        }
      ]
    }
  ]
}