{
	"asset":{
		"version":"2.0",
		"generator":"Created using the official Cinema 4D glTF Exporter 1.000x284978"
	},
	"images":[{
		"uri":"data:image/jpeg;base64,"
	}],
	"scenes":[{
		"nodes":[0]
	}],
	"nodes":[{
		"scale":[1.0,
		1.0,
		1.0],
		"name":"hair8",
		"rotation":[0.0,
		0.0,
		0.0,
		-1.0],
		"translation":[0.0,
		2.8166162967681886,
		0.0],
		"children":[1,
		2]
	},
	{
		"name":"hair8-PBR",
		"mesh":0
	},
	{
		"name":"hair8-PBR.1",
		"mesh":1
	}],
	"materials":[{
		"pbrMetallicRoughness":{
			"baseColorFactor":[1.0,
			0.8499310344827586,
			0.31999999999999997,
			1.0],
			"metallicFactor":0.2,
			"roughnessFactor":0.35000000000000006
		},
		"emissiveFactor":[0.0,
		0.0,
		0.0],
		"alphaMode":"OPAQUE",
		"doubleSided":true,
		"name":"PBR"
	},
	{
		"pbrMetallicRoughness":{
			"baseColorTexture":{
				"index":0
			},
			"baseColorFactor":[1.0,
			0.8499310344827586,
			0.31999999999999997,
			1.0],
			"metallicFactor":0.2,
			"roughnessFactor":0.35000000000000006
		},
		"emissiveFactor":[0.0,
		0.0,
		0.0],
		"alphaMode":"OPAQUE",
		"doubleSided":true,
		"name":"PBR.1"
	}],
	"meshes":[{
		"name":"hair8-PBR",
		"primitives":[{
			"attributes":{
				"POSITION":1,
				"NORMAL":2,
				"TEXCOORD_0":3
			},
			"indices":0,
			"material":0
		}]
	},
	{
		"name":"hair8-PBR.1",
		"primitives":[{
			"attributes":{
				"POSITION":5,
				"NORMAL":6,
				"TEXCOORD_0":7
			},
			"indices":4,
			"material":1
		}]
	}],
	"accessors":[{
		"bufferView":0,
		"type":"SCALAR",
		"componentType":5123,
		"count":132366,
		"byteOffset":0,
		"min":[0],
		"max":[23613]
	},
	{
		"bufferView":1,
		"type":"VEC3",
		"componentType":5126,
		"count":23614,
		"byteOffset":0,
		"min":[-4.536989688873291,
		-2.462148666381836,
		-4.067342281341553],
		"max":[4.556346893310547,
		2.5589404106140138,
		4.366071701049805]
	},
	{
		"bufferView":1,
		"type":"VEC3",
		"componentType":5126,
		"count":23614,
		"byteOffset":12,
		"min":[-0.9999688267707825,
		-0.9998750686645508,
		-0.9996563196182251],
		"max":[0.9998750686645508,
		0.9998437762260437,
		0.9998750686645508]
	},
	{
		"bufferView":1,
		"type":"VEC2",
		"componentType":5126,
		"count":23614,
		"byteOffset":24,
		"min":[0.0,
		0.0],
		"max":[0.0,
		0.0]
	},
	{
		"bufferView":2,
		"type":"SCALAR",
		"componentType":5123,
		"count":3888,
		"byteOffset":0,
		"min":[0],
		"max":[702]
	},
	{
		"bufferView":3,
		"type":"VEC3",
		"componentType":5126,
		"count":703,
		"byteOffset":0,
		"min":[-2.824129819869995,
		2.6710453033447267,
		-2.824129819869995],
		"max":[2.824129819869995,
		2.9621872901916506,
		2.824129819869995]
	},
	{
		"bufferView":3,
		"type":"VEC3",
		"componentType":5126,
		"count":703,
		"byteOffset":12,
		"min":[-1.0,
		-0.9847813248634338,
		-1.0],
		"max":[1.0,
		0.9847813248634338,
		1.0]
	},
	{
		"bufferView":3,
		"type":"VEC2",
		"componentType":5126,
		"count":703,
		"byteOffset":24,
		"min":[0.0,
		0.0],
		"max":[1.0,
		1.0]
	}],
	"bufferViews":[{
		"buffer":0,
		"byteOffset":0,
		"byteLength":264732,
		"target":34963
	},
	{
		"buffer":0,
		"byteOffset":264732,
		"byteLength":755648,
		"target":34962,
		"byteStride":32
	},
	{
		"buffer":1,
		"byteOffset":0,
		"byteLength":7776,
		"target":34963
	},
	{
		"buffer":1,
		"byteOffset":7776,
		"byteLength":22496,
		"target":34962,
		"byteStride":32
	}],
	"buffers":[{
		"uri":"data:application/octet-stream;base64,",
		"byteLength":1020380
	},
	{
		"uri":"data:application/octet-stream;base64,",
		"byteLength":30272
	}],
	"samplers":[{
		"magFilter":9729,
		"minFilter":9729,
		"wrapS":10497,
		"wrapT":10497
	}],
	"textures":[{
		"sampler":0,
		"source":0
	}]
}