{
	"asset":{
		"version":"2.0",
		"generator":"Created using the official Cinema 4D glTF Exporter 1.000x284978"
	},
	"scenes":[{
		"nodes":[0]
	}],
	"nodes":[{
		"scale":[1.0,
		1.0,
		1.0],
		"name":"hair7",
		"rotation":[0.0,
		0.0,
		0.0,
		-1.0],
		"translation":[0.7618904113769531,
		6.454521656036377,
		0.5247735381126404],
		"children":[1,
		2,
		3,
		4,
		5,
		6]
	},
	{
		"name":"hair7-PBR",
		"mesh":0
	},
	{
		"name":"hair7-PBR.2",
		"mesh":1
	},
	{
		"name":"hair7-PBR.1",
		"mesh":2
	},
	{
		"name":"hair7-PBR",
		"mesh":3
	},
	{
		"name":"hair7-PBR.1",
		"mesh":4
	},
	{
		"name":"hair7-PBR",
		"mesh":5
	}],
	"materials":[{
		"pbrMetallicRoughness":{
			"baseColorFactor":[1.0,
			0.9313888888888887,
			0.48,
			1.0],
			"metallicFactor":0.3,
			"roughnessFactor":0.3
		},
		"emissiveFactor":[0.0,
		0.0,
		0.0],
		"alphaMode":"OPAQUE",
		"doubleSided":true,
		"name":"PBR"
	},
	{
		"pbrMetallicRoughness":{
			"baseColorFactor":[0.06,
			0.06,
			0.06,
			1.0],
			"metallicFactor":0.3,
			"roughnessFactor":0.3
		},
		"emissiveFactor":[0.0,
		0.0,
		0.0],
		"alphaMode":"OPAQUE",
		"doubleSided":true,
		"name":"PBR.2"
	},
	{
		"pbrMetallicRoughness":{
			"baseColorFactor":[0.93,
			0.93,
			0.93,
			1.0],
			"metallicFactor":0.3,
			"roughnessFactor":0.3
		},
		"emissiveFactor":[0.0,
		0.0,
		0.0],
		"alphaMode":"OPAQUE",
		"doubleSided":true,
		"name":"PBR.1"
	},
	{
		"pbrMetallicRoughness":{
			"baseColorFactor":[0.93,
			0.814212565445026,
			0.16739999999999995,
			1.0],
			"metallicFactor":0.3,
			"roughnessFactor":0.3
		},
		"emissiveFactor":[0.0,
		0.0,
		0.0],
		"alphaMode":"OPAQUE",
		"doubleSided":true,
		"name":"PBR"
	}],
	"meshes":[{
		"name":"hair7-PBR",
		"primitives":[{
			"attributes":{
				"POSITION":1,
				"NORMAL":2,
				"TEXCOORD_0":3
			},
			"indices":0,
			"material":0
		}]
	},
	{
		"name":"hair7-PBR.2",
		"primitives":[{
			"attributes":{
				"POSITION":5,
				"NORMAL":6,
				"TEXCOORD_0":7
			},
			"indices":4,
			"material":1
		}]
	},
	{
		"name":"hair7-PBR.1",
		"primitives":[{
			"attributes":{
				"POSITION":9,
				"NORMAL":10,
				"TEXCOORD_0":11
			},
			"indices":8,
			"material":2
		}]
	},
	{
		"name":"hair7-PBR",
		"primitives":[{
			"attributes":{
				"POSITION":13,
				"NORMAL":14,
				"TEXCOORD_0":15
			},
			"indices":12,
			"material":3
		}]
	},
	{
		"name":"hair7-PBR.1",
		"primitives":[{
			"attributes":{
				"POSITION":17,
				"NORMAL":18,
				"TEXCOORD_0":19
			},
			"indices":16,
			"material":2
		}]
	},
	{
		"name":"hair7-PBR",
		"primitives":[{
			"attributes":{
				"POSITION":21,
				"NORMAL":22,
				"TEXCOORD_0":23
			},
			"indices":20,
			"material":3
		}]
	}],
	"accessors":[{
		"bufferView":0,
		"type":"SCALAR",
		"componentType":5123,
		"count":112128,
		"byteOffset":0,
		"min":[0],
		"max":[19401]
	},
	{
		"bufferView":1,
		"type":"VEC3",
		"componentType":5126,
		"count":19402,
		"byteOffset":0,
		"min":[-4.083560466766357,
		-5.229555130004883,
		-3.9894025325775148],
		"max":[2.7013652324676515,
		-1.177851915359497,
		3.0095951557159426]
	},
	{
		"bufferView":1,
		"type":"VEC3",
		"componentType":5126,
		"count":19402,
		"byteOffset":12,
		"min":[-0.9995312690734863,
		-0.9999688267707825,
		-0.9995312690734863],
		"max":[0.999750018119812,
		0.9996563196182251,
		0.9987813234329224]
	},
	{
		"bufferView":1,
		"type":"VEC2",
		"componentType":5126,
		"count":19402,
		"byteOffset":24,
		"min":[0.0,
		0.0],
		"max":[1.0,
		1.0]
	},
	{
		"bufferView":2,
		"type":"SCALAR",
		"componentType":5123,
		"count":24768,
		"byteOffset":0,
		"min":[0],
		"max":[4428]
	},
	{
		"bufferView":3,
		"type":"VEC3",
		"componentType":5126,
		"count":4429,
		"byteOffset":0,
		"min":[-0.2397611141204834,
		0.9249177575111389,
		0.4473796486854553],
		"max":[0.2150428593158722,
		1.3696129322052003,
		0.5896398425102234]
	},
	{
		"bufferView":3,
		"type":"VEC3",
		"componentType":5126,
		"count":4429,
		"byteOffset":12,
		"min":[-1.0,
		-1.0,
		-1.0],
		"max":[1.0,
		1.0,
		1.0]
	},
	{
		"bufferView":3,
		"type":"VEC2",
		"componentType":5126,
		"count":4429,
		"byteOffset":24,
		"min":[0.0,
		0.0],
		"max":[1.0,
		1.0]
	},
	{
		"bufferView":4,
		"type":"SCALAR",
		"componentType":5123,
		"count":27840,
		"byteOffset":0,
		"min":[0],
		"max":[5068]
	},
	{
		"bufferView":5,
		"type":"VEC3",
		"componentType":5126,
		"count":5069,
		"byteOffset":0,
		"min":[-2.0096209049224855,
		-1.4110119342803956,
		-1.7728606462478638],
		"max":[0.4858400225639343,
		-0.08146072179079056,
		0.7233128547668457]
	},
	{
		"bufferView":5,
		"type":"VEC3",
		"componentType":5126,
		"count":5069,
		"byteOffset":12,
		"min":[-0.9995937943458557,
		-0.9999688267707825,
		-0.9996563196182251],
		"max":[0.9995937943458557,
		0.9999688267707825,
		0.9996563196182251]
	},
	{
		"bufferView":5,
		"type":"VEC2",
		"componentType":5126,
		"count":5069,
		"byteOffset":24,
		"min":[0.0,
		0.30000001192092898],
		"max":[1.0,
		1.0]
	},
	{
		"bufferView":6,
		"type":"SCALAR",
		"componentType":5123,
		"count":4536,
		"byteOffset":0,
		"min":[0],
		"max":[883]
	},
	{
		"bufferView":7,
		"type":"VEC3",
		"componentType":5126,
		"count":884,
		"byteOffset":0,
		"min":[-0.030834300443530084,
		0.7415165901184082,
		-0.34582456946372988],
		"max":[1.1448073387145997,
		1.6688486337661744,
		0.07521437853574753]
	},
	{
		"bufferView":7,
		"type":"VEC3",
		"componentType":5126,
		"count":884,
		"byteOffset":12,
		"min":[-0.9847813248634338,
		-0.9595937728881836,
		-0.9754688143730164],
		"max":[0.9196875691413879,
		0.9726250171661377,
		0.974906325340271]
	},
	{
		"bufferView":7,
		"type":"VEC2",
		"componentType":5126,
		"count":884,
		"byteOffset":24,
		"min":[0.0,
		0.0],
		"max":[1.0,
		1.0]
	},
	{
		"bufferView":8,
		"type":"SCALAR",
		"componentType":5123,
		"count":378,
		"byteOffset":0,
		"min":[0],
		"max":[81]
	},
	{
		"bufferView":9,
		"type":"VEC3",
		"componentType":5126,
		"count":82,
		"byteOffset":0,
		"min":[-0.22807884216308595,
		0.9387097358703613,
		0.47452855110168459],
		"max":[0.19726133346557618,
		1.3553988933563233,
		0.5750129818916321]
	},
	{
		"bufferView":9,
		"type":"VEC3",
		"componentType":5126,
		"count":82,
		"byteOffset":12,
		"min":[-0.21112501621246339,
		0.008218750357627869,
		0.9002813100814819],
		"max":[0.1886875033378601,
		0.43281251192092898,
		0.999000072479248]
	},
	{
		"bufferView":9,
		"type":"VEC2",
		"componentType":5126,
		"count":82,
		"byteOffset":24,
		"min":[0.0,
		0.0],
		"max":[0.0,
		0.0]
	},
	{
		"bufferView":10,
		"type":"SCALAR",
		"componentType":5123,
		"count":40884,
		"byteOffset":0,
		"min":[0],
		"max":[6815]
	},
	{
		"bufferView":11,
		"type":"VEC3",
		"componentType":5126,
		"count":6816,
		"byteOffset":0,
		"min":[-1.8887476921081544,
		-1.2325767278671265,
		-1.6521189212799073],
		"max":[0.7770796418190002,
		1.745721697807312,
		0.602740466594696]
	},
	{
		"bufferView":11,
		"type":"VEC3",
		"componentType":5126,
		"count":6816,
		"byteOffset":12,
		"min":[-0.9982500672340393,
		-0.9994375705718994,
		-0.9998750686645508],
		"max":[0.9997813105583191,
		0.9998750686645508,
		0.9996563196182251]
	},
	{
		"bufferView":11,
		"type":"VEC2",
		"componentType":5126,
		"count":6816,
		"byteOffset":24,
		"min":[0.0,
		0.0],
		"max":[0.0,
		0.0]
	}],
	"bufferViews":[{
		"buffer":0,
		"byteOffset":0,
		"byteLength":224256,
		"target":34963
	},
	{
		"buffer":0,
		"byteOffset":224256,
		"byteLength":620864,
		"target":34962,
		"byteStride":32
	},
	{
		"buffer":1,
		"byteOffset":0,
		"byteLength":49536,
		"target":34963
	},
	{
		"buffer":1,
		"byteOffset":49536,
		"byteLength":141728,
		"target":34962,
		"byteStride":32
	},
	{
		"buffer":2,
		"byteOffset":0,
		"byteLength":55680,
		"target":34963
	},
	{
		"buffer":2,
		"byteOffset":55680,
		"byteLength":162208,
		"target":34962,
		"byteStride":32
	},
	{
		"buffer":3,
		"byteOffset":0,
		"byteLength":9072,
		"target":34963
	},
	{
		"buffer":3,
		"byteOffset":9072,
		"byteLength":28288,
		"target":34962,
		"byteStride":32
	},
	{
		"buffer":4,
		"byteOffset":0,
		"byteLength":756,
		"target":34963
	},
	{
		"buffer":4,
		"byteOffset":756,
		"byteLength":2624,
		"target":34962,
		"byteStride":32
	},
	{
		"buffer":5,
		"byteOffset":0,
		"byteLength":81768,
		"target":34963
	},
	{
		"buffer":5,
		"byteOffset":81768,
		"byteLength":218112,
		"target":34962,
		"byteStride":32
	}],
	"buffers":[{
		"uri":"data:application/octet-stream;base64,",
		"byteLength":845120
	},
	{
		"uri":"data:application/octet-stream;base64,",
		"byteLength":191264
	},
	{
		"uri":"data:application/octet-stream;base64,",
		"byteLength":217888
	},
	{
		"uri":"data:application/octet-stream;base64,",
		"byteLength":37360
	},
	{
		"uri":"data:application/octet-stream;base64,",
		"byteLength":3380
	},
	{
		"uri":"data:application/octet-stream;base64,",
		"byteLength":299880
	}]
}