{
	"asset":{
		"version":"2.0",
		"generator":"Created using the official Cinema 4D glTF Exporter 1.000x284978"
	},
	"scenes":[{
		"nodes":[0]
	}],
	"nodes":[{
		"name":"帽子",
		"translation":[-1.4128544330596924,
		2.7372171878814699,
		-0.18219172954559327],
		"rotation":[0.0,
		0.0,
		0.0,
		-1.0],
		"scale":[1.0,
		1.0,
		1.0],
		"mesh":0
	}],
	"meshes":[{
		"name":"帽子",
		"primitives":[{
			"attributes":{
				"POSITION":1,
				"NORMAL":2,
				"TEXCOORD_0":3
			},
			"indices":0,
			"material":0
		}]
	}],
	"accessors":[{
		"bufferView":0,
		"type":"SCALAR",
		"componentType":5123,
		"count":96768,
		"byteOffset":0,
		"min":[0],
		"max":[25074]
	},
	{
		"bufferView":1,
		"type":"VEC3",
		"componentType":5126,
		"count":25075,
		"byteOffset":0,
		"min":[-4.9143266677856449,
		-2.93788480758667,
		-3.1537628173828127],
		"max":[4.794716835021973,
		2.8571321964263918,
		3.156073570251465]
	},
	{
		"bufferView":1,
		"type":"VEC3",
		"componentType":5126,
		"count":25075,
		"byteOffset":12,
		"min":[-0.9996539950370789,
		-0.9999452829360962,
		-0.998024582862854],
		"max":[0.9976034164428711,
		0.9999583959579468,
		0.9974771738052368]
	},
	{
		"bufferView":1,
		"type":"VEC2",
		"componentType":5126,
		"count":25075,
		"byteOffset":24,
		"min":[0.0,
		0.0],
		"max":[1.0,
		1.0]
	}],
	"bufferViews":[{
		"buffer":0,
		"byteOffset":0,
		"byteLength":193536,
		"target":34963
	},
	{
		"buffer":0,
		"byteOffset":193536,
		"byteLength":802400,
		"target":34962,
		"byteStride":32
	}],
	"buffers":[{
		"uri":"data:application/octet-stream;base64,",
		"byteLength":995936
	}],
	"materials":[{
		"emissiveFactor":[0.0,
		0.0,
		0.0],
		"pbrMetallicRoughness":{
			"baseColorFactor":[0.8,
			0.8,
			0.8,
			1.0],
			"metallicFactor":1.0,
			"roughnessFactor":1.0
		},
		"alphaMode":"OPAQUE",
		"doubleSided":false,
		"name":"PBR"
	}]
}