{
	"asset":{
		"version":"2.0",
		"generator":"Created using the official Cinema 4D glTF Exporter 1.000x284978"
	},
	"scenes":[{
		"nodes":[0]
	}],
	"nodes":[{
		"name":"细分曲面",
		"translation":[-0.07866320759057999,
		4.168057441711426,
		0.9155739545822144],
		"rotation":[0.0,
		0.0,
		0.0,
		-1.0],
		"scale":[1.0,
		1.0,
		1.0],
		"mesh":0
	}],
	"meshes":[{
		"name":"细分曲面",
		"primitives":[{
			"attributes":{
				"POSITION":1,
				"NORMAL":2,
				"TEXCOORD_0":3
			},
			"indices":0,
			"material":0
		}]
	}],
	"accessors":[{
		"bufferView":0,
		"type":"SCALAR",
		"componentType":5123,
		"count":16560,
		"byteOffset":0,
		"min":[0],
		"max":[4412]
	},
	{
		"bufferView":1,
		"type":"VEC3",
		"componentType":5126,
		"count":4413,
		"byteOffset":0,
		"min":[-2.856398820877075,
		-1.041541337966919,
		-3.8506360054016115],
		"max":[3.0137250423431398,
		2.107950210571289,
		2.0194880962371828]
	},
	{
		"bufferView":1,
		"type":"VEC3",
		"componentType":5126,
		"count":4413,
		"byteOffset":12,
		"min":[-1.0,
		-1.0,
		-1.0],
		"max":[1.0,
		1.0,
		1.0]
	},
	{
		"bufferView":1,
		"type":"VEC2",
		"componentType":5126,
		"count":4413,
		"byteOffset":24,
		"min":[0.0,
		0.0],
		"max":[1.0,
		1.0]
	}],
	"bufferViews":[{
		"buffer":0,
		"byteOffset":0,
		"byteLength":33120,
		"target":34963
	},
	{
		"buffer":0,
		"byteOffset":33120,
		"byteLength":141216,
		"target":34962,
		"byteStride":32
	}],
	"buffers":[{
		"uri":"data:application/octet-stream;base64,",
		"byteLength":174336
	}],
	"materials":[{
		"emissiveFactor":[0.0,
		0.0,
		0.0],
		"pbrMetallicRoughness":{
			"baseColorFactor":[0.8,
			0.8,
			0.8,
			1.0],
			"metallicFactor":1.0,
			"roughnessFactor":1.0
		},
		"alphaMode":"OPAQUE",
		"doubleSided":false,
		"name":"PBR"
	}]
}