{
	"asset":{
		"version":"2.0",
		"generator":"Created using the official Cinema 4D glTF Exporter 1.000x284978"
	},
	"scenes":[{
		"nodes":[0]
	}],
	"nodes":[{
		"name":"细分曲面.1",
		"translation":[-0.5097150206565857,
		3.1636431217193605,
		-2.2528927326202394],
		"rotation":[0.0,
		0.0,
		0.0,
		-1.0],
		"scale":[1.0,
		1.0,
		1.0],
		"mesh":0
	}],
	"meshes":[{
		"name":"细分曲面.1",
		"primitives":[{
			"attributes":{
				"POSITION":1,
				"NORMAL":2,
				"TEXCOORD_0":3
			},
			"indices":0,
			"material":0
		}]
	}],
	"accessors":[{
		"bufferView":0,
		"type":"SCALAR",
		"componentType":5123,
		"count":22872,
		"byteOffset":0,
		"min":[0],
		"max":[4962]
	},
	{
		"bufferView":1,
		"type":"VEC3",
		"componentType":5126,
		"count":4963,
		"byteOffset":0,
		"min":[-3.6278152465820314,
		-3.017167329788208,
		-4.437372207641602],
		"max":[3.932004928588867,
		2.3143067359924318,
		5.2832841873168949]
	},
	{
		"bufferView":1,
		"type":"VEC3",
		"componentType":5126,
		"count":4963,
		"byteOffset":12,
		"min":[-0.9959168434143066,
		-0.9975154995918274,
		-0.9998583793640137],
		"max":[0.995915412902832,
		0.9998786449432373,
		0.9407070279121399]
	},
	{
		"bufferView":1,
		"type":"VEC2",
		"componentType":5126,
		"count":4963,
		"byteOffset":24,
		"min":[0.0,
		0.0],
		"max":[1.0,
		1.0]
	}],
	"bufferViews":[{
		"buffer":0,
		"byteOffset":0,
		"byteLength":45744,
		"target":34963
	},
	{
		"buffer":0,
		"byteOffset":45744,
		"byteLength":158816,
		"target":34962,
		"byteStride":32
	}],
	"buffers":[{
		"uri":"data:application/octet-stream;base64,",
		"byteLength":204560
	}],
	"materials":[{
		"emissiveFactor":[0.0,
		0.0,
		0.0],
		"pbrMetallicRoughness":{
			"baseColorFactor":[0.8,
			0.8,
			0.8,
			1.0],
			"metallicFactor":1.0,
			"roughnessFactor":1.0
		},
		"alphaMode":"OPAQUE",
		"doubleSided":false,
		"name":"PBR"
	}]
}