{
	"asset":{
		"version":"2.0",
		"generator":"Created using the official Cinema 4D glTF Exporter 1.000x284978"
	},
	"scenes":[{
		"nodes":[0]
	}],
	"nodes":[{
		"scale":[1.0,
		1.0,
		1.0],
		"name":"glasses1",
		"rotation":[0.0,
		0.0,
		0.0,
		-1.0],
		"translation":[0.9333724975585938,
		0.49982407689094546,
		1.5673277378082276],
		"mesh":0
	}],
	"materials":[{
		"pbrMetallicRoughness":{
			"baseColorFactor":[0.05,
			0.05,
			0.05,
			1.0],
			"metallicFactor":0.3,
			"roughnessFactor":0.3
		},
		"emissiveFactor":[0.0,
		0.0,
		0.0],
		"alphaMode":"OPAQUE",
		"doubleSided":true,
		"name":"PBR"
	}],
	"meshes":[{
		"name":"glasses1",
		"primitives":[{
			"attributes":{
				"POSITION":1,
				"NORMAL":2,
				"TEXCOORD_0":3
			},
			"indices":0,
			"material":0
		}]
	}],
	"accessors":[{
		"bufferView":0,
		"type":"SCALAR",
		"componentType":5123,
		"count":157800,
		"byteOffset":0,
		"min":[0],
		"max":[27544]
	},
	{
		"bufferView":1,
		"type":"VEC3",
		"componentType":5126,
		"count":27545,
		"byteOffset":0,
		"min":[-4.710817813873291,
		-0.6671050786972046,
		-4.328458786010742],
		"max":[2.8440730571746828,
		1.9609746932983399,
		2.017470121383667]
	},
	{
		"bufferView":1,
		"type":"VEC3",
		"componentType":5126,
		"count":27545,
		"byteOffset":12,
		"min":[-0.9983254671096802,
		-0.9962121844291687,
		-0.9990490078926086],
		"max":[0.9983353018760681,
		0.9962826371192932,
		0.9990373253822327]
	},
	{
		"bufferView":1,
		"type":"VEC2",
		"componentType":5126,
		"count":27545,
		"byteOffset":24,
		"min":[0.0,
		0.0],
		"max":[1.0,
		1.0]
	}],
	"bufferViews":[{
		"buffer":0,
		"byteOffset":0,
		"byteLength":315600,
		"target":34963
	},
	{
		"buffer":0,
		"byteOffset":315600,
		"byteLength":881440,
		"target":34962,
		"byteStride":32
	}],
	"buffers":[{
		"uri":"data:application/octet-stream;base64,",
		"byteLength":1197040
	}]
}