{
	"nodes":[{
		"name":"mask2",
		"translation":[0.0,
		1.2246129512786866,
		2.882129669189453],
		"mesh":0,
		"rotation":[0.0,
		0.0,
		0.0,
		-1.0],
		"scale":[1.0,
		1.0,
		1.0]
	}],
	"asset":{
		"version":"2.0",
		"generator":"Created using the official Cinema 4D glTF Exporter 1.000x284978"
	},
	"textures":[{
		"sampler":0,
		"source":0
	}],
	"scenes":[{
		"nodes":[0]
	}],
	"samplers":[{
		"magFilter":9729,
		"minFilter":9729,
		"wrapS":10497,
		"wrapT":10497
	}],
	"meshes":[{
		"name":"mask2",
		"primitives":[{
			"attributes":{
				"POSITION":1,
				"NORMAL":2,
				"TEXCOORD_0":3
			},
			"indices":0,
			"material":0
		}]
	}],
	"accessors":[{
		"componentType":5123,
		"bufferView":0,
		"type":"SCALAR",
		"count":8736,
		"byteOffset":0,
		"min":[0],
		"max":[1894]
	},
	{
		"componentType":5126,
		"bufferView":1,
		"type":"VEC3",
		"count":1895,
		"byteOffset":0,
		"min":[-3.111971855163574,
		-1.3999899625778199,
		-0.7038307785987854],
		"max":[3.111971855163574,
		1.3999899625778199,
		0.7038307785987854]
	},
	{
		"componentType":5126,
		"bufferView":1,
		"type":"VEC3",
		"count":1895,
		"byteOffset":12,
		"min":[-0.9001169800758362,
		-0.9981000423431397,
		-0.9999666810035706],
		"max":[0.9001169800758362,
		0.9933159351348877,
		0.9996906518936157]
	},
	{
		"componentType":5126,
		"bufferView":1,
		"type":"VEC2",
		"count":1895,
		"byteOffset":24,
		"min":[0.0,
		0.0],
		"max":[0.9526085257530212,
		0.9591115713119507]
	}],
	"buffers":[{
		"uri":"data:application/octet-stream;base64,",
		"byteLength":78112
	}],
	"bufferViews":[{
		"buffer":0,
		"byteOffset":0,
		"byteLength":17472,
		"target":34963
	},
	{
		"buffer":0,
		"byteOffset":17472,
		"byteLength":60640,
		"byteStride":32,
		"target":34962
	}],
	"images":[{
		"uri":"data:image/jpeg;base64,"
	}],
	"materials":[{
		"pbrMetallicRoughness":{
			"baseColorTexture":{
				"index":0
			},
			"baseColorFactor":[0.8,
			0.8,
			0.8,
			1.0],
			"metallicFactor":0.3,
			"roughnessFactor":0.3
		},
		"emissiveFactor":[0.0,
		0.0,
		0.0],
		"alphaMode":"OPAQUE",
		"doubleSided":true,
		"name":"PBR"
	}]
}