{
	"asset":{
		"version":"2.0",
		"generator":"Created using the official Cinema 4D glTF Exporter 1.000x284978"
	},
	"scenes":[{
		"nodes":[0]
	}],
	"nodes":[{
		"scale":[1.0,
		1.0,
		1.0],
		"name":"glasses5",
		"rotation":[0.0,
		0.0,
		0.0,
		-1.0],
		"translation":[0.9026765823364258,
		-1.0617669820785523,
		0.48066258430480959],
		"mesh":0
	}],
	"materials":[{
		"pbrMetallicRoughness":{
			"baseColorFactor":[0.88,
			0.19359999999999998,
			0.4431999999999998,
			1.0],
			"metallicFactor":0.3,
			"roughnessFactor":0.3
		},
		"emissiveFactor":[0.0,
		0.0,
		0.0],
		"alphaMode":"OPAQUE",
		"doubleSided":true,
		"name":"PBR"
	}],
	"meshes":[{
		"name":"glasses5",
		"primitives":[{
			"attributes":{
				"POSITION":1,
				"NORMAL":2,
				"TEXCOORD_0":3
			},
			"indices":0,
			"material":0
		}]
	}],
	"accessors":[{
		"bufferView":0,
		"type":"SCALAR",
		"componentType":5123,
		"count":49536,
		"byteOffset":0,
		"min":[0],
		"max":[9487]
	},
	{
		"bufferView":1,
		"type":"VEC3",
		"componentType":5126,
		"count":9488,
		"byteOffset":0,
		"min":[-4.641311168670654,
		1.1582801342010499,
		-3.224853277206421],
		"max":[2.8359580039978029,
		3.354236125946045,
		2.940079689025879]
	},
	{
		"bufferView":1,
		"type":"VEC3",
		"componentType":5126,
		"count":9488,
		"byteOffset":12,
		"min":[-0.9999613165855408,
		-0.9998216032981873,
		-0.9998236894607544],
		"max":[0.999961256980896,
		0.9998589158058167,
		0.9999542832374573]
	},
	{
		"bufferView":1,
		"type":"VEC2",
		"componentType":5126,
		"count":9488,
		"byteOffset":24,
		"min":[0.0,
		0.0],
		"max":[1.0,
		1.0]
	}],
	"bufferViews":[{
		"buffer":0,
		"byteOffset":0,
		"byteLength":99072,
		"target":34963
	},
	{
		"buffer":0,
		"byteOffset":99072,
		"byteLength":303616,
		"target":34962,
		"byteStride":32
	}],
	"buffers":[{
		"uri":"data:application/octet-stream;base64,",
		"byteLength":402688
	}]
}