{
    "asset" : {
        "generator" : "Khronos glTF Blender I/O v1.6.16",
        "version" : "2.0"
    },
    "scene" : 0,
    "scenes" : [
        {
            "name" : "Scene",
            "nodes" : [
                0
            ]
        }
    ],
    "nodes" : [
        {
            "mesh" : 0,
            "name" : "\u7ec6\u5206\u66f2\u9762",
            "rotation" : [
                0,
                0,
                0,
                -1
            ],
            "translation" : [
                0.9016740322113037,
                0.9514572024345398,
                2.4039294719696045
            ]
        }
    ],
    "materials" : [
        {
            "name" : "PBR",
            "pbrMetallicRoughness" : {
                "baseColorFactor" : [
                    0.800000011920929,
                    0.800000011920929,
                    0.800000011920929,
                    1
                ]
            }
        }
    ],
    "meshes" : [
        {
            "name" : "\u7ec6\u5206\u66f2\u9762",
            "primitives" : [
                {
                    "attributes" : {
                        "POSITION" : 0,
                        "NORMAL" : 1,
                        "TEXCOORD_0" : 2
                    },
                    "indices" : 3,
                    "material" : 0
                }
            ]
        }
    ],
    "accessors" : [
        {
            "bufferView" : 0,
            "componentType" : 5126,
            "count" : 3740,
            "max" : [
                2.869889974594116,
                1.2559573650360107,
                1.047454833984375
            ],
            "min" : [
                -4.673238277435303,
                -0.9557992219924927,
                -5.147328853607178
            ],
            "type" : "VEC3"
        },
        {
            "bufferView" : 1,
            "componentType" : 5126,
            "count" : 3740,
            "type" : "VEC3"
        },
        {
            "bufferView" : 2,
            "componentType" : 5126,
            "count" : 3740,
            "type" : "VEC2"
        },
        {
            "bufferView" : 3,
            "componentType" : 5123,
            "count" : 14388,
            "type" : "SCALAR"
        }
    ],
    "bufferViews" : [
        {
            "buffer" : 0,
            "byteLength" : 44880,
            "byteOffset" : 0
        },
        {
            "buffer" : 0,
            "byteLength" : 44880,
            "byteOffset" : 44880
        },
        {
            "buffer" : 0,
            "byteLength" : 29920,
            "byteOffset" : 89760
        },
        {
            "buffer" : 0,
            "byteLength" : 28776,
            "byteOffset" : 119680
        }
    ],
    "buffers" : [
        {
            "byteLength" : 148456,
            "uri" : "data:application/octet-stream;base64,"
        }
    ]
}
