{
	"asset":{
		"version":"2.0",
		"generator":"Created using the official Cinema 4D glTF Exporter 1.000x284978"
	},
	"scenes":[{
		"nodes":[0]
	}],
	"nodes":[{
		"name":"细分曲面",
		"translation":[0.9016740322113037,
		0.9514572024345398,
		2.4039294719696047],
		"rotation":[0.0,
		0.0,
		0.0,
		-1.0],
		"scale":[1.0,
		1.0,
		1.0],
		"mesh":0
	}],
	"meshes":[{
		"name":"细分曲面",
		"primitives":[{
			"attributes":{
				"POSITION":1,
				"NORMAL":2,
				"TEXCOORD_0":3
			},
			"indices":0,
			"material":0
		}]
	}],
	"accessors":[{
		"bufferView":0,
		"type":"SCALAR",
		"componentType":5123,
		"count":14388,
		"byteOffset":0,
		"min":[0],
		"max":[3597]
	},
	{
		"bufferView":1,
		"type":"VEC3",
		"componentType":5126,
		"count":3598,
		"byteOffset":0,
		"min":[-4.673238277435303,
		-0.9557992219924927,
		-5.147328853607178],
		"max":[2.869889974594116,
		1.2559573650360108,
		1.047454833984375]
	},
	{
		"bufferView":1,
		"type":"VEC3",
		"componentType":5126,
		"count":3598,
		"byteOffset":12,
		"min":[-0.9997216463088989,
		-0.9998303651809692,
		-0.999187171459198],
		"max":[0.9997216463088989,
		0.9999869465827942,
		0.9996188879013062]
	},
	{
		"bufferView":1,
		"type":"VEC2",
		"componentType":5126,
		"count":3598,
		"byteOffset":24,
		"min":[0.0,
		0.0],
		"max":[1.0,
		1.0]
	}],
	"bufferViews":[{
		"buffer":0,
		"byteOffset":0,
		"byteLength":28776,
		"target":34963
	},
	{
		"buffer":0,
		"byteOffset":28776,
		"byteLength":115136,
		"target":34962,
		"byteStride":32
	}],
	"buffers":[{
		"uri":"data:application/octet-stream;base64,",
		"byteLength":143912
	}],
	"materials":[{
		"emissiveFactor":[0.0,
		0.0,
		0.0],
		"pbrMetallicRoughness":{
			"baseColorFactor":[0.8,
			0.8,
			0.8,
			1.0],
			"metallicFactor":1.0,
			"roughnessFactor":1.0
		},
		"alphaMode":"OPAQUE",
		"doubleSided":false,
		"name":"PBR"
	}]
}