{
	"asset":{
		"version":"2.0",
		"generator":"Created using the official Cinema 4D glTF Exporter 1.000x284978"
	},
	"scenes":[{
		"nodes":[0]
	}],
	"nodes":[{
		"scale":[1.0,
		1.0,
		1.0],
		"name":"glasses2",
		"rotation":[0.0,
		0.0,
		0.0,
		-1.0],
		"translation":[0.45083701610565188,
		0.5367354154586792,
		1.3086820840835572],
		"children":[1,
		2,
		3,
		4]
	},
	{
		"name":"glasses2-PBR.1",
		"mesh":0
	},
	{
		"name":"glasses2-PBR",
		"mesh":1
	},
	{
		"name":"glasses2-PBR",
		"mesh":2
	},
	{
		"name":"glasses2-PBR.2",
		"mesh":3
	}],
	"materials":[{
		"pbrMetallicRoughness":{
			"baseColorFactor":[0.1630588235294117,
			0.4230470588235291,
			0.9058823529411765,
			1.0],
			"metallicFactor":0.3,
			"roughnessFactor":0.3
		},
		"emissiveFactor":[0.0,
		0.0,
		0.0],
		"alphaMode":"OPAQUE",
		"doubleSided":true,
		"name":"PBR.1"
	},
	{
		"pbrMetallicRoughness":{
			"baseColorFactor":[0.05,
			0.05,
			0.05,
			1.0],
			"metallicFactor":0.3,
			"roughnessFactor":0.3
		},
		"emissiveFactor":[0.0,
		0.0,
		0.0],
		"alphaMode":"OPAQUE",
		"doubleSided":true,
		"name":"PBR"
	},
	{
		"pbrMetallicRoughness":{
			"baseColorFactor":[0.8980392156862745,
			0.8745098039215687,
			0.27450980392156867,
			1.0],
			"metallicFactor":0.3,
			"roughnessFactor":0.3
		},
		"emissiveFactor":[0.0,
		0.0,
		0.0],
		"alphaMode":"OPAQUE",
		"doubleSided":true,
		"name":"PBR.2"
	}],
	"meshes":[{
		"name":"glasses2-PBR.1",
		"primitives":[{
			"attributes":{
				"POSITION":1,
				"NORMAL":2,
				"TEXCOORD_0":3
			},
			"indices":0,
			"material":0
		}]
	},
	{
		"name":"glasses2-PBR",
		"primitives":[{
			"attributes":{
				"POSITION":5,
				"NORMAL":6,
				"TEXCOORD_0":7
			},
			"indices":4,
			"material":1
		}]
	},
	{
		"name":"glasses2-PBR",
		"primitives":[{
			"attributes":{
				"POSITION":9,
				"NORMAL":10,
				"TEXCOORD_0":11
			},
			"indices":8,
			"material":1
		}]
	},
	{
		"name":"glasses2-PBR.2",
		"primitives":[{
			"attributes":{
				"POSITION":13,
				"NORMAL":14,
				"TEXCOORD_0":15
			},
			"indices":12,
			"material":2
		}]
	}],
	"accessors":[{
		"bufferView":0,
		"type":"SCALAR",
		"componentType":5123,
		"count":78144,
		"byteOffset":0,
		"min":[0],
		"max":[14472]
	},
	{
		"bufferView":1,
		"type":"VEC3",
		"componentType":5126,
		"count":14473,
		"byteOffset":0,
		"min":[-4.2151970863342289,
		-0.24795134365558625,
		-4.045236110687256],
		"max":[3.313523054122925,
		1.6307891607284547,
		2.204453706741333]
	},
	{
		"bufferView":1,
		"type":"VEC3",
		"componentType":5126,
		"count":14473,
		"byteOffset":12,
		"min":[-1.0,
		-0.9998437762260437,
		-0.9995625615119934],
		"max":[1.0,
		0.9998750686645508,
		0.9999688267707825]
	},
	{
		"bufferView":1,
		"type":"VEC2",
		"componentType":5126,
		"count":14473,
		"byteOffset":24,
		"min":[0.0,
		0.0],
		"max":[1.0,
		1.0]
	},
	{
		"bufferView":2,
		"type":"SCALAR",
		"componentType":5123,
		"count":11616,
		"byteOffset":0,
		"min":[0],
		"max":[2087]
	},
	{
		"bufferView":3,
		"type":"VEC3",
		"componentType":5126,
		"count":2088,
		"byteOffset":0,
		"min":[-2.9342896938323976,
		-0.06085715442895889,
		1.5567110776901246],
		"max":[2.0326156616210939,
		1.3871477842330933,
		2.1091184616088869]
	},
	{
		"bufferView":3,
		"type":"VEC3",
		"componentType":5126,
		"count":2088,
		"byteOffset":12,
		"min":[-0.2645312547683716,
		-0.2068125158548355,
		-0.9808750748634338],
		"max":[0.2645312547683716,
		0.2083750069141388,
		0.9810938239097595]
	},
	{
		"bufferView":3,
		"type":"VEC2",
		"componentType":5126,
		"count":2088,
		"byteOffset":24,
		"min":[0.0,
		0.0],
		"max":[0.0,
		0.0]
	},
	{
		"bufferView":4,
		"type":"SCALAR",
		"componentType":5123,
		"count":4608,
		"byteOffset":0,
		"min":[0],
		"max":[853]
	},
	{
		"bufferView":5,
		"type":"VEC3",
		"componentType":5126,
		"count":854,
		"byteOffset":0,
		"min":[-1.8070803880691529,
		1.5498260259628297,
		1.6163889169692994],
		"max":[0.9054063558578491,
		1.8213088512420655,
		1.8805110454559327]
	},
	{
		"bufferView":5,
		"type":"VEC3",
		"componentType":5126,
		"count":854,
		"byteOffset":12,
		"min":[-0.9992188215255737,
		-0.484250009059906,
		-0.9973437786102295],
		"max":[0.9992188215255737,
		0.998343825340271,
		0.9473437666893005]
	},
	{
		"bufferView":5,
		"type":"VEC2",
		"componentType":5126,
		"count":854,
		"byteOffset":24,
		"min":[0.0,
		0.0],
		"max":[0.0,
		0.0]
	},
	{
		"bufferView":6,
		"type":"SCALAR",
		"componentType":5123,
		"count":5568,
		"byteOffset":0,
		"min":[0],
		"max":[1283]
	},
	{
		"bufferView":7,
		"type":"VEC3",
		"componentType":5126,
		"count":1284,
		"byteOffset":0,
		"min":[-4.214051723480225,
		-0.1990399807691574,
		-1.3178941011428834],
		"max":[3.312377452850342,
		1.0512222051620484,
		1.954893946647644]
	},
	{
		"bufferView":7,
		"type":"VEC3",
		"componentType":5126,
		"count":1284,
		"byteOffset":12,
		"min":[-0.9994375705718994,
		-0.983375072479248,
		-0.9820625185966492],
		"max":[0.9994375705718994,
		0.9725313186645508,
		0.9817187786102295]
	},
	{
		"bufferView":7,
		"type":"VEC2",
		"componentType":5126,
		"count":1284,
		"byteOffset":24,
		"min":[0.0,
		0.0],
		"max":[1.0,
		1.0]
	}],
	"bufferViews":[{
		"buffer":0,
		"byteOffset":0,
		"byteLength":156288,
		"target":34963
	},
	{
		"buffer":0,
		"byteOffset":156288,
		"byteLength":463136,
		"target":34962,
		"byteStride":32
	},
	{
		"buffer":1,
		"byteOffset":0,
		"byteLength":23232,
		"target":34963
	},
	{
		"buffer":1,
		"byteOffset":23232,
		"byteLength":66816,
		"target":34962,
		"byteStride":32
	},
	{
		"buffer":2,
		"byteOffset":0,
		"byteLength":9216,
		"target":34963
	},
	{
		"buffer":2,
		"byteOffset":9216,
		"byteLength":27328,
		"target":34962,
		"byteStride":32
	},
	{
		"buffer":3,
		"byteOffset":0,
		"byteLength":11136,
		"target":34963
	},
	{
		"buffer":3,
		"byteOffset":11136,
		"byteLength":41088,
		"target":34962,
		"byteStride":32
	}],
	"buffers":[{
		"uri":"data:application/octet-stream;base64,",
		"byteLength":619424
	},
	{
		"uri":"data:application/octet-stream;base64,",
		"byteLength":90048
	},
	{
		"uri":"data:application/octet-stream;base64,",
		"byteLength":36544
	},
	{
		"uri":"data:application/octet-stream;base64,",
		"byteLength":52224
	}]
}