{
	"asset":{
		"version":"2.0",
		"generator":"Created using the official Cinema 4D glTF Exporter 1.000x284978"
	},
	"scenes":[{
		"nodes":[0]
	}],
	"nodes":[{
		"scale":[1.0,
		1.0,
		1.0],
		"name":"glasses6",
		"rotation":[0.0,
		0.0,
		0.0,
		-1.0],
		"translation":[0.45083701610565188,
		1.049726963043213,
		2.7504525184631349],
		"children":[1,
		2]
	},
	{
		"name":"glasses6-PBR",
		"mesh":0
	},
	{
		"name":"glasses6-PBR.2",
		"mesh":1
	}],
	"materials":[{
		"pbrMetallicRoughness":{
			"baseColorFactor":[0.39254901960784308,
			0.5642892156862747,
			0.6039215686274509,
			1.0],
			"metallicFactor":0.3,
			"roughnessFactor":0.3
		},
		"emissiveFactor":[0.0,
		0.0,
		0.0],
		"alphaMode":"OPAQUE",
		"doubleSided":true,
		"name":"PBR"
	},
	{
		"pbrMetallicRoughness":{
			"baseColorFactor":[0.05,
			0.05,
			0.05,
			1.0],
			"metallicFactor":0.3,
			"roughnessFactor":0.3
		},
		"emissiveFactor":[0.0,
		0.0,
		0.0],
		"alphaMode":"OPAQUE",
		"doubleSided":true,
		"name":"PBR.2"
	}],
	"meshes":[{
		"name":"glasses6-PBR",
		"primitives":[{
			"attributes":{
				"POSITION":1,
				"NORMAL":2,
				"TEXCOORD_0":3
			},
			"indices":0,
			"material":0
		}]
	},
	{
		"name":"glasses6-PBR.2",
		"primitives":[{
			"attributes":{
				"POSITION":5,
				"NORMAL":6,
				"TEXCOORD_0":7
			},
			"indices":4,
			"material":1
		}]
	}],
	"accessors":[{
		"bufferView":0,
		"type":"SCALAR",
		"componentType":5123,
		"count":54912,
		"byteOffset":0,
		"min":[0],
		"max":[10379]
	},
	{
		"bufferView":1,
		"type":"VEC3",
		"componentType":5126,
		"count":10380,
		"byteOffset":0,
		"min":[-4.2151970863342289,
		-1.050243616104126,
		-5.487006664276123],
		"max":[3.313523054122925,
		1.154463768005371,
		0.6985628008842468]
	},
	{
		"bufferView":1,
		"type":"VEC3",
		"componentType":5126,
		"count":10380,
		"byteOffset":12,
		"min":[-0.9995625615119934,
		-0.9994062781333923,
		-0.9999688267707825],
		"max":[0.9995625615119934,
		0.9999688267707825,
		0.9971563220024109]
	},
	{
		"bufferView":1,
		"type":"VEC2",
		"componentType":5126,
		"count":10380,
		"byteOffset":24,
		"min":[0.0,
		0.0],
		"max":[1.0,
		1.0]
	},
	{
		"bufferView":2,
		"type":"SCALAR",
		"componentType":5123,
		"count":44928,
		"byteOffset":0,
		"min":[0],
		"max":[7741]
	},
	{
		"bufferView":3,
		"type":"VEC3",
		"componentType":5126,
		"count":7742,
		"byteOffset":0,
		"min":[-2.9660818576812746,
		-0.8372086882591248,
		0.16011643409729005],
		"max":[2.0646862983703615,
		1.0251833200454713,
		0.6132499575614929]
	},
	{
		"bufferView":3,
		"type":"VEC3",
		"componentType":5126,
		"count":7742,
		"byteOffset":12,
		"min":[-0.22309376299381257,
		-0.12218750268220902,
		-0.9929375648498535],
		"max":[0.22303126752376557,
		0.12221875786781311,
		0.9929375648498535]
	},
	{
		"bufferView":3,
		"type":"VEC2",
		"componentType":5126,
		"count":7742,
		"byteOffset":24,
		"min":[0.0,
		0.0],
		"max":[0.0,
		0.0]
	}],
	"bufferViews":[{
		"buffer":0,
		"byteOffset":0,
		"byteLength":109824,
		"target":34963
	},
	{
		"buffer":0,
		"byteOffset":109824,
		"byteLength":332160,
		"target":34962,
		"byteStride":32
	},
	{
		"buffer":1,
		"byteOffset":0,
		"byteLength":89856,
		"target":34963
	},
	{
		"buffer":1,
		"byteOffset":89856,
		"byteLength":247744,
		"target":34962,
		"byteStride":32
	}],
	"buffers":[{
		"uri":"data:application/octet-stream;base64,",
		"byteLength":441984
	},
	{
		"uri":"data:application/octet-stream;base64,",
		"byteLength":337600
	}]
}