{
	"asset":{
		"version":"2.0",
		"generator":"Created using the official Cinema 4D glTF Exporter 1.000x284978"
	},
	"scenes":[{
		"nodes":[0]
	}],
	"nodes":[{
		"scale":[1.0,
		1.0,
		1.0],
		"name":"glasses3",
		"rotation":[0.0,
		0.0,
		0.0,
		-1.0],
		"translation":[1.56962251663208,
		0.6228307485580444,
		1.6313220262527466],
		"mesh":0
	}],
	"materials":[{
		"pbrMetallicRoughness":{
			"baseColorFactor":[0.9400000000000001,
			0.6000333333333334,
			0.282,
			1.0],
			"metallicFactor":0.3,
			"roughnessFactor":0.3
		},
		"emissiveFactor":[0.0,
		0.0,
		0.0],
		"alphaMode":"OPAQUE",
		"doubleSided":true,
		"name":"PBR"
	}],
	"meshes":[{
		"name":"glasses3",
		"primitives":[{
			"attributes":{
				"POSITION":1,
				"NORMAL":2,
				"TEXCOORD_0":3
			},
			"indices":0,
			"material":0
		}]
	}],
	"accessors":[{
		"bufferView":0,
		"type":"SCALAR",
		"componentType":5123,
		"count":79128,
		"byteOffset":0,
		"min":[0],
		"max":[14382]
	},
	{
		"bufferView":1,
		"type":"VEC3",
		"componentType":5126,
		"count":14383,
		"byteOffset":0,
		"min":[-5.320961952209473,
		-0.5179792046546936,
		-4.403329849243164],
		"max":[2.1817169189453127,
		1.7636406421661378,
		1.7940977811813355]
	},
	{
		"bufferView":1,
		"type":"VEC3",
		"componentType":5126,
		"count":14383,
		"byteOffset":12,
		"min":[-1.0,
		-0.999998152256012,
		-0.9993968605995178],
		"max":[1.0,
		0.9999980926513672,
		0.9993966221809387]
	},
	{
		"bufferView":1,
		"type":"VEC2",
		"componentType":5126,
		"count":14383,
		"byteOffset":24,
		"min":[0.0,
		0.0],
		"max":[1.0,
		1.0]
	}],
	"bufferViews":[{
		"buffer":0,
		"byteOffset":0,
		"byteLength":158256,
		"target":34963
	},
	{
		"buffer":0,
		"byteOffset":158256,
		"byteLength":460256,
		"target":34962,
		"byteStride":32
	}],
	"buffers":[{
		"uri":"data:application/octet-stream;base64,",
		"byteLength":618512
	}]
}