{
	"asset":{
		"version":"2.0",
		"generator":"Created using the official Cinema 4D glTF Exporter 1.000x284978"
	},
	"scenes":[{
		"nodes":[0]
	}],
	"nodes":[{
		"scale":[1.0,
		1.0,
		1.0],
		"name":"glasses4",
		"rotation":[0.0,
		0.0,
		0.0,
		-1.0],
		"translation":[0.0010025652591139079,
		-2.0937118530273439,
		-0.07627072185277939],
		"mesh":0
	}],
	"materials":[{
		"pbrMetallicRoughness":{
			"baseColorFactor":[0.05,
			0.05,
			0.05,
			1.0],
			"metallicFactor":0.3,
			"roughnessFactor":0.3
		},
		"emissiveFactor":[0.0,
		0.0,
		0.0],
		"alphaMode":"OPAQUE",
		"doubleSided":true,
		"name":"PBR"
	}],
	"meshes":[{
		"name":"glasses4",
		"primitives":[{
			"attributes":{
				"POSITION":1,
				"NORMAL":2
			},
			"indices":0,
			"material":0
		}]
	}],
	"accessors":[{
		"bufferView":0,
		"type":"SCALAR",
		"componentType":5123,
		"count":66240,
		"byteOffset":0,
		"min":[0],
		"max":[11051]
	},
	{
		"bufferView":1,
		"type":"VEC3",
		"componentType":5126,
		"count":11052,
		"byteOffset":0,
		"min":[-3.689817190170288,
		-3.069636106491089,
		-2.413290023803711],
		"max":[3.687812089920044,
		4.7092790603637699,
		3.6072490215301515]
	},
	{
		"bufferView":1,
		"type":"VEC3",
		"componentType":5126,
		"count":11052,
		"byteOffset":12,
		"min":[-0.9999606609344482,
		-0.9998647570610046,
		-0.9999739527702332],
		"max":[0.9999607801437378,
		0.9998721480369568,
		0.9998528361320496]
	}],
	"bufferViews":[{
		"buffer":0,
		"byteOffset":0,
		"byteLength":132480,
		"target":34963
	},
	{
		"buffer":0,
		"byteOffset":132480,
		"byteLength":265248,
		"target":34962,
		"byteStride":24
	}],
	"buffers":[{
		"uri":"data:application/octet-stream;base64,",
		"byteLength":397728
	}]
}