{
	"asset":{
		"version":"2.0",
		"generator":"Created using the official Cinema 4D glTF Exporter 1.000x284978"
	},
	"scenes":[{
		"nodes":[0,
		1]
	}],
	"nodes":[{
		"name":"Camera",
		"translation":[0.23547999560832978,
		5.426959991455078,
		69.0706787109375],
		"rotation":[0.06975647062063217,
		0.0,
		0.0,
		-0.9975640773773193],
		"scale":[1.0,
		1.0,
		1.0],
		"camera":0
	},
	{
		"name":"Pig",
		"translation":[0.0,
		0.5194916725158691,
		-1.0804438591003419],
		"rotation":[4.440892098500626e-16,
		0.0,
		0.0,
		-1.0],
		"scale":[1.0,
		1.0,
		1.0],
		"children":[2]
	},
	{
		"mesh":0,
		"name":"Body",
		"translation":[0.04613736644387245,
		-3.21696138381958,
		1.3791579008102418],
		"rotation":[-4.440892098500626e-16,
		0.0,
		0.0,
		-1.0],
		"scale":[1.0,
		1.0,
		1.0]
	}],
	"images":[{
		"uri":"data:image/jpeg;base64,"
	}],
	"meshes":[{
		"name":"Body",
		"primitives":[{
			"attributes":{
				"POSITION":1,
				"NORMAL":2,
				"TEXCOORD_0":3
			},
			"indices":0,
			"material":0
		}]
	}],
	"cameras":[{
		"type":"perspective",
		"perspective":{
			"znear":0.009999999776482582,
			"zfar":10000000000.0,
			"aspectRatio":1.0,
			"yfov":0.4426288902759552
		}
	}],
	"accessors":[{
		"bufferView":0,
		"type":"SCALAR",
		"componentType":5123,
		"count":199680,
		"byteOffset":0,
		"min":[0],
		"max":[36244]
	},
	{
		"bufferView":1,
		"type":"VEC3",
		"componentType":5126,
		"count":36245,
		"byteOffset":0,
		"min":[-6.672656059265137,
		-6.985443592071533,
		-4.012643337249756],
		"max":[6.672656059265137,
		6.985443592071533,
		4.012643337249756]
	},
	{
		"bufferView":1,
		"type":"VEC3",
		"componentType":5126,
		"count":36245,
		"byteOffset":12,
		"min":[-0.9999940395355225,
		-0.999944806098938,
		-0.9999785423278809],
		"max":[0.9999940395355225,
		0.9999575018882752,
		0.9999985694885254]
	},
	{
		"bufferView":1,
		"type":"VEC2",
		"componentType":5126,
		"count":36245,
		"byteOffset":24,
		"min":[0.0,
		0.0],
		"max":[1.0,
		1.0]
	}],
	"bufferViews":[{
		"buffer":0,
		"target":34963,
		"byteOffset":0,
		"byteLength":399360
	},
	{
		"buffer":0,
		"target":34962,
		"byteOffset":399360,
		"byteLength":1159840,
		"byteStride":32
	}],
	"textures":[{
		"sampler":0,
		"source":0
	}],
	"buffers":[{
		"uri":"data:application/octet-stream;base64,",
		"byteLength":1559200
	}],
	"samplers":[{
		"magFilter":9729,
		"minFilter":9729,
		"wrapS":10497,
		"wrapT":10497
	}],
	"materials":[{
		"pbrMetallicRoughness":{
			"baseColorTexture":{
				"index":0
			},
			"baseColorFactor":[0.8,
			0.8,
			0.8,
			1.0],
			"metallicFactor":0.0,
			"roughnessFactor":0.5
		},
		"emissiveFactor":[0.0,
		0.0,
		0.0],
		"alphaMode":"OPAQUE",
		"doubleSided":false,
		"name":"Mat"
	}]
}