{
  "asset": {
    "version": "2.0",
    "generator": "THREE.GLTFExporter"
  },
  "scenes": [
    {
      "name": "Scene",
      "nodes": [
        0,
        6
      ]
    }
  ],
  "scene": 0,
  "nodes": [
    {
      "name": "AmbientLight"
    },
    {
      "name": "身体-PBR11",
      "extras": {
        "name": "身体-PBR.11"
      },
      "mesh": 0
    },
    {
      "name": "身体-PBR10",
      "extras": {
        "name": "身体-PBR.10"
      },
      "mesh": 1
    },
    {
      "name": "身体-PBR8",
      "extras": {
        "name": "身体-PBR.8"
      },
      "mesh": 2
    },
    {
      "name": "身体-PBR9",
      "extras": {
        "name": "身体-PBR.9"
      },
      "mesh": 3
    },
    {
      "matrix": [
        1,
        0,
        0,
        0,
        0,
        1,
        0,
        0,
        0,
        0,
        1,
        0,
        1.0458446741104126,
        0.1266276240348816,
        1.2923322916030884,
        1
      ],
      "name": "身体",
      "extras": {
        "name": "身体"
      },
      "children": [
        1,
        2,
        3,
        4
      ]
    },
    {
      "name": "pigbody6.gltf",
      "children": [
        5
      ]
    }
  ],
  "bufferViews": [
    {
      "buffer": 0,
      "byteOffset": 0,
      "byteLength": 14808,
      "target": 34962,
      "byteStride": 12
    },
    {
      "buffer": 0,
      "byteOffset": 14808,
      "byteLength": 14808,
      "target": 34962,
      "byteStride": 12
    },
    {
      "buffer": 0,
      "byteOffset": 29616,
      "byteLength": 9872,
      "target": 34962,
      "byteStride": 8
    },
    {
      "buffer": 0,
      "byteOffset": 39488,
      "byteLength": 13824,
      "target": 34963
    },
    {
      "buffer": 0,
      "byteOffset": 53312,
      "byteLength": 39864,
      "target": 34962,
      "byteStride": 12
    },
    {
      "buffer": 0,
      "byteOffset": 93176,
      "byteLength": 39864,
      "target": 34962,
      "byteStride": 12
    },
    {
      "buffer": 0,
      "byteOffset": 133040,
      "byteLength": 26576,
      "target": 34962,
      "byteStride": 8
    },
    {
      "buffer": 0,
      "byteOffset": 159616,
      "byteLength": 35328,
      "target": 34963
    },
    {
      "buffer": 0,
      "byteOffset": 194944,
      "byteLength": 140940,
      "target": 34962,
      "byteStride": 12
    },
    {
      "buffer": 0,
      "byteOffset": 335884,
      "byteLength": 140940,
      "target": 34962,
      "byteStride": 12
    },
    {
      "buffer": 0,
      "byteOffset": 476824,
      "byteLength": 93960,
      "target": 34962,
      "byteStride": 8
    },
    {
      "buffer": 0,
      "byteOffset": 570784,
      "byteLength": 135168,
      "target": 34963
    },
    {
      "buffer": 0,
      "byteOffset": 705952,
      "byteLength": 70236,
      "target": 34962,
      "byteStride": 12
    },
    {
      "buffer": 0,
      "byteOffset": 776188,
      "byteLength": 70236,
      "target": 34962,
      "byteStride": 12
    },
    {
      "buffer": 0,
      "byteOffset": 846424,
      "byteLength": 46824,
      "target": 34962,
      "byteStride": 8
    },
    {
      "buffer": 0,
      "byteOffset": 893248,
      "byteLength": 64512,
      "target": 34963
    }
  ],
  "buffers": [
    {
      "byteLength": 957760,
      "uri": "data:application/octet-stream;base64,"
    }
  ],
  "accessors": [
    {
      "bufferView": 0,
      "componentType": 5126,
      "count": 1234,
      "max": [
        5.006730079650879,
        2.4535861015319824,
        -1.7070374488830566
      ],
      "min": [
        -7.068900108337402,
        -0.21957893669605255,
        -2.9493038654327393
      ],
      "type": "VEC3"
    },
    {
      "bufferView": 1,
      "componentType": 5126,
      "count": 1234,
      "max": [
        0.6402812600135803,
        0.6335312724113464,
        0.9995312690734863
      ],
      "min": [
        -0.6241250038146973,
        -0.6649062633514404,
        0.6480937600135803
      ],
      "type": "VEC3"
    },
    {
      "bufferView": 2,
      "componentType": 5126,
      "count": 1234,
      "max": [
        0.2306375503540039,
        0.0923309326171875
      ],
      "min": [
        0.1536429226398468,
        0.05123645067214966
      ],
      "type": "VEC2"
    },
    {
      "bufferView": 3,
      "componentType": 5123,
      "count": 6912,
      "max": [
        1233
      ],
      "min": [
        0
      ],
      "type": "SCALAR"
    },
    {
      "bufferView": 4,
      "componentType": 5126,
      "count": 3322,
      "max": [
        5.672948837280273,
        2.7042951583862305,
        -1.2111915349960327
      ],
      "min": [
        -7.672364234924316,
        -1.5728729963302612,
        -4.613924026489258
      ],
      "type": "VEC3"
    },
    {
      "bufferView": 5,
      "componentType": 5126,
      "count": 3322,
      "max": [
        0.991312563419342,
        0.9998750686645508,
        0.9998437762260437
      ],
      "min": [
        -0.9971250295639038,
        -0.9998750686645508,
        -0.9570937752723694
      ],
      "type": "VEC3"
    },
    {
      "bufferView": 6,
      "componentType": 5126,
      "count": 3322,
      "max": [
        0.3708183467388153,
        0.9769687652587891
      ],
      "min": [
        0.13988739252090454,
        0.044466376304626465
      ],
      "type": "VEC2"
    },
    {
      "bufferView": 7,
      "componentType": 5123,
      "count": 17664,
      "max": [
        3321
      ],
      "min": [
        0
      ],
      "type": "SCALAR"
    },
    {
      "bufferView": 8,
      "componentType": 5126,
      "count": 11745,
      "max": [
        4.081361293792725,
        -3.101210594177246,
        1.6800503730773926
      ],
      "min": [
        -6.173050403594971,
        -9.72712516784668,
        -4.220980644226074
      ],
      "type": "VEC3"
    },
    {
      "bufferView": 9,
      "componentType": 5126,
      "count": 11745,
      "max": [
        0.9998750686645508,
        0.9358437657356262,
        0.9999688267707825
      ],
      "min": [
        -0.9998750686645508,
        -0.9969375729560852,
        -0.9996563196182251
      ],
      "type": "VEC3"
    },
    {
      "bufferView": 10,
      "componentType": 5126,
      "count": 11745,
      "max": [
        0.9685959815979004,
        0.7018394470214844
      ],
      "min": [
        0.04771494120359421,
        0.03140401095151901
      ],
      "type": "VEC2"
    },
    {
      "bufferView": 11,
      "componentType": 5123,
      "count": 67584,
      "max": [
        11744
      ],
      "min": [
        0
      ],
      "type": "SCALAR"
    },
    {
      "bufferView": 12,
      "componentType": 5126,
      "count": 5853,
      "max": [
        3.06105375289917,
        4.17139196395874,
        3.020625352859497
      ],
      "min": [
        -5.152742862701416,
        -3.391326665878296,
        -5.013210773468018
      ],
      "type": "VEC3"
    },
    {
      "bufferView": 13,
      "componentType": 5126,
      "count": 5853,
      "max": [
        0.9999688267707825,
        0.9999688267707825,
        0.9998750686645508
      ],
      "min": [
        -0.9999688267707825,
        -0.9999688267707825,
        -0.9991875290870667
      ],
      "type": "VEC3"
    },
    {
      "bufferView": 14,
      "componentType": 5126,
      "count": 5853,
      "max": [
        1,
        1
      ],
      "min": [
        0,
        0
      ],
      "type": "VEC2"
    },
    {
      "bufferView": 15,
      "componentType": 5123,
      "count": 32256,
      "max": [
        5852
      ],
      "min": [
        0
      ],
      "type": "SCALAR"
    }
  ],
  "materials": [
    {
      "pbrMetallicRoughness": {
        "baseColorFactor": [
          1,
          0.53,
          0.53,
          1
        ],
        "metallicFactor": 0.54,
        "roughnessFactor": 0.3
      },
      "doubleSided": true,
      "name": "PBR.11"
    },
    {
      "pbrMetallicRoughness": {
        "baseColorFactor": [
          0.22,
          0.22,
          0.22,
          1
        ],
        "metallicFactor": 0.54,
        "roughnessFactor": 0.3,
        "baseColorTexture": {
          "index": 0
        }
      },
      "doubleSided": true,
      "name": "PBR.10"
    },
    {
      "pbrMetallicRoughness": {
        "baseColorFactor": [
          0.22,
          0.22,
          0.22,
          1
        ],
        "metallicFactor": 0.54,
        "roughnessFactor": 0.3,
        "baseColorTexture": {
          "index": 1
        }
      },
      "doubleSided": true,
      "name": "PBR.8"
    },
    {
      "pbrMetallicRoughness": {
        "baseColorFactor": [
          0.22,
          0.22,
          0.22,
          1
        ],
        "metallicFactor": 0.54,
        "roughnessFactor": 0.3,
        "baseColorTexture": {
          "index": 2
        }
      },
      "doubleSided": true,
      "name": "PBR.9"
    }
  ],
  "meshes": [
    {
      "primitives": [
        {
          "mode": 4,
          "attributes": {
            "POSITION": 0,
            "NORMAL": 1,
            "TEXCOORD_0": 2
          },
          "indices": 3,
          "material": 0
        }
      ]
    },
    {
      "primitives": [
        {
          "mode": 4,
          "attributes": {
            "POSITION": 4,
            "NORMAL": 5,
            "TEXCOORD_0": 6
          },
          "indices": 7,
          "material": 1
        }
      ]
    },
    {
      "primitives": [
        {
          "mode": 4,
          "attributes": {
            "POSITION": 8,
            "NORMAL": 9,
            "TEXCOORD_0": 10
          },
          "indices": 11,
          "material": 2
        }
      ]
    },
    {
      "primitives": [
        {
          "mode": 4,
          "attributes": {
            "POSITION": 12,
            "NORMAL": 13,
            "TEXCOORD_0": 14
          },
          "indices": 15,
          "material": 3
        }
      ]
    }
  ],
  "textures": [
    {
      "sampler": 0,
      "source": 0
    },
    {
      "sampler": 1,
      "source": 1
    },
    {
      "sampler": 2,
      "source": 2
    }
  ],
  "samplers": [
    {
      "magFilter": 9729,
      "minFilter": 9729,
      "wrapS": 10497,
      "wrapT": 10497
    },
    {
      "magFilter": 9729,
      "minFilter": 9729,
      "wrapS": 10497,
      "wrapT": 10497
    },
    {
      "magFilter": 9729,
      "minFilter": 9729,
      "wrapS": 10497,
      "wrapT": 10497
    }
  ],
  "images": [
    {
      "mimeType": "image/png",
      "uri": "data:image/png;base64,"
    },
    {
      "mimeType": "image/png",
      "uri": "data:image/png;base64,"
    },
    {
      "mimeType": "image/png",
      "uri": "data:image/png;base64,"
    }
  ]
}