{
	"nodes":[{
		"name":"face4",
		"translation":[-0.972781777381897,
		-2.785900115966797,
		-0.8517884612083435],
		"rotation":[0.0,
		0.0,
		0.0,
		-1.0],
		"scale":[1.0,
		1.0,
		1.0],
		"children":[1,
		2,
		3]
	},
	{
		"name":"face4-PBR",
		"mesh":0
	},
	{
		"name":"face4-PBR.2",
		"mesh":1
	},
	{
		"name":"face4-PBR.1",
		"mesh":2
	}],
	"asset":{
		"version":"2.0",
		"generator":"Created using the official Cinema 4D glTF Exporter 1.000x284978"
	},
	"textures":[{
		"sampler":0,
		"source":0
	},
	{
		"sampler":1,
		"source":1
	}],
	"scenes":[{
		"nodes":[0]
	}],
	"samplers":[{
		"magFilter":9729,
		"minFilter":9729,
		"wrapS":10497,
		"wrapT":10497
	},
	{
		"magFilter":9729,
		"minFilter":9729,
		"wrapS":10497,
		"wrapT":10497
	}],
	"meshes":[{
		"name":"face4-PBR",
		"primitives":[{
			"attributes":{
				"POSITION":1,
				"NORMAL":2,
				"TEXCOORD_0":3
			},
			"indices":0,
			"material":0
		}]
	},
	{
		"name":"face4-PBR.2",
		"primitives":[{
			"attributes":{
				"POSITION":5,
				"NORMAL":6,
				"TEXCOORD_0":7
			},
			"indices":4,
			"material":1
		}]
	},
	{
		"name":"face4-PBR.1",
		"primitives":[{
			"attributes":{
				"POSITION":9,
				"NORMAL":10,
				"TEXCOORD_0":11
			},
			"indices":8,
			"material":2
		}]
	}],
	"accessors":[{
		"componentType":5123,
		"bufferView":0,
		"type":"SCALAR",
		"count":24576,
		"byteOffset":0,
		"min":[0],
		"max":[4373]
	},
	{
		"componentType":5126,
		"bufferView":1,
		"type":"VEC3",
		"count":4374,
		"byteOffset":0,
		"min":[-3.1341164112091066,
		-0.47879910469055178,
		-2.8690896034240724],
		"max":[5.0796799659729,
		7.083919525146484,
		5.164746284484863]
	},
	{
		"componentType":5126,
		"bufferView":1,
		"type":"VEC3",
		"count":4374,
		"byteOffset":12,
		"min":[-0.9999688267707825,
		-0.9995625615119934,
		-0.9992188215255737],
		"max":[0.9999688267707825,
		0.9999688267707825,
		0.9995625615119934]
	},
	{
		"componentType":5126,
		"bufferView":1,
		"type":"VEC2",
		"count":4374,
		"byteOffset":24,
		"min":[0.01404554396867752,
		0.029727164655923845],
		"max":[0.9804357290267944,
		0.7045830488204956]
	},
	{
		"componentType":5123,
		"bufferView":2,
		"type":"SCALAR",
		"count":6912,
		"byteOffset":0,
		"min":[0],
		"max":[1233]
	},
	{
		"componentType":5126,
		"bufferView":3,
		"type":"VEC3",
		"count":1234,
		"byteOffset":0,
		"min":[-5.050273418426514,
		2.692948579788208,
		-0.8051831722259522],
		"max":[7.025355815887451,
		5.366114139556885,
		0.4370833933353424]
	},
	{
		"componentType":5126,
		"bufferView":3,
		"type":"VEC3",
		"count":1234,
		"byteOffset":12,
		"min":[-0.6241250038146973,
		-0.6649062633514404,
		0.6480937600135803],
		"max":[0.6402812600135803,
		0.6335312724113464,
		0.9995312690734863]
	},
	{
		"componentType":5126,
		"bufferView":3,
		"type":"VEC2",
		"count":1234,
		"byteOffset":24,
		"min":[0.15387144684791566,
		0.05186530947685242],
		"max":[0.22971156239509583,
		0.092369943857193]
	},
	{
		"componentType":5123,
		"bufferView":4,
		"type":"SCALAR",
		"count":85248,
		"byteOffset":0,
		"min":[0],
		"max":[14908]
	},
	{
		"componentType":5126,
		"bufferView":5,
		"type":"VEC3",
		"count":14909,
		"byteOffset":0,
		"min":[-5.6537370681762699,
		-6.814597129821777,
		-2.4698030948638918],
		"max":[7.691575527191162,
		5.616823673248291,
		3.824171304702759]
	},
	{
		"componentType":5126,
		"bufferView":5,
		"type":"VEC3",
		"count":14909,
		"byteOffset":12,
		"min":[-0.9998750686645508,
		-0.9998750686645508,
		-0.9996563196182251],
		"max":[0.9998750686645508,
		0.9998750686645508,
		0.9999688267707825]
	},
	{
		"componentType":5126,
		"bufferView":5,
		"type":"VEC2",
		"count":14909,
		"byteOffset":24,
		"min":[0.03372295945882797,
		0.035683855414390567],
		"max":[0.9662747383117676,
		0.9768960475921631]
	}],
	"buffers":[{
		"uri":"data:application/octet-stream;base64,",
		"byteLength":189120
	},
	{
		"uri":"data:application/octet-stream;base64,",
		"byteLength":53312
	},
	{
		"uri":"data:application/octet-stream;base64,",
		"byteLength":647584
	}],
	"bufferViews":[{
		"buffer":0,
		"byteOffset":0,
		"byteLength":49152,
		"target":34963
	},
	{
		"buffer":0,
		"byteOffset":49152,
		"byteLength":139968,
		"byteStride":32,
		"target":34962
	},
	{
		"buffer":1,
		"byteOffset":0,
		"byteLength":13824,
		"target":34963
	},
	{
		"buffer":1,
		"byteOffset":13824,
		"byteLength":39488,
		"byteStride":32,
		"target":34962
	},
	{
		"buffer":2,
		"byteOffset":0,
		"byteLength":170496,
		"target":34963
	},
	{
		"buffer":2,
		"byteOffset":170496,
		"byteLength":477088,
		"byteStride":32,
		"target":34962
	}],
	"images":[{
		"uri":"data:image/jpeg;base64,"
	},
	{
		"uri":"data:image/jpeg;base64,"
	}],
	"materials":[{
		"pbrMetallicRoughness":{
			"baseColorTexture":{
				"index":0
			},
			"baseColorFactor":[0.16078431372549019,
			0.1568627450980392,
			0.23529411764705883,
			1.0],
			"metallicFactor":0.3,
			"roughnessFactor":0.3
		},
		"emissiveFactor":[0.0,
		0.0,
		0.0],
		"alphaMode":"OPAQUE",
		"doubleSided":true,
		"name":"PBR"
	},
	{
		"pbrMetallicRoughness":{
			"baseColorFactor":[1.0,
			0.7137254901960785,
			0.6784313725490196,
			1.0],
			"metallicFactor":0.3,
			"roughnessFactor":0.3
		},
		"emissiveFactor":[0.0,
		0.0,
		0.0],
		"alphaMode":"OPAQUE",
		"doubleSided":true,
		"name":"PBR.2"
	},
	{
		"pbrMetallicRoughness":{
			"baseColorTexture":{
				"index":1
			},
			"baseColorFactor":[0.16078431372549019,
			0.1568627450980392,
			0.23529411764705883,
			1.0],
			"metallicFactor":0.3,
			"roughnessFactor":0.3
		},
		"emissiveFactor":[0.0,
		0.0,
		0.0],
		"alphaMode":"OPAQUE",
		"doubleSided":true,
		"name":"PBR.1"
	}]
}