{
	"scenes":[{
		"nodes":[0]
	}],
	"asset":{
		"version":"2.0",
		"generator":"Created using the official Cinema 4D glTF Exporter 1.000x290161"
	},
	"nodes":[{
		"name":"身体.1",
		"translation":[0.04776425659656525,
		-2.630878210067749,
		0.28053903579711916],
		"rotation":[0.0,
		0.0,
		0.0,
		-1.0],
		"scale":[1.0,
		1.0,
		1.0],
		"mesh":0
	}],
	"meshes":[{
		"primitives":[{
			"attributes":{
				"POSITION":1,
				"NORMAL":2,
				"TEXCOORD_0":3
			},
			"indices":0,
			"material":0
		}]
	}],
	"accessors":[{
		"bufferView":0,
		"type":"SCALAR",
		"componentType":5123,
		"count":29184,
		"byteOffset":0,
		"max":[5935],
		"min":[0]
	},
	{
		"bufferView":1,
		"type":"VEC3",
		"componentType":5126,
		"count":5936,
		"byteOffset":0,
		"max":[6.679943084716797,
		6.969619274139404,
		4.037426948547363],
		"min":[-6.679943084716797,
		-6.969619274139404,
		-4.037426948547363]
	},
	{
		"bufferView":1,
		"type":"VEC3",
		"componentType":5126,
		"count":5936,
		"byteOffset":12,
		"max":[0.999972403049469,
		0.9998800754547119,
		0.999935507774353],
		"min":[-0.999972403049469,
		-0.9999266862869263,
		-0.999624490737915]
	},
	{
		"bufferView":1,
		"type":"VEC2",
		"componentType":5126,
		"count":5936,
		"byteOffset":24,
		"max":[1.0,
		1.0],
		"min":[0.0,
		0.0]
	}],
	"bufferViews":[{
		"buffer":0,
		"byteOffset":0,
		"byteLength":58368,
		"target":34963
	},
	{
		"buffer":0,
		"byteOffset":58368,
		"byteLength":189952,
		"target":34962,
		"byteStride":32
	}],
	"buffers":[{
		"uri":"data:application/octet-stream;base64,",
		"byteLength":248320
	}],
	"materials":[{
		"pbrMetallicRoughness":{
			"baseColorFactor":[1.0,
			1.0,
			1.0,
			1.0],
			"metallicFactor":1.0,
			"roughnessFactor":1.0
		},
		"emissiveFactor":[0.0,
		0.0,
		0.0],
		"alphaMode":"OPAQUE",
		"doubleSided":false,
		"name":""
	}]
}