{
	"asset":{
		"version":"2.0",
		"generator":"Created using the official Cinema 4D glTF Exporter 1.000x284978"
	},
	"scenes":[{
		"nodes":[0]
	}],
	"nodes":[{
		"name":"细分曲面",
		"translation":[8.477166746345688e-10,
		-2.6242430210113527,
		-0.9722183346748352],
		"rotation":[0.0,
		0.0,
		0.0,
		-1.0],
		"scale":[1.0,
		1.0,
		1.0],
		"mesh":0
	}],
	"meshes":[{
		"name":"细分曲面",
		"primitives":[{
			"attributes":{
				"POSITION":1,
				"NORMAL":2,
				"TEXCOORD_0":3
			},
			"indices":0,
			"material":0
		}]
	}],
	"accessors":[{
		"bufferView":0,
		"type":"SCALAR",
		"componentType":5123,
		"count":29184,
		"byteOffset":0,
		"min":[0],
		"max":[5933]
	},
	{
		"bufferView":1,
		"type":"VEC3",
		"componentType":5126,
		"count":5934,
		"byteOffset":0,
		"min":[-6.632178783416748,
		-6.976254463195801,
		-2.7846693992614748],
		"max":[6.727707386016846,
		6.962984561920166,
		5.290184497833252]
	},
	{
		"bufferView":1,
		"type":"VEC3",
		"componentType":5126,
		"count":5934,
		"byteOffset":12,
		"min":[-0.9999723434448242,
		-0.9999266862869263,
		-0.999624490737915],
		"max":[0.999972403049469,
		0.9998800158500671,
		0.999935507774353]
	},
	{
		"bufferView":1,
		"type":"VEC2",
		"componentType":5126,
		"count":5934,
		"byteOffset":24,
		"min":[0.0,
		0.0],
		"max":[1.0,
		1.0]
	}],
	"bufferViews":[{
		"buffer":0,
		"byteOffset":0,
		"byteLength":58368,
		"target":34963
	},
	{
		"buffer":0,
		"byteOffset":58368,
		"byteLength":189888,
		"target":34962,
		"byteStride":32
	}],
	"buffers":[{
		"uri":"data:application/octet-stream;base64,",
		"byteLength":248256
	}],
	"materials":[{
		"emissiveFactor":[0.0,
		0.0,
		0.0],
		"pbrMetallicRoughness":{
			"baseColorFactor":[0.8,
			0.8,
			0.8,
			1.0],
			"metallicFactor":1.0,
			"roughnessFactor":1.0
		},
		"alphaMode":"OPAQUE",
		"doubleSided":false,
		"name":"PBR"
	}]
}